<?xml version="1.0" encoding="utf-8"?>
<!-- Generator: Adobe Illustrator 24.1.0, SVG Export Plug-In . SVG Version: 6.00 Build 0)  -->
<svg version="1.1" id="Layer_1" xmlns="http://www.w3.org/2000/svg" xmlns:xlink="http://www.w3.org/1999/xlink" x="0px" y="0px"
	 viewBox="0 0 827.2 616" style="enable-background:new 0 0 827.2 616;" xml:space="preserve">
<style type="text/css">
	.st0{fill:#FAA21B;}
	.st1{fill:#DF1683;}
</style>
<g id="Layer_2_1_">
	<g id="Layer_2-2">
		<path class="st0" d="M293.2,616c-9.4,0-17-7.6-17-17s7.6-17,17-17s17,7.6,17,17S302.6,616,293.2,616L293.2,616z M293.2,584
			c-8.3,0-15,6.7-15,15s6.7,15,15,15s15-6.7,15-15S301.5,584,293.2,584L293.2,584z"/>
		<path class="st0" d="M777.7,325c-9.4,0-17-7.6-17-17s7.6-17,17-17s17,7.6,17,17l0,0C794.7,317.4,787.1,325,777.7,325z M777.7,293
			c-8.3,0-15,6.7-15,15s6.7,15,15,15s15-6.7,15-15l0,0C792.7,299.7,786,293,777.7,293z"/>
		<path class="st0" d="M293.2,34c-9.4,0-17-7.6-17-17s7.6-17,17-17s17,7.6,17,17S302.6,34,293.2,34z M293.2,2c-8.3,0-15,6.7-15,15
			s6.7,15,15,15s15-6.7,15-15S301.5,2,293.2,2z"/>
		<circle class="st0" cx="99.2" cy="308" r="16"/>
		<circle class="st0" cx="487.2" cy="17" r="16"/>
		<circle class="st0" cx="390.2" cy="583" r="16"/>
		<circle class="st0" cx="681.2" cy="405" r="16"/>
		<path class="st0" d="M486.7,600c-161.3,0-292-130.7-292-292c0-77.4,30.8-151.7,85.5-206.5c114-114,298.9-114,413,0
			c54.8,54.8,85.5,129,85.5,206.5h-2c0-160.2-129.8-290-290-290s-290,129.8-290,290s129.8,290,290,290L486.7,600z"/>
		<rect x="292.2" y="211.2" class="st0" width="2" height="387.8"/>
		<polygon class="st0" points="390,309 0,309 292.7,16.3 294.1,17.7 4.8,307 390,307 		"/>
		<polygon class="st0" points="777.7,309 582,309 777.6,113.4 779,114.8 586.8,307 777.7,307 		"/>
		<rect x="680.4" y="259.5" class="st0" width="2" height="242.5"/>
		<path class="st1" d="M99.2,357.5c-27.3,0-49.5-22.2-49.5-49.5c0-27.3,22.2-49.5,49.5-49.5s49.5,22.2,49.5,49.5l0,0
			C148.6,335.3,126.5,357.5,99.2,357.5z M99.2,260.5c-26.2,0-47.5,21.3-47.5,47.5s21.3,47.5,47.5,47.5s47.5-21.3,47.5-47.5l0,0
			C146.6,281.8,125.4,260.5,99.2,260.5z"/>
		<path class="st1" d="M777.7,357.5c-27.3,0-49.5-22.2-49.5-49.5s22.2-49.5,49.5-49.5s49.5,22.2,49.5,49.5l0,0
			C827.2,335.3,805,357.5,777.7,357.5z M777.7,260.5c-26.2,0-47.5,21.3-47.5,47.5s21.3,47.5,47.5,47.5s47.5-21.3,47.5-47.5l0,0
			C825.2,281.8,803.9,260.5,777.7,260.5z"/>
		<path class="st1" d="M487.2,406c-54.1,0-98-43.9-98-98s43.9-98,98-98s98,43.9,98,98C585.1,362.1,541.3,405.9,487.2,406z
			 M487.2,212c-53,0-96,43-96,96s43,96,96,96s96-43,96-96C583.1,255,540.2,212.1,487.2,212z"/>
		<path class="st1" d="M390,330.4c-12.4,0-22.5-10-22.5-22.4c0-12.4,10-22.5,22.4-22.5c12.4,0,22.5,10,22.5,22.4c0,0,0,0,0,0
			C412.4,320.4,402.4,330.4,390,330.4z M390,287.6c-11.3,0-20.5,9.1-20.5,20.4c0,11.3,9.1,20.5,20.4,20.5c11.3,0,20.5-9.1,20.5-20.4
			c0,0,0,0,0,0C410.4,296.7,401.3,287.6,390,287.6z"/>
	</g>
</g>
</svg>
