<?xml version="1.0" encoding="utf-8"?>
<!-- Generator: Adobe Illustrator 24.1.3, SVG Export Plug-In . SVG Version: 6.00 Build 0)  -->
<svg version="1.1" id="Layer_1" xmlns="http://www.w3.org/2000/svg" xmlns:xlink="http://www.w3.org/1999/xlink" x="0px" y="0px"
	 viewBox="0 0 1118.7 1118.7" style="enable-background:new 0 0 1118.7 1118.7;" xml:space="preserve">
<style type="text/css">
	.st0{opacity:0.6;}
	.st1{fill:none;stroke:#FAA21B;stroke-width:2;stroke-miterlimit:10;}
	.st2{fill:#00AEEF;}
</style>
<g class="st0">
	<circle class="st1" cx="561.1" cy="559.1" r="394.7"/>
	<circle class="st1" cx="561.1" cy="559.1" r="278.5"/>
	<circle class="st1" cx="482.6" cy="637.7" r="167.4"/>
	<circle class="st2" cx="572.2" cy="548.5" r="74"/>
	<circle class="st2" cx="297.6" cy="743.4" r="45.1"/>
	<circle class="st2" cx="719.3" cy="637.7" r="21.4"/>
	<circle class="st1" cx="719.3" cy="637.7" r="40.9"/>
	<circle class="st2" cx="561.3" cy="279.4" r="21.4"/>
	<circle class="st1" cx="561.3" cy="279.4" r="40.9"/>
	<circle class="st1" cx="561.3" cy="411.1" r="18.9"/>
	<line class="st1" x1="297.6" y1="743.4" x2="162.9" y2="878"/>
	<line class="st1" x1="794" y1="406.3" x2="242.6" y2="957.7"/>
	<line class="st1" x1="561.3" y1="161" x2="561.3" y2="637.1"/>
	<line class="st1" x1="409" y1="325.8" x2="409" y2="639"/>
	<line class="st1" x1="720.7" y1="479.7" x2="872.3" y2="479.7"/>
	<line class="st1" x1="720.7" y1="639" x2="949" y2="639"/>
	<line class="st1" x1="837.1" y1="596.2" x2="919" y2="596.2"/>
</g>
</svg>
