<svg xmlns="http://www.w3.org/2000/svg" width="1118.716" height="1118.716" viewBox="0 0 1118.716 1118.716">
  <g id="Group_246" data-name="Group 246" transform="translate(1697.66 331.139) rotate(135)" opacity="0.6">
    <circle id="Ellipse_359" data-name="Ellipse 359" cx="394.526" cy="394.526" r="394.526" transform="translate(571.75 249)" fill="none" stroke="#faa21b" stroke-miterlimit="10" stroke-width="2"/>
    <circle id="Ellipse_360" data-name="Ellipse 360" cx="55.739" cy="55.739" r="55.739" transform="translate(797.318 813.355)" fill="none" stroke="#faa21b" stroke-miterlimit="10" stroke-width="2"/>
    <circle id="Ellipse_361" data-name="Ellipse 361" cx="55.739" cy="55.739" r="55.739" transform="translate(797.318 643.816)" fill="#1aaf94"/>
    <circle id="Ellipse_362" data-name="Ellipse 362" cx="55.739" cy="55.739" r="55.739" transform="translate(1294.404 643.816)" fill="#1aaf94"/>
    <circle id="Ellipse_363" data-name="Ellipse 363" cx="34.837" cy="34.837" r="34.837" transform="translate(1268.775 552.079)" fill="#1aaf94"/>
    <circle id="Ellipse_364" data-name="Ellipse 364" cx="15.096" cy="15.096" r="15.096" transform="translate(1380.252 571.82)" fill="#1aaf94"/>
    <circle id="Ellipse_365" data-name="Ellipse 365" cx="55.739" cy="55.739" r="55.739" transform="translate(1022.595 643.816)" fill="#1aaf94"/>
    <circle id="Ellipse_366" data-name="Ellipse 366" cx="112.639" cy="112.639" r="112.639" transform="translate(965.695 249)" fill="none" stroke="#faa21b" stroke-miterlimit="10" stroke-width="2"/>
    <circle id="Ellipse_367" data-name="Ellipse 367" cx="41.804" cy="41.804" r="41.804" transform="translate(1036.53 319.835)" fill="#faa21b"/>
    <line id="Line_172" data-name="Line 172" x2="732.563" transform="translate(740.929 699.627)" fill="none" stroke="#faa21b" stroke-miterlimit="10" stroke-width="2"/>
    <line id="Line_173" data-name="Line 173" x2="487.904" transform="translate(984.881 587.198)" fill="none" stroke="#faa21b" stroke-miterlimit="10" stroke-width="2"/>
    <line id="Line_174" data-name="Line 174" x2="0.707" y2="296.278" transform="translate(1078.219 403.35)" fill="none" stroke="#faa21b" stroke-miterlimit="10" stroke-width="2"/>
    <line id="Line_175" data-name="Line 175" x1="0.707" y1="113.844" transform="translate(852.652 699.627)" fill="none" stroke="#faa21b" stroke-miterlimit="10" stroke-width="2"/>
    <circle id="Ellipse_368" data-name="Ellipse 368" cx="34.837" cy="34.837" r="34.837" transform="translate(705.581 439.441)" fill="#faa21b"/>
    <line id="Line_176" data-name="Line 176" x2="0.707" y2="190.212" transform="translate(740.222 509.416)" fill="none" stroke="#faa21b" stroke-miterlimit="10" stroke-width="2"/>
    <line id="Line_177" data-name="Line 177" x1="0.707" y2="372.645" transform="translate(852.652 326.982)" fill="none" stroke="#faa21b" stroke-miterlimit="10" stroke-width="2"/>
    <circle id="Ellipse_369" data-name="Ellipse 369" cx="18.58" cy="18.58" r="18.58" transform="translate(721.838 680.975)" fill="#1aaf94"/>
    <circle id="Ellipse_370" data-name="Ellipse 370" cx="18.58" cy="18.58" r="18.58" transform="translate(834.477 289.643)" fill="none" stroke="#faa21b" stroke-miterlimit="10" stroke-width="2"/>
    <line id="Line_178" data-name="Line 178" y2="93.338" transform="translate(1190.649 606.289)" fill="none" stroke="#faa21b" stroke-miterlimit="10" stroke-width="2"/>
    <circle id="Ellipse_371" data-name="Ellipse 371" cx="18.58" cy="18.58" r="18.58" transform="translate(1172.393 569.498)" fill="#faa21b"/>
    <line id="Line_179" data-name="Line 179" y1="205.061" transform="translate(1022.358 699.627)" fill="none" stroke="#faa21b" stroke-miterlimit="10" stroke-width="2"/>
    <circle id="Ellipse_372" data-name="Ellipse 372" cx="18.58" cy="18.58" r="18.58" transform="translate(1004.016 905.092)" fill="#faa21b"/>
  </g>
</svg>
