<svg xmlns="http://www.w3.org/2000/svg" viewBox="0 0 877.16 740.47"><defs><style>.cls-1{fill:#faa21b;}.cls-2,.cls-4,.cls-6,.cls-8{fill:none;}.cls-2{stroke:#faa21b;}.cls-2,.cls-4,.cls-5,.cls-6,.cls-7,.cls-8{stroke-miterlimit:10;stroke-width:1.5px;}.cls-3{fill:#1aaf94;}.cls-4{stroke:#1aaf94;}.cls-5{fill:#da1684;}.cls-5,.cls-6{stroke:#da1684;}.cls-7{fill:#5b529e;}.cls-7,.cls-8{stroke:#5b529e;}</style></defs><g id="Layer_2" data-name="Layer 2"><g id="Layer_9" data-name="Layer 9"><circle class="cls-1" cx="864.16" cy="471.9" r="13"/><circle class="cls-1" cx="864.16" cy="342.76" r="13"/><circle class="cls-1" cx="664.55" cy="28.77" r="13"/><circle class="cls-1" cx="247.26" cy="727.47" r="13"/><circle class="cls-1" cx="247.26" cy="223.47" r="13"/><circle class="cls-2" cx="730.08" cy="194.89" r="16"/><circle class="cls-2" cx="798.45" cy="400.44" r="16"/><circle class="cls-2" cx="16.75" cy="223.47" r="16"/><circle class="cls-2" cx="386.99" cy="537.7" r="16"/><path class="cls-2" d="M249.73,731.61c-107.14,0-194-86.85-194-194s86.86-194,194-194H864.16"/><path class="cls-2" d="M661.27,28.77a97.31,97.31,0,1,1,0,194.62H16.84"/><path class="cls-2" d="M798.45,400.44,455.58,57.57c-75.76-75.76-198.59-75.76-274.36,0s-75.76,198.6,0,274.36L386.91,537.61"/><path class="cls-2" d="M729.86,194.67C616.21,81,432,81,318.32,194.67s-113.64,297.89,0,411.53,297.89,113.65,411.54,0l134.3-134.3"/><circle class="cls-3" cx="361.03" cy="342.76" r="19"/><circle class="cls-4" cx="361.03" cy="342.76" r="48"/><circle class="cls-5" cx="149.67" cy="112.52" r="19"/><circle class="cls-6" cx="149.67" cy="112.52" r="48"/><circle class="cls-5" cx="782.45" cy="553.7" r="19"/><circle class="cls-6" cx="782.45" cy="553.7" r="48"/><circle class="cls-7" cx="247.26" cy="484.9" r="19"/><circle class="cls-8" cx="247.26" cy="484.9" r="48"/></g></g></svg>