<svg xmlns="http://www.w3.org/2000/svg" viewBox="0 0 877.66 740.97"><defs><style>.cls-1{fill:#faa21b;}.cls-10,.cls-2,.cls-4,.cls-6,.cls-8{fill:none;}.cls-2{stroke:#faa21b;}.cls-10,.cls-2,.cls-4,.cls-5,.cls-6,.cls-8,.cls-9{stroke-miterlimit:10;stroke-width:2.5px;}.cls-3{fill:#1aaf94;}.cls-4{stroke:#1aaf94;}.cls-5{fill:#da1684;}.cls-5,.cls-6{stroke:#da1684;}.cls-7{fill:#c5e620;}.cls-8{stroke:#c5e620;}.cls-9{fill:#5b529e;}.cls-10,.cls-9{stroke:#5b529e;}</style></defs><g id="Layer_2" data-name="Layer 2"><g id="Layer_9" data-name="Layer 9"><circle class="cls-1" cx="864.66" cy="472.4" r="13"/><circle class="cls-1" cx="864.66" cy="343.26" r="13"/><circle class="cls-1" cx="665.05" cy="29.27" r="13"/><circle class="cls-1" cx="247.76" cy="727.97" r="13"/><circle class="cls-1" cx="247.76" cy="223.97" r="13"/><circle class="cls-2" cx="730.58" cy="195.39" r="16"/><circle class="cls-2" cx="798.95" cy="400.94" r="16"/><circle class="cls-2" cx="17.25" cy="223.97" r="16"/><circle class="cls-2" cx="387.49" cy="538.2" r="16"/><path class="cls-2" d="M250.23,732.11c-107.14,0-194-86.85-194-194s86.86-194,194-194H864.66"/><path class="cls-2" d="M661.77,29.27a97.31,97.31,0,1,1,0,194.62H17.34"/><path class="cls-2" d="M799,400.94,456.08,58.07c-75.76-75.76-198.59-75.76-274.36,0s-75.76,198.6,0,274.36L387.41,538.11"/><path class="cls-2" d="M730.36,195.17c-113.65-113.64-297.9-113.64-411.54,0s-113.64,297.89,0,411.53,297.89,113.65,411.54,0l134.3-134.3"/><circle class="cls-3" cx="361.53" cy="343.26" r="19"/><circle class="cls-4" cx="361.53" cy="343.26" r="48"/><circle class="cls-5" cx="150.17" cy="113.02" r="19"/><circle class="cls-6" cx="150.17" cy="113.02" r="48"/><circle class="cls-5" cx="782.95" cy="554.2" r="19"/><circle class="cls-6" cx="782.95" cy="554.2" r="48"/><circle class="cls-7" cx="54.17" cy="538.54" r="19"/><circle class="cls-8" cx="54.17" cy="538.54" r="48"/><circle class="cls-9" cx="247.76" cy="485.4" r="19"/><circle class="cls-10" cx="247.76" cy="485.4" r="48"/></g></g></svg>