<svg xmlns="http://www.w3.org/2000/svg" viewBox="0 0 963.55 951.58"><defs><style>.cls-1{fill:#1aaf94;}.cls-2{fill:#faa21b;}.cls-3{fill:#9957a3;}.cls-4{fill:#da1684;}</style></defs><title>Asset 19</title><g id="Layer_2" data-name="Layer 2"><g id="Layer_6" data-name="Layer 6"><circle class="cls-1" cx="134.24" cy="122.1" r="17.08"/><circle class="cls-1" cx="252.61" cy="122.1" r="32.95"/><circle class="cls-2" cx="370.98" cy="240.47" r="12.2"/><circle class="cls-3" cx="607.73" cy="358.84" r="19.53"/><path class="cls-2" d="M489.36,743a265.83,265.83,0,1,1,187.95-77.86A264,264,0,0,1,489.36,743Zm0-529.63A263.82,263.82,0,1,0,675.9,290.67,262.09,262.09,0,0,0,489.36,213.4Z"/><circle class="cls-2" cx="370.98" cy="595.59" r="24.41"/><circle class="cls-2" cx="252.61" cy="713.96" r="20.75"/><circle class="cls-3" cx="370.98" cy="713.96" r="13.42"/><circle class="cls-1" cx="15.86" cy="358.84" r="15.86"/><circle class="cls-4" cx="726.1" cy="240.47" r="70.78"/><path class="cls-2" d="M726.1,359.84A119.37,119.37,0,1,1,845.47,240.47,119.51,119.51,0,0,1,726.1,359.84Zm0-236.74A117.37,117.37,0,1,0,843.47,240.47,117.5,117.5,0,0,0,726.1,123.1Z"/><circle class="cls-2" cx="607.73" cy="595.59" r="14.64"/><circle class="cls-2" cx="726.1" cy="595.59" r="15.86"/><circle class="cls-2" cx="726.1" cy="713.96" r="15.86"/><circle class="cls-2" cx="370.98" cy="477.22" r="7.32"/><circle class="cls-3" cx="489.36" cy="832.33" r="7.32"/><circle class="cls-1" cx="252.61" cy="358.84" r="13.42"/><path class="cls-2" d="M488.75,951.58A473.48,473.48,0,0,1,14.86,477.7V193.49h2V477.7A471.49,471.49,0,0,0,488.75,949.58Z"/><path class="cls-2" d="M488.75,833.33a354.6,354.6,0,0,1-354.9-354.89h2a352.89,352.89,0,0,0,352.9,352.89Z"/><path class="cls-3" d="M371.45,950.71h-2V433.24a183.83,183.83,0,0,1,54.19-130.85L726,0l1.41,1.41L425.06,303.81a181.85,181.85,0,0,0-53.61,129.43Z"/><rect class="cls-2" x="547.54" y="-49.51" width="2" height="1171.83" transform="translate(-218.63 544.99) rotate(-45)"/><rect class="cls-4" x="547.24" y="-167.76" width="2" height="1170.97" transform="translate(-134.8 510.01) rotate(-45)"/><rect class="cls-2" x="558.7" y="239.47" width="334.81" height="2" transform="translate(42.63 583.86) rotate(-45)"/><rect class="cls-2" x="272.29" y="474.69" width="673.93" height="2" transform="translate(-157.92 570.13) rotate(-45)"/></g></g></svg>