<svg xmlns="http://www.w3.org/2000/svg" viewBox="0 0 82.37 82.37"><defs><style>.cls-1{fill:#da1484;}.cls-2{fill:#faa21f;}</style></defs><g id="Layer_2" data-name="Layer 2"><g id="Layer_3" data-name="Layer 3"><path class="cls-1" d="M40.68,57.31A22.77,22.77,0,1,1,63.44,34.54,22.8,22.8,0,0,1,40.68,57.31Zm0-43.54A20.77,20.77,0,1,0,61.44,34.54,20.79,20.79,0,0,0,40.68,13.77Z"/><path class="cls-2" d="M40.68,40.41a5.87,5.87,0,0,1,0-11.74v2a3.87,3.87,0,0,0,0,7.74Z"/><path class="cls-2" d="M68.2,34.54h-2A25.55,25.55,0,0,0,40.68,9V7A27.55,27.55,0,0,1,68.2,34.54Z"/><path class="cls-1" d="M69.23,70.41h-2V68.76a7.36,7.36,0,0,0-7.35-7.35H22.49a7.36,7.36,0,0,0-7.35,7.35v1.65h-2V68.76a9.36,9.36,0,0,1,9.35-9.35H59.88a9.35,9.35,0,0,1,9.35,9.35Z"/><polygon class="cls-2" points="42.19 81.37 40.19 81.37 40.19 66.41 30.77 66.41 30.77 64.41 42.19 64.41 42.19 81.37"/><path class="cls-2" d="M41.19,82.37A41.19,41.19,0,1,1,82.37,41.19,41.23,41.23,0,0,1,41.19,82.37ZM41.19,2A39.19,39.19,0,1,0,80.37,41.19,39.23,39.23,0,0,0,41.19,2Z"/></g></g></svg>