<svg xmlns="http://www.w3.org/2000/svg" viewBox="0 0 390.32 293.66"><defs><style>.cls-1{fill:#2a2728;}.cls-2{fill:#da1484;}.cls-3{fill:#ffa300;}</style></defs><g id="Layer_2" data-name="Layer 2"><g id="Layer_1-2" data-name="Layer 1"><path class="cls-1" d="M375.82,107.38H355.41a79.87,79.87,0,0,0-32.28-54.3l31.71-31.72-.7-.71a65.7,65.7,0,0,0-92.63,0l-8.74,8.75a50.82,50.82,0,0,0-83.91,8.4h-20.7a79.81,79.81,0,0,0-79.72,79.72v22a39.66,39.66,0,0,1-55.72-.28,31.54,31.54,0,0,1,0-44.53,25,25,0,0,1,35.34,0,19.81,19.81,0,0,1,0,28,15.66,15.66,0,0,1-22.11,0l-1.41,1.41a17.61,17.61,0,0,0,24.93,0,21.79,21.79,0,0,0,0-30.81,27,27,0,0,0-38.16,0,33.51,33.51,0,0,0,0,47.35,41.64,41.64,0,0,0,57.13,1.61v3.08a79.45,79.45,0,0,0,24.35,57.27h0a66.21,66.21,0,0,1,21.86,49v40.51h31.55v-1a66.06,66.06,0,1,1,132.12,0v1h31.52V251.65a66.2,66.2,0,0,1,20-47.19,79.65,79.65,0,0,0,25.59-48.94h20.42a13,13,0,0,0,13-13V120.38A13,13,0,0,0,375.82,107.38Z"/><path class="cls-2" d="M327.78,117.46a9.08,9.08,0,1,1,9.08-9.08A9.09,9.09,0,0,1,327.78,117.46Zm0-13.16a4.08,4.08,0,1,0,4.08,4.08A4.08,4.08,0,0,0,327.78,104.3Z"/><path class="cls-2" d="M357.56,117.52h-5a76.27,76.27,0,0,0-33.69-63.16l2.81-4.14A81.27,81.27,0,0,1,357.56,117.52Z"/><path class="cls-2" d="M148.16,226.6a81.31,81.31,0,0,1-81.22-81.22V117.52A81.31,81.31,0,0,1,148.16,36.3h21.56v5H148.16a76.3,76.3,0,0,0-76.22,76.22v27.86a76.3,76.3,0,0,0,76.22,76.22Z"/><path class="cls-2" d="M276.34,226.6v-5a76.3,76.3,0,0,0,76.22-76.22h5A81.31,81.31,0,0,1,276.34,226.6Z"/><path class="cls-2" d="M311.33,251.65h-5a69.75,69.75,0,0,1,22.54-51.16l3.39,3.68A64.76,64.76,0,0,0,311.33,251.65Z"/><path class="cls-2" d="M322,56.29l-3.54-3.54,31.36-31.36A62.07,62.07,0,0,0,264,23.13l-3.54-3.54a67.08,67.08,0,0,1,94.75,0L357,21.36Z"/><path class="cls-2" d="M375.82,157H354.53v-5h21.29a9.51,9.51,0,0,0,9.5-9.5V120.38a9.51,9.51,0,0,0-9.5-9.5h-21v-5h21a14.52,14.52,0,0,1,14.5,14.5v22.14A14.51,14.51,0,0,1,375.82,157Z"/><path class="cls-2" d="M40.73,154.36a42.94,42.94,0,0,1-30.48-12.61,35,35,0,0,1,0-49.47,28.51,28.51,0,0,1,40.28,0,23.3,23.3,0,0,1,0,32.94,19.13,19.13,0,0,1-27,0L27,121.68a14.14,14.14,0,0,0,20,0,18.31,18.31,0,0,0,0-25.87,23.53,23.53,0,0,0-33.22,0,30,30,0,0,0,0,42.41,38.16,38.16,0,0,0,53.89,0l3.54,3.53A43,43,0,0,1,40.73,154.36Z"/><path class="cls-2" d="M311.33,293.66H276.81v-2.5a64.56,64.56,0,1,0-129.12,0v2.5H113.14v-42a64.68,64.68,0,0,0-21.37-47.87l3.36-3.71a69.69,69.69,0,0,1,23,51.58v37h24.59a69.57,69.57,0,0,1,139,0h24.56v-37h5Z"/><rect class="cls-2" x="250.73" y="23.62" width="13.47" height="5" transform="translate(56.94 189.7) rotate(-45)"/><path class="cls-3" d="M266,61.87h-5a47.36,47.36,0,1,0-94.72,0h-5a52.36,52.36,0,1,1,104.72,0Z"/><path class="cls-3" d="M247.14,61.87h-5a28.49,28.49,0,1,0-57,0h-5a33.49,33.49,0,1,1,67,0Z"/><rect class="cls-2" x="150.96" y="59.37" width="125.37" height="5"/></g></g></svg>