<?xml version="1.0" encoding="utf-8"?>
<!-- Generator: Adobe Illustrator 24.1.3, SVG Export Plug-In . SVG Version: 6.00 Build 0)  -->
<svg version="1.1" id="Layer_1" xmlns="http://www.w3.org/2000/svg" xmlns:xlink="http://www.w3.org/1999/xlink" x="0px" y="0px"
	 viewBox="0 0 1118.7 1118.7" style="enable-background:new 0 0 1118.7 1118.7;" xml:space="preserve">
<style type="text/css">
	.st0{opacity:0.6;}
	.st1{fill:none;stroke:#FAA21B;stroke-width:2;stroke-miterlimit:10;}
	.st2{fill:none;stroke:#DF1683;stroke-width:2;stroke-miterlimit:10;}
	.st3{fill:#DA1684;}
	.st4{fill:#FAA21B;}
</style>
<g class="st0">
	<circle class="st1" cx="561.1" cy="557.4" r="394.7"/>
	<circle class="st1" cx="561.1" cy="557.4" r="278.5"/>
	<circle class="st1" cx="720.5" cy="398" r="169.6"/>
	<circle class="st2" cx="336.7" cy="572" r="169.6"/>
	<circle class="st1" cx="681.2" cy="836" r="112.7"/>
	<circle class="st3" cx="681.2" cy="836" r="41.8"/>
	<circle class="st3" cx="865.4" cy="701.5" r="41.8"/>
	<circle class="st2" cx="865.4" cy="701.5" r="57.5"/>
	<circle class="st2" cx="300.9" cy="738.3" r="57.5"/>
	<circle class="st4" cx="441.8" cy="438.1" r="19.5"/>
	<circle class="st4" cx="300.9" cy="738.3" r="19.5"/>
	<circle class="st3" cx="714.4" cy="324.8" r="19.5"/>
	<circle class="st3" cx="836.4" cy="521.5" r="19.5"/>
	<circle class="st3" cx="325.9" cy="870.2" r="19.5"/>
	<line class="st1" x1="714.4" y1="324.8" x2="162.9" y2="876.3"/>
	<line class="st1" x1="574.8" y1="623.8" x2="242.6" y2="956"/>
	<line class="st1" x1="462.4" y1="298.5" x2="601.6" y2="437.7"/>
	<line class="st1" x1="865.2" y1="701.3" x2="601.6" y2="437.7"/>
	<circle class="st2" cx="462.4" cy="298.5" r="18.6"/>
	<path class="st1" d="M574.8,623.8c58.8-58.8,154-58.8,212.8,0"/>
</g>
</svg>
