<svg xmlns="http://www.w3.org/2000/svg" width="1133.995" height="1133.995" viewBox="0 0 1133.995 1133.995">
  <g id="Group_219" data-name="Group 219" transform="translate(1718.787 348.907) rotate(135)" opacity="0.6">
    <circle id="Ellipse_249" data-name="Ellipse 249" cx="36.491" cy="36.491" r="36.491" transform="translate(1256.489 680.746)" fill="#9957a3"/>
    <circle id="Ellipse_250" data-name="Ellipse 250" cx="20.011" cy="20.011" r="20.011" transform="translate(1429.526 697.226)" fill="#9957a3"/>
    <circle id="Ellipse_251" data-name="Ellipse 251" cx="20.011" cy="20.011" r="20.011" transform="translate(1340.065 584.222)" fill="#9957a3"/>
    <circle id="Ellipse_252" data-name="Ellipse 252" cx="399.928" cy="399.928" r="399.928" transform="translate(568.724 260.297)" fill="none" stroke="#faa21b" stroke-miterlimit="10" stroke-width="2"/>
    <circle id="Ellipse_253" data-name="Ellipse 253" cx="42.376" cy="42.376" r="42.376" transform="translate(986.928 332.318)" fill="#faa21b"/>
    <circle id="Ellipse_254" data-name="Ellipse 254" cx="114.181" cy="114.181" r="114.181" transform="translate(915.123 260.513)" fill="none" stroke="#9957a3" stroke-miterlimit="10" stroke-width="2"/>
    <circle id="Ellipse_255" data-name="Ellipse 255" cx="137.723" cy="137.723" r="137.723" transform="translate(891.581 236.971)" fill="none" stroke="#9957a3" stroke-miterlimit="10" stroke-width="2"/>
    <circle id="Ellipse_256" data-name="Ellipse 256" cx="190.694" cy="190.694" r="190.694" transform="translate(838.61 184)" fill="none" stroke="#9957a3" stroke-miterlimit="10" stroke-width="2"/>
    <circle id="Ellipse_257" data-name="Ellipse 257" cx="42.376" cy="42.376" r="42.376" transform="translate(986.928 332.318)" fill="#faa21b"/>
    <circle id="Ellipse_258" data-name="Ellipse 258" cx="114.181" cy="114.181" r="114.181" transform="translate(915.123 260.513)" fill="none" stroke="#9957a3" stroke-miterlimit="10" stroke-width="2"/>
    <circle id="Ellipse_259" data-name="Ellipse 259" cx="137.723" cy="137.723" r="137.723" transform="translate(891.581 236.971)" fill="none" stroke="#9957a3" stroke-miterlimit="10" stroke-width="2"/>
    <circle id="Ellipse_260" data-name="Ellipse 260" cx="190.694" cy="190.694" r="190.694" transform="translate(838.61 184)" fill="none" stroke="#9957a3" stroke-miterlimit="10" stroke-width="2"/>
    <circle id="Ellipse_261" data-name="Ellipse 261" cx="21.188" cy="21.188" r="21.188" transform="translate(893.935 810.23)" fill="#faa21b"/>
    <circle id="Ellipse_262" data-name="Ellipse 262" cx="109.472" cy="109.472" r="109.472" transform="translate(805.651 721.945)" fill="none" stroke="#9957a3" stroke-miterlimit="10" stroke-width="2"/>
    <circle id="Ellipse_263" data-name="Ellipse 263" cx="67.096" cy="67.096" r="67.096" transform="translate(620.842 651.318)" fill="none" stroke="#9957a3" stroke-miterlimit="10" stroke-width="2"/>
    <circle id="Ellipse_264" data-name="Ellipse 264" cx="137.723" cy="137.723" r="137.723" transform="translate(777.4 693.694)" fill="none" stroke="#9957a3" stroke-miterlimit="10" stroke-width="2"/>
    <path id="Path_842" data-name="Path 842" d="M1188.362,574.362C1062.241,574.362,960,472.121,960,346" transform="translate(69.304 28.694)" fill="none" stroke="#faa21b" stroke-miterlimit="10" stroke-width="2"/>
    <path id="Path_843" data-name="Path 843" d="M863,768.362C863,642.241,965.241,540,1091.362,540" transform="translate(52.123 63.056)" fill="none" stroke="#faa21b" stroke-miterlimit="10" stroke-width="2"/>
    <line id="Line_98" data-name="Line 98" x2="342.543" transform="translate(1143.485 603.056)" fill="none" stroke="#faa21b" stroke-miterlimit="10" stroke-width="2"/>
    <line id="Line_99" data-name="Line 99" x1="799.267" transform="translate(686.761 717.237)" fill="none" stroke="#faa21b" stroke-miterlimit="10" stroke-width="2"/>
    <circle id="Ellipse_265" data-name="Ellipse 265" cx="30.605" cy="30.605" r="30.605" transform="translate(656.156 686.632)" fill="none" stroke="#faa21b" stroke-miterlimit="10" stroke-width="2"/>
  </g>
</svg>
