<svg xmlns="http://www.w3.org/2000/svg" viewBox="0 0 422.01 616.41"><defs><style>.cls-1{fill:#9957a3;}.cls-2{fill:#1aaf94;}.cls-3{fill:#da1684;}.cls-4{fill:#00aeef;}.cls-10,.cls-5,.cls-6,.cls-7,.cls-8,.cls-9{fill:none;}.cls-5,.cls-6{stroke:#faa21b;}.cls-5{stroke-miterlimit:10;stroke-width:2px;}.cls-10,.cls-6,.cls-7,.cls-8,.cls-9{stroke-miterlimit:10;stroke-width:2px;}.cls-7{stroke:#9957a3;}.cls-8{stroke:#00aeef;}.cls-9{stroke:#da1684;}.cls-10{stroke:#1aaf94;}</style></defs><title>Potato_2</title><g id="Layer_2" data-name="Layer 2"><g id="Layer_1-2" data-name="Layer 1"><g id="Layer_2-2" data-name="Layer 2"><g id="Layer_1-2-2" data-name="Layer 1-2"><circle class="cls-1" cx="273.2" cy="291.41" r="2"/><circle class="cls-2" cx="176.6" cy="298.51" r="2"/><circle class="cls-3" cx="70.3" cy="98.31" r="2"/><circle class="cls-2" cx="154.5" cy="163.31" r="2"/><circle class="cls-4" cx="175.5" cy="184.31" r="2"/><circle class="cls-4" cx="194.6" cy="203.41" r="2"/><circle class="cls-3" cx="92.7" cy="72.41" r="2"/><circle class="cls-5" cx="176.55" cy="181.36" r="55.6"/><circle class="cls-5" cx="176.55" cy="181.36" r="55.6"/><path class="cls-6" d="M176.6,356.91A175.58,175.58,0,0,1,1,181.31"/><path class="cls-6" d="M176.6,356.91a175.58,175.58,0,0,1,175.6,175.6"/><path class="cls-7" d="M318.2,179.51a183.06,183.06,0,0,1,53.7-129.7"/><path class="cls-7" d="M301.9,179.51a143,143,0,0,1,42-101.3"/><circle class="cls-8" cx="176.6" cy="64.21" r="24.4"/><circle class="cls-9" cx="176.6" cy="298.51" r="24.4"/><circle class="cls-10" cx="59.4" cy="181.31" r="37.1"/><circle class="cls-7" cx="293.8" cy="181.31" r="24.4"/><circle class="cls-7" cx="293.8" cy="181.31" r="8.1"/><path class="cls-6" d="M152.3,66.71A117.4,117.4,0,0,0,62,157.11"/><path class="cls-6" d="M62,205.61A117.38,117.38,0,0,0,152.4,296"/><path class="cls-6" d="M291.2,205.71a117.29,117.29,0,0,1-90.3,90.2"/><path class="cls-6" d="M201,66.71A117.29,117.29,0,0,1,291.2,157"/><path class="cls-6" d="M201,66.71A117.29,117.29,0,0,1,291.2,157"/><line class="cls-6" x1="1" y1="181.31" x2="1" y2="0.71"/><line class="cls-7" x1="343.9" y1="78.11" x2="421.3" y2="0.71"/><line class="cls-6" x1="352.2" y1="532.51" x2="352.2" y2="616.41"/></g></g></g></g></svg>