<svg xmlns="http://www.w3.org/2000/svg" viewBox="0 0 601.07 651.51"><defs><style>.cls-1{fill:#faa21b;}.cls-2{fill:#1aaf94;}.cls-3{fill:#00aeef;}.cls-4{fill:#9957a3;}.cls-5{fill:#da1684;}</style></defs><title>Potato_6</title><g id="Layer_2" data-name="Layer 2"><g id="Layer_3" data-name="Layer 3"><path class="cls-1" d="M112.05,304v-1a119.51,119.51,0,0,0,85.06-35.23l.71.71A120.5,120.5,0,0,1,112.05,304Z"/><path class="cls-1" d="M210.92,223.19l-1,0c1.12-38.53-12.83-74.31-39.28-100.75l.71-.71C198,148.34,212.05,184.39,210.92,223.19Z"/><circle class="cls-2" cx="207.09" cy="246.97" r="1.95"/><circle class="cls-2" cx="165.79" cy="112.06" r="1.95"/><circle class="cls-3" cx="123.86" cy="311.97" r="1.95"/><circle class="cls-3" cx="119.04" cy="328.02" r="1.95"/><path class="cls-1" d="M112.05,415.2a57.49,57.49,0,0,1-57.42-57.42h1a56.48,56.48,0,0,0,56.42,56.42Z"/><path class="cls-3" d="M207.09,270.84A23.88,23.88,0,1,1,231,247,23.9,23.9,0,0,1,207.09,270.84Zm0-46.75A22.88,22.88,0,1,0,230,247,22.91,22.91,0,0,0,207.09,224.09Z"/><path class="cls-4" d="M123.86,148.55a11,11,0,1,1,11-11A11,11,0,0,1,123.86,148.55Zm0-21.05a10,10,0,1,0,10,10A10,10,0,0,0,123.86,127.5Z"/><path class="cls-5" d="M56.38,351.29a49.4,49.4,0,1,1,49.4-49.4A49.46,49.46,0,0,1,56.38,351.29Zm0-97.79a48.4,48.4,0,1,0,48.4,48.39A48.46,48.46,0,0,0,56.38,253.5Z"/><path class="cls-5" d="M56.38,358.28a56.39,56.39,0,1,1,56.39-56.39A56.44,56.44,0,0,1,56.38,358.28Zm0-111.77a55.39,55.39,0,1,0,55.39,55.38A55.45,55.45,0,0,0,56.38,246.51Z"/><path class="cls-2" d="M130.29,480.66a36,36,0,1,1,36-36A36.05,36.05,0,0,1,130.29,480.66Zm0-71a35,35,0,1,0,35,35A35,35,0,0,0,130.29,409.65Z"/><path class="cls-2" d="M130.29,464.35A19.7,19.7,0,1,1,150,444.65,19.73,19.73,0,0,1,130.29,464.35Zm0-38.39A18.7,18.7,0,1,0,149,444.65,18.72,18.72,0,0,0,130.29,426Z"/><path class="cls-1" d="M460,425.87l-.71-.71a99.73,99.73,0,0,1,71-29.4v1A98.72,98.72,0,0,0,460,425.87Z"/><path class="cls-1" d="M209.39,324.73l-.7-.71a197.68,197.68,0,0,1,140.7-58.28v1A196.73,196.73,0,0,0,209.39,324.73Z"/><path class="cls-1" d="M252.18,564.76C208.46,521,185.4,461.9,187.24,398.23l1,0c-1.83,63.39,21.13,122.27,64.65,165.79Z"/><circle class="cls-2" cx="193.23" cy="359.14" r="3.2"/><circle class="cls-2" cx="399.35" cy="491.32" r="3.2"/><circle class="cls-2" cx="261.09" cy="580.83" r="3.2"/><circle class="cls-3" cx="329.99" cy="252.33" r="3.2"/><circle class="cls-3" cx="337.91" cy="225.96" r="3.2"/><path class="cls-1" d="M443.42,177.06h-1a92.67,92.67,0,0,0-92.56-92.57v-1A93.66,93.66,0,0,1,443.42,177.06Z"/><path class="cls-1" d="M524.08,613.1a94.13,94.13,0,0,1-94-94h1a93.14,93.14,0,0,0,93,93Z"/><path class="cls-3" d="M193.23,398.05a38.91,38.91,0,1,1,38.91-38.91A38.95,38.95,0,0,1,193.23,398.05Zm0-76.82a37.91,37.91,0,1,0,37.91,37.91A38,38,0,0,0,193.23,321.23Z"/><path class="cls-4" d="M299,627.19A49.07,49.07,0,1,1,348,578.13,49.12,49.12,0,0,1,299,627.19Zm0-97.14A48.08,48.08,0,1,0,347,578.13,48.13,48.13,0,0,0,299,530.05Z"/><path class="cls-3" d="M562.16,651.51a38.91,38.91,0,1,1,38.91-38.91A39,39,0,0,1,562.16,651.51Zm0-76.82a37.91,37.91,0,1,0,37.91,37.91A38,38,0,0,0,562.16,574.69Z"/><path class="cls-2" d="M579.46,630.39a17.79,17.79,0,1,1,17.79-17.79A17.82,17.82,0,0,1,579.46,630.39Zm0-34.58a16.79,16.79,0,1,0,16.79,16.79A16.82,16.82,0,0,0,579.46,595.81Z"/><path class="cls-4" d="M330,556.78A17.8,17.8,0,1,1,347.78,539,17.81,17.81,0,0,1,330,556.78Zm0-34.59A16.8,16.8,0,1,0,346.78,539,16.82,16.82,0,0,0,330,522.19Z"/><path class="cls-5" d="M440.86,349.74a80.86,80.86,0,1,1,80.85-80.85A80.94,80.94,0,0,1,440.86,349.74Zm0-160.71a79.86,79.86,0,1,0,79.85,79.86A79.94,79.94,0,0,0,440.86,189Z"/><path class="cls-5" d="M424.09,519.57a53.73,53.73,0,1,1,53.73-53.72A53.78,53.78,0,0,1,424.09,519.57Zm0-106.45a52.73,52.73,0,1,0,52.73,52.73A52.78,52.78,0,0,0,424.09,413.12Z"/><path class="cls-2" d="M319.43,66.34a32,32,0,1,1,32-32A32.07,32.07,0,0,1,319.43,66.34Zm0-63.07a31,31,0,1,0,31,31A31.07,31.07,0,0,0,319.43,3.27Z"/><rect class="cls-1" x="142.55" width="1" height="84.15"/><path class="cls-2" d="M366,0a57.84,57.84,0,1,1-93.13,0h-1.23a58.83,58.83,0,1,0,95.59,0Z"/><path class="cls-4" d="M142.55,143.37a29.86,29.86,0,1,1,29.86-29.86A29.89,29.89,0,0,1,142.55,143.37Zm0-58.74a28.88,28.88,0,1,0,28.87,28.88A28.92,28.92,0,0,0,142.55,84.63Z"/><path class="cls-5" d="M440.86,361.22a92.33,92.33,0,1,1,92.33-92.33A92.44,92.44,0,0,1,440.86,361.22Zm0-183.66a91.33,91.33,0,1,0,91.33,91.33A91.43,91.43,0,0,0,440.86,177.56Z"/></g></g></svg>