<svg xmlns="http://www.w3.org/2000/svg" viewBox="0 0 694.85 775.74"><defs><style>.cls-1,.cls-2,.cls-3,.cls-4{fill:none;stroke-miterlimit:10;stroke-width:2px;}.cls-1{stroke:#faa21b;}.cls-2{stroke:#00aeef;}.cls-3{stroke:#da1684;}.cls-4{stroke:#9957a3;}.cls-5{fill:#00aeef;}.cls-6{fill:#da1684;}.cls-7{fill:#faa21b;}.cls-8{fill:#9957a3;}</style></defs><title>Potato_1</title><g id="Layer_2" data-name="Layer 2"><g id="Layer_1-2" data-name="Layer 1"><g id="Layer_1-2-2" data-name="Layer 1-2"><path class="cls-1" d="M164.7,112.48A175.69,175.69,0,0,1,.93.36"/><path class="cls-2" d="M271.58,427.58c146.89,0,279.88,59.53,376.16,155.81l46.41,46.41"/><path class="cls-2" d="M271.58,427.58a180.78,180.78,0,0,1,128.24,53.13L694.15,775"/><line class="cls-3" x1="345.75" y1="269.98" x2="277.06" y2="269.99"/><path class="cls-3" d="M300.28,270a33.1,33.1,0,1,0-66.19-.3,1.5,1.5,0,0,0,0,.3H142.16A33.1,33.1,0,0,1,76,270"/><line class="cls-2" x1="108.02" y1="269.98" x2="30.55" y2="269.98"/><path class="cls-4" d="M188.12,157.85a33.1,33.1,0,0,0-.29,66.2h.29V316a33.1,33.1,0,0,1,0,66.2v45.44"/><circle class="cls-5" cx="312.4" cy="147.73" r="2.32"/><circle class="cls-5" cx="287.55" cy="147.73" r="2.32"/><circle class="cls-5" cx="105.7" cy="269.98" r="2.32"/><circle class="cls-5" cx="142.26" cy="241.53" r="2.32"/><circle class="cls-6" cx="59.65" cy="399.25" r="2.32"/><circle class="cls-6" cx="127.52" cy="399.24" r="2.32"/><circle class="cls-6" cx="470.73" cy="525.23" r="2.32" transform="translate(-233.52 486.69) rotate(-45)"/><circle class="cls-6" cx="496.73" cy="551.23" r="2.32" transform="translate(-244.29 512.69) rotate(-45)"/><circle class="cls-7" cx="545.31" cy="599.82" r="2.32" transform="translate(-264.42 561.28) rotate(-45)"/><circle class="cls-8" cx="92.29" cy="399.25" r="2.32"/><circle class="cls-8" cx="284.25" cy="315.94" r="2.32"/><circle class="cls-8" cx="124.54" cy="80.51" r="2.32"/><circle class="cls-8" cx="81.63" cy="60.36" r="2.32"/><line class="cls-2" x1="30.56" y1="241.54" x2="142.26" y2="241.53"/><path class="cls-2" d="M271.58,427.58h-229a12,12,0,0,1-12-12V239.69"/><path class="cls-1" d="M164.8,112.39h169a12,12,0,0,1,12,12v0l0,177.31"/><line class="cls-1" x1="188.15" y1="178.43" x2="188.15" y2="112.38"/><line class="cls-4" x1="188.15" y1="315.94" x2="273.11" y2="315.95"/></g></g></g></svg>