<svg xmlns="http://www.w3.org/2000/svg" viewBox="0 0 776.71 598.89"><defs><style>.cls-1{opacity:0.8;}.cls-2{fill:#00aeef;}.cls-3{fill:#faa21b;}.cls-4{fill:#da1684;}.cls-5{fill:#9957a3;}.cls-6{fill:#1aaf94;}</style></defs><g id="Layer_2" data-name="Layer 2"><g id="Layer_2-2" data-name="Layer 2"><g class="cls-1"><circle class="cls-2" cx="602.86" cy="491.89" r="48"/></g><g class="cls-1"><circle class="cls-3" cx="660.86" cy="296.89" r="11"/></g><g class="cls-1"><circle class="cls-3" cx="388.71" cy="587.89" r="11"/></g><g class="cls-1"><circle class="cls-4" cx="223.71" cy="393.89" r="29"/></g><g class="cls-1"><path class="cls-3" d="M776.71,295.89v2H268.37A184.71,184.71,0,0,0,136.9,352.35L1.41,487.84,0,486.43,135.49,350.94a186.66,186.66,0,0,1,132.88-55.05Z"/></g><g class="cls-1"><path class="cls-3" d="M772.23,1.41,517.44,256.2a141.4,141.4,0,0,1-100.65,41.69v-2A139.39,139.39,0,0,0,516,254.79L770.81,0Z"/></g><g class="cls-1"><circle class="cls-3" cx="418.95" cy="200.73" r="11"/></g><g class="cls-1"><rect class="cls-3" x="323.95" y="199.73" width="192" height="2"/></g><g class="cls-1"><path class="cls-5" d="M325,200.73a98,98,0,1,1-98-98A98.11,98.11,0,0,1,325,200.73Zm-194,0a96,96,0,1,0,96-96A96.1,96.1,0,0,0,131,200.73Z"/></g><g class="cls-1"><path class="cls-5" d="M258,200.73a31,31,0,1,1-31-31A31,31,0,0,1,258,200.73Zm-60,0a29,29,0,1,0,29-29A29,29,0,0,0,198,200.73Z"/></g><g class="cls-1"><path class="cls-3" d="M661.57,294l-1.42,1.42-135-135c-75.25-75.25-197.69-75.25-272.94,0s-75.25,197.69,0,273,197.69,75.25,272.94,0l1.41,1.41A195,195,0,0,1,193.71,296.89h0A195,195,0,0,1,526.59,159Z"/></g><g class="cls-1"><path class="cls-3" d="M680.71,296.89a292,292,0,1,1-584,0h2a290,290,0,1,0,290-290v-2a292,292,0,0,1,292,292Z"/></g><g class="cls-1"><circle class="cls-6" cx="388.95" cy="102.89" r="19"/></g><g class="cls-1"><circle class="cls-3" cx="526.95" cy="102.89" r="11"/></g><g class="cls-1"><rect class="cls-3" x="436.95" y="101.89" width="94" height="2"/></g><g class="cls-1"><path class="cls-6" d="M438,102.89a49,49,0,1,1-49-49A49.05,49.05,0,0,1,438,102.89Zm-96,0a47,47,0,1,0,47-47A47,47,0,0,0,342,102.89Z"/></g></g></g></svg>