<?xml version="1.0" encoding="utf-8"?>
<!-- Generator: Adobe Illustrator 24.1.3, SVG Export Plug-In . SVG Version: 6.00 Build 0)  -->
<svg version="1.1" id="Layer_1" xmlns="http://www.w3.org/2000/svg" xmlns:xlink="http://www.w3.org/1999/xlink" x="0px" y="0px"
	 viewBox="0 0 1118.7 1118.7" style="enable-background:new 0 0 1118.7 1118.7;" xml:space="preserve">
<style type="text/css">
	.st0{opacity:0.6;}
	.st1{fill:none;stroke:#FAA21B;stroke-width:2;stroke-miterlimit:10;}
	.st2{fill:none;stroke:#9957A3;stroke-width:2;stroke-miterlimit:10;}
	.st3{fill:#DA1684;}
	.st4{fill:#FAA21B;}
	.st5{fill:none;stroke:#1AAF94;stroke-width:2;stroke-miterlimit:10;}
	.st6{fill:#00AEEF;}
</style>
<g class="st0">
	<circle class="st1" cx="561.1" cy="557.4" r="394.7"/>
	<circle class="st1" cx="630.1" cy="488.4" r="325.6"/>
	<circle class="st1" cx="481.6" cy="317.8" r="55.8"/>
	<path class="st1" d="M481.6,557.6c44.5-44.5,44.5-116.5,0-161l-39.4-39.4"/>
	<path class="st1" d="M761.1,597.2c-44.5-44.5-116.5-44.5-161,0l-39.4,39.4"/>
	<path class="st1" d="M865.2,701.3c-102-102-267.3-102-369.2,0l-90.4,90.4"/>
	<circle class="st2" cx="601.6" cy="437.7" r="55.8"/>
	<circle class="st3" cx="250" cy="789.3" r="55.8"/>
	<circle class="st4" cx="297.6" cy="900.9" r="15.1"/>
	<circle class="st4" cx="442.2" cy="597" r="55.8"/>
	<circle class="st5" cx="760.6" cy="596.7" r="112.7"/>
	<line class="st1" x1="760.9" y1="437.7" x2="242.6" y2="956"/>
	<line class="st1" x1="521.1" y1="357.2" x2="601.6" y2="437.7"/>
	<circle class="st6" cx="840.6" cy="517.3" r="34.8"/>
	<line class="st1" x1="815.9" y1="492.7" x2="681.2" y2="358"/>
	<line class="st1" x1="865.2" y1="701.3" x2="601.6" y2="437.7"/>
	<circle class="st4" cx="681.2" cy="358" r="18.6"/>
	<circle class="st1" cx="878.4" cy="714.5" r="18.6"/>
	<circle class="st4" cx="441.4" cy="755.5" r="18.6"/>
	<polyline class="st1" points="336.3,412.2 481.6,557.6 246.6,792.6 162.9,876.3 	"/>
	<circle class="st4" cx="323.1" cy="399.1" r="18.6"/>
</g>
</svg>
