<svg xmlns="http://www.w3.org/2000/svg" viewBox="0 0 209.47 162"><defs><style>.cls-1{fill:#faa21b;}</style></defs><g id="Layer_2" data-name="Layer 2"><g id="Layer_5" data-name="Layer 5"><path class="cls-1" d="M52.89,139.27V129.14H174.76a17.71,17.71,0,0,0,17.69-17.68V37.17a17.71,17.71,0,0,0-17.69-17.68v2a15.7,15.7,0,0,1,15.69,15.68v74.29a15.71,15.71,0,0,1-15.69,15.68H52.89V102.2h-2v24.94H34.71A15.7,15.7,0,0,1,19,111.46V37.17A15.69,15.69,0,0,1,34.71,21.49v-2A17.7,17.7,0,0,0,17,37.17v74.29a17.7,17.7,0,0,0,17.68,17.68H50.89v10.13H0v7.39A15.36,15.36,0,0,0,15.34,162H194.13a15.36,15.36,0,0,0,15.34-15.34v-7.39Zm154.58,7.39A13.36,13.36,0,0,1,194.13,160H15.34A13.36,13.36,0,0,1,2,146.66v-5.39H207.47Z"/><rect class="cls-1" x="80.01" y="149.64" width="42.66" height="2"/><path class="cls-1" d="M128.72,152.37a1.73,1.73,0,0,0,1.23-.51h0a1.74,1.74,0,1,0-2.46-2.45,1.75,1.75,0,0,0-.5,1.23,1.72,1.72,0,0,0,.5,1.22A1.74,1.74,0,0,0,128.72,152.37Zm0-2a.27.27,0,0,1,.27.27.25.25,0,0,1-.08.18l-.37-.37A.27.27,0,0,1,128.72,150.37Zm-.18.08.37.37a.27.27,0,0,1-.37,0A.25.25,0,0,1,128.54,150.45Z"/><path class="cls-1" d="M42.51,18.13H157.56v-2h-115A15.7,15.7,0,0,1,58.19,2h93.09A15.71,15.71,0,0,1,167,17.68V102.2h2V17.68A17.7,17.7,0,0,0,151.28,0H58.19A17.7,17.7,0,0,0,40.51,17.68V102.2h2Z"/><path class="cls-1" d="M54.9,4.85a4,4,0,1,0,4,4A4,4,0,0,0,54.9,4.85Zm0,6a2,2,0,1,1,2-2A2,2,0,0,1,54.9,10.88Z"/><path class="cls-1" d="M61.81,8.86a4,4,0,1,0,4-4A4,4,0,0,0,61.81,8.86Zm6,0a2,2,0,1,1-2-2A2,2,0,0,1,67.84,8.86Z"/><path class="cls-1" d="M73,8.86a4,4,0,1,0,4-4A4,4,0,0,0,73,8.86Zm6,0a2,2,0,1,1-2-2A2,2,0,0,1,79.05,8.86Z"/><path class="cls-1" d="M98.12,84.3h13.23a4.91,4.91,0,0,0,4.9-4.9V66.16a4.9,4.9,0,0,0-4.9-4.89H98.12a4.9,4.9,0,0,0-4.9,4.89V79.4A4.91,4.91,0,0,0,98.12,84.3Zm-2.9-18.14a2.9,2.9,0,0,1,2.9-2.89h13.23a2.9,2.9,0,0,1,2.9,2.89V79.4a2.9,2.9,0,0,1-2.9,2.9H98.12a2.9,2.9,0,0,1-2.9-2.9Z"/><path class="cls-1" d="M73,82.73l.19.59a32.9,32.9,0,0,0,7.19,12l.41.45.59-.16a13.5,13.5,0,0,1,16.49,9.08l.17.58.61.11a33.15,33.15,0,0,0,6,.57,33.62,33.62,0,0,0,6.52-.66l.59-.12.17-.57a13.42,13.42,0,0,1,16.13-9.07l.58.15.4-.44A33,33,0,0,0,136.29,83l.18-.56-.4-.43a13.45,13.45,0,0,1,0-18.35l.4-.43-.18-.56a33.34,33.34,0,0,0-7.18-12.35l-.4-.44-.58.15A13.42,13.42,0,0,1,112,40.9l-.17-.57-.59-.11a33.3,33.3,0,0,0-12.55-.09l-.6.11-.18.59a13.49,13.49,0,0,1-16.52,9.08l-.58-.16-.42.44A33.1,33.1,0,0,0,73.2,62.27l-.19.58.43.44a13.46,13.46,0,0,1,0,19Zm2.31-20.4A30.94,30.94,0,0,1,81.41,52,15.51,15.51,0,0,0,99.59,42a30.9,30.9,0,0,1,10.64.07,15.41,15.41,0,0,0,17.78,10,31.31,31.31,0,0,1,6.18,10.63,15.45,15.45,0,0,0,0,20.19A31.1,31.1,0,0,1,128,93.49a15.43,15.43,0,0,0-17.75,10,30.3,30.3,0,0,1-10.66.09,15.51,15.51,0,0,0-18.15-10,30.94,30.94,0,0,1-6.15-10.31A15.48,15.48,0,0,0,75.3,62.33Z"/></g></g></svg>