<svg xmlns="http://www.w3.org/2000/svg" viewBox="0 0 283.92 162"><defs><style>.cls-1{fill:#f750ae;}</style></defs><g id="Layer_2" data-name="Layer 2"><g id="Layer_5" data-name="Layer 5"><path class="cls-1" d="M86.3,86.59h-12a4.9,4.9,0,0,0-4.9,4.89v12.06a4.91,4.91,0,0,0,4.9,4.9h12a4.91,4.91,0,0,0,4.9-4.9V91.48A4.9,4.9,0,0,0,86.3,86.59Zm2.9,17a2.9,2.9,0,0,1-2.9,2.9h-12a2.9,2.9,0,0,1-2.9-2.9V91.48a2.9,2.9,0,0,1,2.9-2.89h12a2.9,2.9,0,0,1,2.9,2.89Z"/><path class="cls-1" d="M109.87,88.9l.4-.43-.18-.56a31.46,31.46,0,0,0-6.78-11.67l-.41-.44-.58.14a12.6,12.6,0,0,1-15.18-8.53L87,66.84l-.59-.12a31.58,31.58,0,0,0-11.87-.08l-.6.11-.18.59a12.68,12.68,0,0,1-15.52,8.53l-.58-.16-.42.44a31.29,31.29,0,0,0-6.75,11.42l-.19.58.43.44a12.64,12.64,0,0,1,0,17.86l-.43.44.19.59a31.21,31.21,0,0,0,6.8,11.38l.41.45.59-.16a12.68,12.68,0,0,1,15.49,8.53l.18.58.6.11a30.5,30.5,0,0,0,11.88-.09l.58-.12.18-.57a12.62,12.62,0,0,1,15.15-8.52l.58.15.4-.44a31.07,31.07,0,0,0,6.83-11.65l.18-.56-.4-.43A12.63,12.63,0,0,1,109.87,88.9ZM102.2,117a14.59,14.59,0,0,0-16.77,9.43,28.55,28.55,0,0,1-10,.08,14.73,14.73,0,0,0-17.16-9.45,29.08,29.08,0,0,1-5.76-9.65,14.67,14.67,0,0,0,0-19.78A29,29,0,0,1,58.28,78,14.69,14.69,0,0,0,75.46,68.5a29.72,29.72,0,0,1,10,.07A14.59,14.59,0,0,0,102.22,78,29.61,29.61,0,0,1,108,88a14.64,14.64,0,0,0,0,19.08A29.34,29.34,0,0,1,102.2,117Z"/><path class="cls-1" d="M270.92,36.15h-81a13,13,0,0,0-13,13v81a13,13,0,0,0,13,13h81a13,13,0,0,0,13-13v-81A13,13,0,0,0,270.92,36.15Zm11,94a11,11,0,0,1-11,11h-81a11,11,0,0,1-11-11v-81a11,11,0,0,1,11-11h81a11,11,0,0,1,11,11Z"/><path class="cls-1" d="M108.61,28.33a28.34,28.34,0,0,0-56.67,0v1h56.67ZM54,27.33a26.33,26.33,0,0,1,52.63,0Z"/><path class="cls-1" d="M68.34,150.07a11.94,11.94,0,0,0,23.87,0v-1H68.34Zm21.82,1a9.94,9.94,0,0,1-19.77,0Z"/><path class="cls-1" d="M69.41,12.89A3.55,3.55,0,1,0,73,16.44,3.55,3.55,0,0,0,69.41,12.89Zm0,5.09A1.55,1.55,0,1,1,71,16.44,1.55,1.55,0,0,1,69.41,18Z"/><path class="cls-1" d="M91.14,12.89a3.55,3.55,0,1,0,3.55,3.55A3.55,3.55,0,0,0,91.14,12.89Zm0,5.09a1.55,1.55,0,1,1,1.55-1.54A1.54,1.54,0,0,1,91.14,18Z"/><path class="cls-1" d="M40.45,42.63A3.55,3.55,0,1,0,44,46.18,3.55,3.55,0,0,0,40.45,42.63Zm0,5.09A1.55,1.55,0,1,1,42,46.18,1.54,1.54,0,0,1,40.45,47.72Z"/><path class="cls-1" d="M52.94,42.63a3.55,3.55,0,1,0,3.55,3.55A3.56,3.56,0,0,0,52.94,42.63Zm0,5.09a1.55,1.55,0,1,1,1.55-1.54A1.55,1.55,0,0,1,52.94,47.72Z"/><path class="cls-1" d="M64.88,42.63a3.55,3.55,0,1,0,3.55,3.55A3.55,3.55,0,0,0,64.88,42.63Zm0,5.09a1.55,1.55,0,1,1,1.55-1.54A1.54,1.54,0,0,1,64.88,47.72Z"/><path class="cls-1" d="M152.66,73.09a19.93,19.93,0,0,0-18.89-18.94v-5a13,13,0,0,0-13-13h-81a13,13,0,0,0-13,13v5A19.93,19.93,0,0,0,7.89,73.09a8.84,8.84,0,0,0-5.3,15L4,86.71A6.84,6.84,0,1,1,13.68,77a6.82,6.82,0,0,1,0,9.67l1.42,1.42a8.84,8.84,0,0,0-5.21-15A17.93,17.93,0,0,1,26.78,56.15v74a13,13,0,0,0,13,13h81a13,13,0,0,0,13-13v-74A17.93,17.93,0,0,1,150.66,73.1a8.84,8.84,0,0,0-5.21,15l1.42-1.42a6.84,6.84,0,1,1,9.68,0L158,88.13a8.84,8.84,0,0,0-5.3-15Zm-20.89,57.06a11,11,0,0,1-11,11h-81a11,11,0,0,1-11-11V55.65h78.83v-2H28.78v-4.5a11,11,0,0,1,11-11h81a11,11,0,0,1,11,11Z"/><path class="cls-1" d="M261.25,62.27a24.63,24.63,0,0,0-30.81-1.07,24.34,24.34,0,0,0-38,26.52c1.79,5.81,5.65,9.66,9.72,13.73l25.78,25.79a3.34,3.34,0,0,0,2.47,1h.16a3.38,3.38,0,0,0,2.41-1l23.85-23.85c.63-.63,1.27-1.26,1.93-1.89,3-2.92,6.13-5.94,8.07-9.74A24.63,24.63,0,0,0,261.25,62.27ZM265,90.85c-1.79,3.51-4.79,6.41-7.69,9.21L255.39,102l-23.84,23.85a1.49,1.49,0,0,1-1.16.46,1.38,1.38,0,0,1-1-.46L203.56,100c-3.9-3.89-7.58-7.57-9.22-12.91a22.34,22.34,0,0,1,35.48-23.89l.62.49.62-.49a22.35,22.35,0,0,1,34,27.61Z"/></g></g></svg>