<svg xmlns="http://www.w3.org/2000/svg" viewBox="0 0 226.02 162"><defs><style>.cls-1{fill:#1aaf94;}</style></defs><g id="Layer_2" data-name="Layer 2"><g id="Layer_5" data-name="Layer 5"><path class="cls-1" d="M19.18,150.64a4,4,0,1,0,4-4A4,4,0,0,0,19.18,150.64Zm4-2a2,2,0,1,1-2,2A2,2,0,0,1,23.2,148.62Z"/><path class="cls-1" d="M212.11,146.62a4,4,0,1,0,4,4A4,4,0,0,0,212.11,146.62Zm0,6a2,2,0,1,1,2-2A2,2,0,0,1,212.11,152.65Z"/><path class="cls-1" d="M14.92,154.61h-2A7.4,7.4,0,0,0,20.31,162h191.8v-2H20.31A5.39,5.39,0,0,1,14.92,154.61Z"/><path class="cls-1" d="M215,139.27H23.2v2H215a5.4,5.4,0,0,1,5.39,5.39h2A7.4,7.4,0,0,0,215,139.27Z"/><polygon class="cls-1" points="99.11 147.17 94.91 151.37 99.11 155.57 100.52 154.16 98.74 152.37 136.57 152.37 134.78 154.16 136.19 155.57 140.4 151.37 136.19 147.17 134.78 148.59 136.57 150.37 98.74 150.37 100.52 148.59 99.11 147.17"/><path class="cls-1" d="M68,68.8H60a4.9,4.9,0,0,0-4.89,4.9v8A4.9,4.9,0,0,0,60,86.58h8a4.91,4.91,0,0,0,4.9-4.9v-8A4.91,4.91,0,0,0,68,68.8Zm2.9,12.88a2.9,2.9,0,0,1-2.9,2.9H60a2.9,2.9,0,0,1-2.89-2.9v-8A2.9,2.9,0,0,1,60,70.8h8a2.9,2.9,0,0,1,2.9,2.9Z"/><path class="cls-1" d="M82,60.21l-.58.14a9.8,9.8,0,0,1-11.81-6.64l-.18-.57L68.89,53A25.13,25.13,0,0,0,59.38,53l-.6.11-.18.58A9.87,9.87,0,0,1,46.52,60.3l-.59-.17-.41.45a24.9,24.9,0,0,0-5.41,9.14l-.2.59.44.44a9.85,9.85,0,0,1,0,13.85l-.53.39.23.68a25.08,25.08,0,0,0,5.45,9.13l.41.44.59-.16a9.88,9.88,0,0,1,12.06,6.64l.17.59.6.11a25.87,25.87,0,0,0,4.58.43,25,25,0,0,0,4.94-.51l.59-.11.17-.57A9.82,9.82,0,0,1,81.45,95l.57.15.41-.44A25.15,25.15,0,0,0,87.9,85.4l.18-.56-.4-.43a9.84,9.84,0,0,1,0-13.42l.41-.43L87.89,70a25.44,25.44,0,0,0-5.44-9.36Zm3.77,25.11A22.92,22.92,0,0,1,81.34,93a11.8,11.8,0,0,0-13.4,7.54,22.67,22.67,0,0,1-7.62.06A11.89,11.89,0,0,0,46.61,93a22.84,22.84,0,0,1-4.42-7.4,11.84,11.84,0,0,0,0-15.8,22.78,22.78,0,0,1,4.39-7.42,11.89,11.89,0,0,0,13.73-7.56,23.13,23.13,0,0,1,7.61.06,11.81,11.81,0,0,0,13.43,7.55,23.21,23.21,0,0,1,4.44,7.64A11.85,11.85,0,0,0,85.81,85.32Z"/><path class="cls-1" d="M213,28.73H153.59a13,13,0,0,0-13,13v59.43a13,13,0,0,0,13,13H213a13,13,0,0,0,13-13V41.73A13,13,0,0,0,213,28.73Zm11,72.43a11,11,0,0,1-11,11H153.59a11,11,0,0,1-11-11V41.73a11,11,0,0,1,11-11H213a11,11,0,0,1,11,11Z"/><path class="cls-1" d="M86.72,22.72a22.73,22.73,0,0,0-45.45,0v1H86.72Zm-43.42-1a20.72,20.72,0,0,1,41.39,0Z"/><path class="cls-1" d="M64,129.14a9.7,9.7,0,0,0,9.69-9.69v-1H54.31v1A9.7,9.7,0,0,0,64,129.14Zm7.63-8.69a7.69,7.69,0,0,1-15.25,0Z"/><path class="cls-1" d="M55.36,10.24a3,3,0,1,0,3,3A3,3,0,0,0,55.36,10.24Zm0,4a1,1,0,1,1,1-1A1,1,0,0,1,55.36,14.29Z"/><path class="cls-1" d="M72.63,10.24a3,3,0,1,0,3,3A3,3,0,0,0,72.63,10.24Zm0,4a1,1,0,1,1,1-1A1,1,0,0,1,72.63,14.29Z"/><path class="cls-1" d="M32.34,39.92a3,3,0,1,0-3-3A3,3,0,0,0,32.34,39.92Zm0-4a1,1,0,1,1-1,1A1,1,0,0,1,32.34,35.88Z"/><path class="cls-1" d="M42.27,39.92a3,3,0,1,0-3-3A3,3,0,0,0,42.27,39.92Zm0-4a1,1,0,1,1-1,1A1,1,0,0,1,42.27,35.88Z"/><path class="cls-1" d="M51.76,39.92a3,3,0,1,0-3-3A3,3,0,0,0,51.76,39.92Zm0-4a1,1,0,1,1-1,1A1,1,0,0,1,51.76,35.88Z"/><path class="cls-1" d="M12.35,60.15a7.22,7.22,0,0,0-4.07-2A14,14,0,0,1,21.28,45v56.12a13,13,0,0,0,13,13H93.71a13,13,0,0,0,13-13V45a14,14,0,0,1,13,13.08,7.22,7.22,0,0,0-4.07,12.26L117.06,69a5.24,5.24,0,0,1,0-7.4,5.21,5.21,0,0,1,7.4,0,5.24,5.24,0,0,1,0,7.4l1.41,1.41a7.23,7.23,0,0,0-4.16-12.28,16,16,0,0,0-15-15.06V41.73a13,13,0,0,0-13-13H34.28a13,13,0,0,0-13,13V43a16,16,0,0,0-15,15.06A7.23,7.23,0,0,0,2.12,70.38L3.53,69a5.23,5.23,0,1,1,7.4-7.4,5.21,5.21,0,0,1,0,7.4l1.42,1.41a7.23,7.23,0,0,0,0-10.23ZM34.28,30.73H93.71a11,11,0,0,1,11,11v59.43a11,11,0,0,1-11,11H34.28a11,11,0,0,1-11-11V44.63H85.72v-2H23.28v-.9A11,11,0,0,1,34.28,30.73Z"/><path class="cls-1" d="M207.94,49.53a19.78,19.78,0,0,0-24.62-1A19.55,19.55,0,0,0,152.91,70c1.44,4.66,4.52,7.74,7.77,11l20.49,20.5a2.77,2.77,0,0,0,2.1.88h.14a2.91,2.91,0,0,0,2.06-.89l18.95-18.95L206,81c2.4-2.33,4.89-4.74,6.46-7.8A19.8,19.8,0,0,0,207.94,49.53Zm2.68,22.77c-1.41,2.76-3.77,5-6.07,7.27L203,81.09l-18.95,19a1,1,0,0,1-.78.31.88.88,0,0,1-.68-.31L162.1,79.55c-3.08-3.08-6-6-7.27-10.17A17.55,17.55,0,0,1,182.7,50.62l.62.49.62-.49a17.77,17.77,0,0,1,22.68.42h0A17.74,17.74,0,0,1,210.62,72.3Z"/></g></g></svg>