<?xml version="1.0" standalone="no"?>
<!DOCTYPE svg PUBLIC "-//W3C//DTD SVG 20010904//EN"
 "http://www.w3.org/TR/2001/REC-SVG-20010904/DTD/svg10.dtd">
<svg version="1.0" xmlns="http://www.w3.org/2000/svg"
 width="16.000000pt" height="16.000000pt" viewBox="0 0 16.000000 16.000000"
 preserveAspectRatio="xMidYMid meet">
<metadata>
Created by potrace 1.11, written by Peter Selinger 2001-2013
</metadata>
<g transform="translate(0.000000,16.000000) scale(0.006154,-0.006154)"
fill="#000000" stroke="none">
<path d="M1158 2595 c-2 -2 -22 -5 -45 -8 -406 -56 -779 -326 -969 -702 l-55
-110 42 -18 c23 -11 69 -29 104 -42 l62 -24 43 85 c145 289 427 512 723 574
29 5 63 13 77 16 14 3 75 7 137 8 227 7 445 -55 620 -175 24 -17 48 -29 53
-27 10 3 130 159 130 169 0 6 -62 50 -115 81 -97 56 -268 126 -352 143 -128
26 -196 33 -315 33 -75 0 -138 -1 -140 -3z"/>
<path d="M1230 2352 c-84 -7 -212 -36 -299 -69 -250 -93 -442 -268 -572 -520
l-40 -78 38 -17 c21 -9 68 -28 105 -42 l68 -25 31 65 c122 252 381 433 659
459 36 4 71 8 78 10 8 3 12 34 12 109 0 116 1 115 -80 108z"/>
<path d="M1646 2180 c-22 -55 -37 -102 -35 -103 2 -2 40 -23 83 -46 207 -110
360 -304 416 -528 l11 -43 109 0 c60 0 111 3 113 8 3 4 -3 40 -14 80 -60 237
-202 452 -389 592 -69 50 -226 140 -247 140 -4 0 -26 -45 -47 -100z"/>
<path d="M1217 2104 c-2 -2 -22 -6 -45 -9 -74 -9 -195 -54 -277 -101 -90 -53
-211 -169 -266 -254 -156 -244 -172 -542 -43 -802 44 -89 73 -129 161 -215
103 -102 250 -183 374 -208 13 -3 38 -8 54 -12 41 -8 188 -9 250 -1 105 14
239 66 335 131 138 94 264 263 314 421 28 86 31 83 -95 82 l-110 -1 -27 -60
c-188 -420 -727 -484 -1007 -120 -32 41 -80 140 -95 195 -19 66 -20 208 -3
281 60 259 294 448 558 451 243 3 453 -136 552 -367 l21 -50 112 -2 112 -1 -5
33 c-3 18 -19 67 -36 110 -98 244 -327 435 -586 486 -49 10 -241 20 -248 13z"/>
<path d="M2320 1935 c-47 -30 -89 -56 -94 -58 -4 -1 8 -32 27 -67 44 -81 92
-207 108 -289 l12 -61 112 0 113 0 -15 78 c-21 117 -50 207 -103 317 -71 150
-60 144 -160 80z"/>
<path d="M1171 1844 c-197 -45 -370 -226 -417 -435 -20 -90 8 -313 41 -325 9
-4 173 61 206 82 3 2 0 27 -7 56 -33 125 19 268 123 339 50 35 115 59 160 61
l33 1 0 119 0 119 -42 -3 c-24 -1 -67 -8 -97 -14z"/>
<path d="M1464 1712 l-41 -107 41 -24 c22 -14 61 -46 86 -72 l45 -47 123 0
c140 1 134 -6 81 100 -37 73 -126 169 -197 212 -98 58 -92 61 -138 -62z"/>
<path d="M273 1302 c-22 -3 -23 -7 -19 -65 10 -154 40 -264 106 -399 105 -211
268 -377 472 -478 75 -37 83 -39 89 -23 4 10 23 57 42 104 l34 86 -39 18 c-56
24 -175 106 -227 156 -148 141 -249 361 -255 556 -1 18 -5 35 -9 39 -7 7 -154
12 -194 6z"/>
<path d="M8 1295 c-9 -9 1 -133 18 -225 15 -88 69 -268 85 -284 8 -9 164 53
196 76 9 7 7 20 -8 54 -20 49 -45 136 -55 199 -3 22 -8 47 -9 55 -2 8 -4 41
-4 73 l-1 57 -108 0 c-60 0 -111 -2 -114 -5z"/>
<path d="M1561 1104 c-25 -36 -74 -77 -114 -95 -26 -12 -26 -12 -10 -53 8 -22
21 -54 28 -71 7 -16 19 -47 26 -67 7 -21 17 -38 23 -38 26 0 149 86 197 137
50 54 108 148 123 199 7 21 5 22 -122 21 l-129 0 -22 -33z"/>
<path d="M2101 1065 c-92 -319 -389 -563 -718 -592 -40 -3 -74 -9 -74 -12 -6
-30 -2 -204 4 -208 10 -6 75 -5 117 1 89 13 123 20 194 43 268 84 504 287 626
540 41 85 85 214 92 269 l3 29 -111 3 -111 3 -22 -76z"/>
<path d="M2365 1103 c-14 -81 -49 -182 -95 -278 -152 -312 -449 -532 -795
-590 -22 -4 -92 -8 -155 -10 -256 -5 -503 82 -701 247 -38 32 -72 58 -77 58
-4 0 -41 -34 -82 -76 l-75 -76 55 -50 c145 -131 399 -265 559 -293 19 -3 37
-8 41 -10 41 -25 400 -26 520 -1 274 57 513 191 699 393 162 175 284 413 321
625 6 35 13 71 16 81 5 15 -5 17 -109 17 l-115 0 -7 -37z"/>
<path d="M991 986 l-81 -82 27 -26 c74 -68 199 -123 308 -134 l66 -7 -3 119
-3 119 -45 6 c-59 9 -92 23 -144 58 l-43 30 -82 -83z"/>
</g>
</svg>
