<svg id="Layer_1" data-name="Layer 1" xmlns="http://www.w3.org/2000/svg" xmlns:xlink="http://www.w3.org/1999/xlink" viewBox="0 0 1222.9 100.46">
  <defs>
    <style>
      .cls-1 {
        fill: none;
      }

      .cls-2 {
        clip-path: url(#clip-path);
      }

      .cls-3 {
        fill: #fff;
      }

      .cls-4 {
        fill: #ee9722;
      }
    </style>
    <clipPath id="clip-path">
      <rect class="cls-1" x="-0.52" y="-1.59" width="1223.43" height="101.12"/>
    </clipPath>
  </defs>
  <title>Automate</title>
  <g>
    <g class="cls-2">
      <path class="cls-3" d="M-.52,49.53h0A49.63,49.63,0,0,1,48.26-.92h1.85a50.08,50.08,0,0,1,38.27,15L74.76,29.74a35.81,35.81,0,0,0-24.82-11,28.73,28.73,0,0,0-28.46,29h0v1.53A28.84,28.84,0,0,0,48.6,79.71h1.07A35,35,0,0,0,75.2,68.41L88.77,82.12A49.64,49.64,0,0,1,49.12,99.41,49,49,0,0,1-.52,51.15V49.53"/>
    </g>
    <polygon class="cls-3" points="106.13 0.74 127.47 0.74 127.47 39.33 166.84 39.33 166.84 0.74 188.19 0.74 188.19 97.79 166.84 97.79 166.84 58.85 127.47 58.85 127.47 97.79 106.13 97.79 106.13 0.74 106.13 0.74"/>
    <polygon class="cls-3" points="211.45 0.74 284.68 0.74 284.68 19.76 232.68 19.76 232.68 39.44 278.45 39.44 278.45 58.41 232.68 58.41 232.68 78.82 285.35 78.82 285.35 97.79 211.45 97.79 211.45 0.74 211.45 0.74"/>
    <polygon class="cls-3" points="304.37 0.74 378.26 0.74 378.26 20.14 325.71 20.14 325.71 40.82 372.03 40.82 372.03 60.23 325.71 60.23 325.71 97.79 304.37 97.79 304.37 0.74 304.37 0.74"/>
    <path class="cls-4" d="M432.09,62h36.3L450.31,16.47,432.09,62ZM417.57,97.71H402.48l42-97h12.35l41.6,97h-15.3l-9.86-23.84h-46l-9.75,23.84Z"/>
    <path class="cls-4" d="M550.42,97.77a39.23,39.23,0,0,1-16.31-3.14,32.87,32.87,0,0,1-11.49-8.35,34.29,34.29,0,0,1-6.76-12,44.93,44.93,0,0,1-2.2-14V.72h13.23V59.54a38.48,38.48,0,0,0,1.21,9.56A24.23,24.23,0,0,0,532,77.59a19.87,19.87,0,0,0,7.22,6,28.31,28.31,0,0,0,22.26,0,19.63,19.63,0,0,0,7.28-6,24.16,24.16,0,0,0,4-8.49,38.47,38.47,0,0,0,1.2-9.56V.72h13.23V60.34a44.36,44.36,0,0,1-2.2,14,34,34,0,0,1-6.75,12,32.82,32.82,0,0,1-11.5,8.35,39.14,39.14,0,0,1-16.31,3.08Z"/>
    <g class="cls-2">
      <polygon class="cls-4" points="647.01 97.77 633.48 97.77 633.48 12.65 602.32 12.65 602.32 0.72 678.12 0.72 678.12 12.65 647.01 12.65 647.01 97.77 647.01 97.77"/>
      <path class="cls-4" d="M773,48.84A42.52,42.52,0,0,0,770.48,34a37.92,37.92,0,0,0-7.34-12.3,34.43,34.43,0,0,0-11.48-8.36,38.74,38.74,0,0,0-30.18,0,33.92,33.92,0,0,0-11.42,8.36A39,39,0,0,0,702.79,34a42.73,42.73,0,0,0-2.57,14.89,43.51,43.51,0,0,0,2.57,15.08,36.5,36.5,0,0,0,7.35,12.3,34.08,34.08,0,0,0,11.34,8.19,36.18,36.18,0,0,0,15,3,36.88,36.88,0,0,0,15.09-3,33.66,33.66,0,0,0,11.55-8.23,36.45,36.45,0,0,0,7.36-12.26A43.26,43.26,0,0,0,773,48.84Zm14.55,0a52.31,52.31,0,0,1-3.88,20.45,48.28,48.28,0,0,1-10.67,16,47.63,47.63,0,0,1-16.17,10.47,54.42,54.42,0,0,1-20.38,3.77,54,54,0,0,1-20.32-3.73,47.17,47.17,0,0,1-26.68-26.51,53.79,53.79,0,0,1-3.8-20.45,54.43,54.43,0,0,1,3.8-20.6,46.64,46.64,0,0,1,10.6-15.9A48.52,48.52,0,0,1,716.15,2.08a58.32,58.32,0,0,1,40.71,0A48.23,48.23,0,0,1,773,12.34a47.17,47.17,0,0,1,10.67,15.9,52.71,52.71,0,0,1,3.88,20.6Z"/>
    </g>
    <polygon class="cls-4" points="859.99 75.29 860.26 75.29 888.91 0.72 910.02 0.72 910.02 97.77 896.48 97.77 896.48 16.62 896.22 16.62 863.97 97.77 855.33 97.77 823.25 16.62 822.97 16.62 822.97 97.77 809.82 97.77 809.82 0.77 830.93 0.77 859.99 75.29 859.99 75.29"/>
    <path class="cls-4" d="M954.77,62H991.1L973,16.49,954.77,62ZM940.24,97.77H925.16l42.08-97h12.34l41.68,97.05h-15.35L996,74H950l-9.73,23.8Z"/>
    <polygon class="cls-4" points="1065.95 97.77 1052.38 97.77 1052.38 12.65 1021.26 12.65 1021.26 0.72 1097.07 0.72 1097.07 12.65 1065.95 12.65 1065.95 97.77 1065.95 97.77"/>
    <polygon class="cls-4" points="1125.77 85.71 1176.49 85.71 1176.49 97.77 1112.2 97.77 1112.2 0.77 1176.49 0.77 1176.49 12.65 1125.77 12.65 1125.77 41.71 1171.56 41.71 1171.56 53.41 1125.77 53.41 1125.77 85.71 1125.77 85.71"/>
    <polygon class="cls-4" points="1195.6 19.31 1193.71 19.31 1193.71 2.41 1187.49 2.41 1187.49 0.72 1201.83 0.72 1201.83 2.41 1195.6 2.41 1195.6 19.31 1195.6 19.31"/>
    <polygon class="cls-4" points="1213.8 16.11 1213.8 16.11 1220.02 0.72 1222.91 0.72 1222.91 19.31 1221.02 19.31 1221.02 3.17 1221.02 3.17 1214.29 19.31 1213.29 19.31 1206.56 3.17 1206.56 3.17 1206.56 19.31 1204.67 19.31 1204.67 0.72 1207.49 0.72 1213.8 16.11 1213.8 16.11"/>
  </g>
</svg>
