<svg id="Layer_1" data-name="Layer 1" xmlns="http://www.w3.org/2000/svg" xmlns:xlink="http://www.w3.org/1999/xlink" viewBox="0 0 938.9 100.48">
  <defs>
    <style>
      .cls-1 {
        fill: none;
      }

      .cls-2 {
        clip-path: url(#clip-path);
      }

      .cls-3 {
        fill: #fff;
      }

      .cls-4 {
        fill: #ee9722;
      }
    </style>
    <clipPath id="clip-path">
      <rect class="cls-1" width="938.88" height="100.48"/>
    </clipPath>
  </defs>
  <title>Inspec</title>
  <g>
    <g class="cls-2">
      <path class="cls-3" d="M0,50.53H0A49.62,49.62,0,0,1,48.77.07h1.87a50.14,50.14,0,0,1,38.27,15L75.29,30.74a35.85,35.85,0,0,0-24.82-11A28.73,28.73,0,0,0,22,48.72v1.54A28.83,28.83,0,0,0,49.13,80.71H50.2A35,35,0,0,0,75.73,69.39L89.3,83.12a49.67,49.67,0,0,1-39.65,17.32A49,49,0,0,1,0,52.14V50.53"/>
    </g>
    <polygon class="cls-3" points="106.66 1.73 128 1.73 128 40.33 167.37 40.33 167.37 1.73 188.72 1.73 188.72 98.78 167.37 98.78 167.37 59.85 128 59.85 128 98.78 106.66 98.78 106.66 1.73 106.66 1.73"/>
    <polygon class="cls-3" points="211.98 1.73 285.21 1.73 285.21 20.75 233.21 20.75 233.21 40.44 278.98 40.44 278.98 59.41 233.21 59.41 233.21 79.81 285.88 79.81 285.88 98.78 211.98 98.78 211.98 1.73 211.98 1.73"/>
    <polygon class="cls-3" points="304.9 1.73 378.79 1.73 378.79 21.14 326.24 21.14 326.24 41.82 372.56 41.82 372.56 61.23 326.24 61.23 326.24 98.78 304.9 98.78 304.9 1.73 304.9 1.73"/>
    <polygon class="cls-4" points="431.76 98.73 418.25 98.73 418.25 1.73 431.76 1.73 431.76 98.73 431.76 98.73"/>
    <polygon class="cls-4" points="523.25 79.32 523.52 79.32 523.52 1.73 537.09 1.73 537.09 98.78 519.95 98.78 468.69 19.55 468.41 19.55 468.41 98.78 454.84 98.78 454.84 1.78 472.53 1.78 523.25 79.32 523.25 79.32"/>
    <path class="cls-4" d="M610.17,20.27a21,21,0,0,0-7.64-6.36,23.37,23.37,0,0,0-10.85-2.48,25.45,25.45,0,0,0-6.5.87,18,18,0,0,0-6,2.82,15.67,15.67,0,0,0-4.35,4.82,13.42,13.42,0,0,0-1.68,6.9,12.59,12.59,0,0,0,1.54,6.5,13.83,13.83,0,0,0,4.16,4.42A26.34,26.34,0,0,0,585,40.85q3.56,1.27,7.58,2.61,4.81,1.47,9.78,3.35a35.27,35.27,0,0,1,9,5,22.76,22.76,0,0,1,9.11,19.43A28.14,28.14,0,0,1,617.74,84a26.15,26.15,0,0,1-7.3,9,31,31,0,0,1-10.52,5.29A43.53,43.53,0,0,1,587.66,100a44.62,44.62,0,0,1-17.36-3.48A34.3,34.3,0,0,1,556.43,86.2l10.32-8.71a25.27,25.27,0,0,0,9,8A25,25,0,0,0,588,88.57a24.53,24.53,0,0,0,6.7-.94,18.78,18.78,0,0,0,6.09-2.94,16.29,16.29,0,0,0,4.49-5,14.48,14.48,0,0,0,1.74-7.3,13.35,13.35,0,0,0-1.8-7.17,16.13,16.13,0,0,0-4.9-4.9,32.3,32.3,0,0,0-7.17-3.41Q589,55.5,584.46,54a73.34,73.34,0,0,1-9-3.29,30.62,30.62,0,0,1-7.9-5,22.66,22.66,0,0,1-5.63-7.43,25.09,25.09,0,0,1-2.15-11,24.35,24.35,0,0,1,2.88-12.2,26.3,26.3,0,0,1,7.51-8.44,31.36,31.36,0,0,1,10.45-4.89A45.94,45.94,0,0,1,592.35.31a40.77,40.77,0,0,1,15.54,2.95,31,31,0,0,1,11.66,7.9l-9.38,9.11Z"/>
    <path class="cls-4" d="M656.69,44.52H671a42.6,42.6,0,0,0,9.07-.89,22.56,22.56,0,0,0,7.16-2.72,12.81,12.81,0,0,0,4.63-4.84,15.19,15.19,0,0,0,1.64-7.37,14.45,14.45,0,0,0-1.7-7.29,13.88,13.88,0,0,0-4.64-4.78,20.21,20.21,0,0,0-7-2.59,50.74,50.74,0,0,0-8.87-.75H656.69V44.52ZM643.19,1.84h29.46a59.4,59.4,0,0,1,14.18,1.57,30.86,30.86,0,0,1,10.91,4.84,22.07,22.07,0,0,1,7,8.32,27.56,27.56,0,0,1,2.46,12.13,27,27,0,0,1-2.66,12.41,22.93,22.93,0,0,1-7.36,8.46,33.1,33.1,0,0,1-11.19,4.84A59.42,59.42,0,0,1,672,56H656.69V98.4h-13.5V1.84Z"/>
    <g class="cls-2">
      <polygon class="cls-4" points="743.36 86.37 793.86 86.37 793.86 98.37 729.86 98.37 729.86 1.76 793.86 1.76 793.86 13.63 743.36 13.63 743.36 42.57 788.94 42.57 788.94 54.17 743.36 54.17 743.36 86.37 743.36 86.37"/>
      <path class="cls-4" d="M895.49,83.16a42.67,42.67,0,0,1-14.71,12.48q-9,4.8-21.73,4.8a53.6,53.6,0,0,1-20.19-3.72,46.64,46.64,0,0,1-15.92-10.39A47.59,47.59,0,0,1,812.47,70.4a53.12,53.12,0,0,1-3.78-20.32,52.68,52.68,0,0,1,3.85-20.45A46.36,46.36,0,0,1,823.2,13.84a48.66,48.66,0,0,1,16.14-10.2A55.35,55.35,0,0,1,859.59,0a53.42,53.42,0,0,1,9.85,1A49.21,49.21,0,0,1,879,3.78a40.19,40.19,0,0,1,8.38,4.66,30.53,30.53,0,0,1,6.48,6.41L883.34,23a26.28,26.28,0,0,0-9.92-8,30.85,30.85,0,0,0-13.83-3.18,36.07,36.07,0,0,0-15.06,3,34,34,0,0,0-11.4,8.31,37.56,37.56,0,0,0-7.29,12.21,42.35,42.35,0,0,0-2.57,14.78,44.47,44.47,0,0,0,2.5,15.12,36.09,36.09,0,0,0,7.15,12.22,33,33,0,0,0,11.34,8.17,36.26,36.26,0,0,0,14.92,3,33,33,0,0,0,14.72-3.24,28.42,28.42,0,0,0,10.93-9.45l10.66,7.22Z"/>
      <polygon class="cls-4" points="911.61 18.9 909.72 18.9 909.72 2 903.49 2 903.49 0.31 917.83 0.31 917.83 2 911.61 2 911.61 18.9 911.61 18.9"/>
      <polygon class="cls-4" points="929.8 15.69 929.8 15.69 936.01 0.31 938.9 0.31 938.9 18.9 937.01 18.9 937.01 2.75 937.01 2.75 930.28 18.9 929.28 18.9 922.56 2.75 922.5 2.75 922.5 18.9 920.61 18.9 920.61 0.31 923.5 0.31 929.8 15.69 929.8 15.69"/>
    </g>
  </g>
</svg>
