<svg xmlns="http://www.w3.org/2000/svg" viewBox="0 0 838.3 98.71"><defs><style>.cls-1{fill:#fff;}.cls-2{fill:#ee9721;}</style></defs><title>Chef Infra Inverse</title><g id="Layer_2" data-name="Layer 2"><g id="Layer_1-2" data-name="Layer 1"><path class="cls-1" d="M0,49.64H0C-.46,22.71,21.39.51,48.79.06h1.84A50.54,50.54,0,0,1,88.9,14.8L75.28,30.19A36.1,36.1,0,0,0,50.46,19.35C34.6,19.51,21.86,32.27,22,47.86c0,.41,0,.83,0,1.24v.27A28.51,28.51,0,0,0,49.19,79.29l1,0A35.31,35.31,0,0,0,75.72,68.17L89.29,81.66a50.07,50.07,0,0,1-39.65,17C22.6,99,.37,77.79,0,51.22c0-.53,0-1,0-1.58"/><polygon class="cls-1" points="106.65 1.69 127.99 1.69 127.99 39.61 167.36 39.61 167.36 1.69 188.71 1.69 188.71 97.05 167.36 97.05 167.36 58.79 127.99 58.79 127.99 97.05 106.65 97.05 106.65 1.69"/><polygon class="cls-1" points="211.97 1.69 285.2 1.69 285.2 20.38 233.2 20.38 233.2 39.72 278.97 39.72 278.97 58.36 233.2 58.36 233.2 78.41 285.87 78.41 285.87 97.05 211.97 97.05 211.97 1.69"/><polygon class="cls-1" points="304.89 1.69 378.78 1.69 378.78 20.76 326.23 20.76 326.23 41.08 372.55 41.08 372.55 60.15 326.23 60.15 326.23 97.05 304.89 97.05 304.89 1.69"/><path class="cls-2" d="M431.58,97H418.12V1.69h13.46Z"/><path class="cls-2" d="M522.39,78.09h.28v-76h13.45V97.16h-17L468.3,19.54H468V97.16H454.57V2.08H472.1Z"/><path class="cls-2" d="M572.37,97H558.82V1.79h60.49v11.7H572.37V43.07H616.3V54.51H572.37Z"/><path class="cls-2" d="M655.47,97H642V1.71h30.85a59.1,59.1,0,0,1,13.18,1.42,32.68,32.68,0,0,1,11,4.51,22.15,22.15,0,0,1,7.4,8.14,25.57,25.57,0,0,1,2.72,12.31q0,10.5-6.52,17a30.49,30.49,0,0,1-16.86,8.21L710.66,97H694.35L669.88,54.6H655.47Zm0-53.57H671a46.15,46.15,0,0,0,8.83-.8A22.47,22.47,0,0,0,686.94,40a13.77,13.77,0,0,0,4.82-4.71,13.55,13.55,0,0,0,1.77-7.2,13.58,13.58,0,0,0-1.77-7.2,13.61,13.61,0,0,0-4.69-4.64,20.51,20.51,0,0,0-6.86-2.49,45.17,45.17,0,0,0-8.29-.74H655.47Z"/><path class="cls-2" d="M741,97H726L768,1.71h12.33L822,97H806.65l-9.86-23.42h-46Zm14.52-35.13h36.29L773.78,17.19Z"/><path class="cls-2" d="M811,20.28h-1.89V3.37h-6.23V1.69h14.34V3.37H811Z"/><path class="cls-2" d="M829.16,17.07h0l6.22-15.38h2.89V20.28h-1.89V4.13h0l-6.72,16.15h-1L821.92,4.13h-.06V20.28H820V1.69h2.89Z"/></g></g></svg>