<svg xmlns="http://www.w3.org/2000/svg" viewBox="0 0 1479.44 98.8"><defs><style>.cls-1{fill:#405364;}.cls-2{fill:#ee9721;}</style></defs><title>Chef Workstation</title><g id="Layer_2" data-name="Layer 2"><g id="Layer_1-2" data-name="Layer 1"><path class="cls-1" d="M0,49.7H0C-.46,22.77,21.39.57,48.79.11c.61,0,1.23,0,1.84,0A50.56,50.56,0,0,1,88.9,14.85L75.28,30.25A36.1,36.1,0,0,0,50.46,19.41C34.6,19.57,21.86,32.33,22,47.92c0,.41,0,.82,0,1.23v.28A28.51,28.51,0,0,0,49.19,79.35l1,0A35.31,35.31,0,0,0,75.72,68.23L89.29,81.72a50,50,0,0,1-39.65,17C22.6,99.1.37,77.85,0,51.28c0-.53,0-1.06,0-1.58"/><polygon class="cls-1" points="106.65 1.74 127.99 1.74 127.99 39.67 167.36 39.67 167.36 1.74 188.71 1.74 188.71 97.11 167.36 97.11 167.36 58.85 127.99 58.85 127.99 97.11 106.65 97.11 106.65 1.74"/><polygon class="cls-1" points="211.97 1.74 285.2 1.74 285.2 20.44 233.2 20.44 233.2 39.78 278.97 39.78 278.97 58.42 233.2 58.42 233.2 78.47 285.87 78.47 285.87 97.11 211.97 97.11 211.97 1.74"/><polygon class="cls-1" points="304.89 1.74 378.78 1.74 378.78 20.81 326.23 20.81 326.23 41.13 372.55 41.13 372.55 60.21 326.23 60.21 326.23 97.11 304.89 97.11 304.89 1.74"/><path class="cls-2" d="M453.52,77.68h.27L476.13,1.77H490.8L513,77.68h.26l21-75.91H548.4l-28,95.29H506.54L483.4,20.48h-.27L460,97.06H446.12l-28-95.29h14.41Z"/><path class="cls-2" d="M663.14,49.27a51.63,51.63,0,0,1-3.79,20,47.55,47.55,0,0,1-10.42,15.67,46.8,46.8,0,0,1-15.81,10.22A53.22,53.22,0,0,1,613.2,98.8a52.67,52.67,0,0,1-19.85-3.65,46,46,0,0,1-26.1-25.89,52.35,52.35,0,0,1-3.71-20,52.69,52.69,0,0,1,3.71-20.12,45.22,45.22,0,0,1,10.36-15.54,47.18,47.18,0,0,1,15.74-10A53.65,53.65,0,0,1,613.2,0a54.21,54.21,0,0,1,19.92,3.59,47.09,47.09,0,0,1,15.81,10,46.08,46.08,0,0,1,10.42,15.54A52,52,0,0,1,663.14,49.27Zm-14.21,0a41.74,41.74,0,0,0-2.53-14.54,36.85,36.85,0,0,0-7.17-12A33.57,33.57,0,0,0,628,14.54a35.43,35.43,0,0,0-14.81-3,35.07,35.07,0,0,0-14.67,3,32.93,32.93,0,0,0-11.16,8.17,37.57,37.57,0,0,0-7.1,12,41.74,41.74,0,0,0-2.52,14.54A42.66,42.66,0,0,0,580.27,64a36,36,0,0,0,7.17,12,33.28,33.28,0,0,0,11.15,8A35.26,35.26,0,0,0,613.2,87a36.15,36.15,0,0,0,14.74-2.92,32.86,32.86,0,0,0,11.29-8,36,36,0,0,0,7.17-12A42.66,42.66,0,0,0,648.93,49.27Z"/><path class="cls-2" d="M699.16,97.06H685.84V1.77h30.55a58.07,58.07,0,0,1,13.05,1.42A32.17,32.17,0,0,1,740.28,7.7a22.05,22.05,0,0,1,7.33,8.14,25.92,25.92,0,0,1,2.69,12.31q0,10.5-6.46,17a30.11,30.11,0,0,1-16.68,8.21L753.8,97.06H737.65l-24.22-42.4H699.16Zm-.28-53.57h15.34a45.3,45.3,0,0,0,8.75-.8A22,22,0,0,0,730,40.06a13.65,13.65,0,0,0,4.78-4.71,13.67,13.67,0,0,0,1.75-7.2,13.67,13.67,0,0,0-1.75-7.2,13.47,13.47,0,0,0-4.64-4.64,20.25,20.25,0,0,0-6.8-2.49,44.29,44.29,0,0,0-8.21-.74H698.88Z"/><path class="cls-2" d="M786.24,44.11h.27L828.76,2.39h18.32l-46,43.32,48.81,51.35h-19L786.51,48.12h-.27V97.06H773V2.39h13.23Z"/><path class="cls-2" d="M912.55,19.79A21,21,0,0,0,905,13.48,23.17,23.17,0,0,0,894.22,11a24.88,24.88,0,0,0-6.44.87,17.65,17.65,0,0,0-5.91,2.78,15.33,15.33,0,0,0-4.31,4.79,13.32,13.32,0,0,0-1.66,6.83,12.52,12.52,0,0,0,1.53,6.45,13.93,13.93,0,0,0,4.11,4.38,26.41,26.41,0,0,0,6.11,3.05c2.35.84,4.85,1.71,7.5,2.59q4.79,1.47,9.7,3.32a34.82,34.82,0,0,1,8.9,4.92,24.18,24.18,0,0,1,6.5,7.63,23.94,23.94,0,0,1,2.53,11.62,27.66,27.66,0,0,1-2.73,12.68,25.81,25.81,0,0,1-7.23,8.9,30.86,30.86,0,0,1-10.43,5.25,43.14,43.14,0,0,1-12.15,1.72A44.39,44.39,0,0,1,873,95.35,34.1,34.1,0,0,1,859.3,85.12l10.22-8.63a25.55,25.55,0,0,0,21,11,24.57,24.57,0,0,0,6.64-.93,18.72,18.72,0,0,0,6-2.93,15.91,15.91,0,0,0,4.45-5,14.22,14.22,0,0,0,1.72-7.23,13.1,13.1,0,0,0-1.79-7.11,15.8,15.8,0,0,0-4.85-4.85,32.26,32.26,0,0,0-7.1-3.38q-4.05-1.39-8.57-2.86A73.53,73.53,0,0,1,878.16,50a30.64,30.64,0,0,1-7.84-4.91,22.89,22.89,0,0,1-5.58-7.37,25,25,0,0,1-2.12-10.89,24.21,24.21,0,0,1,2.85-12.09,26.13,26.13,0,0,1,7.44-8.36,30.85,30.85,0,0,1,10.36-4.85A45.18,45.18,0,0,1,894.89,0a40.55,40.55,0,0,1,15.4,2.92,30.67,30.67,0,0,1,11.56,7.84Z"/><path class="cls-2" d="M981,97.22H967.63V13.5H937V1.77h74.55V13.5H981Z"/><path class="cls-2" d="M1026.31,97.22h-14.73L1052.7,2.39h12l40.72,94.83h-15l-9.65-23.31h-45Zm13.09-35h35.49l-17.68-44.47Z"/><path class="cls-2" d="M1148.07,97.22h-13.26V14h-30.4V2.39h74.07V14h-30.41Z"/><path class="cls-2" d="M1206.76,97h-13.15V1.77h13.15Z"/><path class="cls-2" d="M1329.06,49.27a51.62,51.62,0,0,1-3.78,20,47.57,47.57,0,0,1-10.43,15.67,46.66,46.66,0,0,1-15.8,10.22,53.22,53.22,0,0,1-19.92,3.65,52.67,52.67,0,0,1-19.85-3.65,46,46,0,0,1-26.1-25.89,52.35,52.35,0,0,1-3.72-20,52.7,52.7,0,0,1,3.72-20.12,45.22,45.22,0,0,1,10.36-15.54,47.18,47.18,0,0,1,15.74-10A53.65,53.65,0,0,1,1279.13,0a54.21,54.21,0,0,1,19.92,3.59,47,47,0,0,1,15.8,10,46.1,46.1,0,0,1,10.43,15.54A52,52,0,0,1,1329.06,49.27Zm-14.21,0a41.74,41.74,0,0,0-2.52-14.54,36.85,36.85,0,0,0-7.17-12,33.57,33.57,0,0,0-11.22-8.17,37.85,37.85,0,0,0-29.49,0,32.89,32.89,0,0,0-11.15,8.17,37.57,37.57,0,0,0-7.1,12,41.51,41.51,0,0,0-2.53,14.54A42.43,42.43,0,0,0,1246.2,64a36,36,0,0,0,7.17,12,33.08,33.08,0,0,0,11.15,8A35.26,35.26,0,0,0,1279.13,87a36.18,36.18,0,0,0,14.74-2.92,32.86,32.86,0,0,0,11.29-8,36,36,0,0,0,7.17-12A42.66,42.66,0,0,0,1314.85,49.27Z"/><path class="cls-2" d="M1418.92,78h.27V1.77h13.32V97.06h-16.82l-50.33-77.79h-.27V97.06h-13.32V1.77h17.36Z"/><path class="cls-2" d="M1452.1,20.36h-1.89V3.45H1444V1.77h14.34V3.45h-6.23Z"/><path class="cls-2" d="M1470.3,17.16h0l6.22-15.39h2.89V20.36h-1.89V4.22h-.06l-6.72,16.14h-1l-6.72-16.14h0V20.36h-1.89V1.77H1464Z"/></g></g></svg>