<svg xmlns="http://www.w3.org/2000/svg" viewBox="0 0 1223.45 101.12"><defs><style>.cls-1{fill:#fff;}.cls-2{fill:#ee9721;}</style></defs><title>Chef Automate Inverse</title><g id="Layer_2" data-name="Layer 2"><g id="Layer_1-2" data-name="Layer 1"><g id="Automate_Horizontal" data-name="Automate Horizontal"><path class="cls-1" d="M0,51.12H0A49.62,49.62,0,0,1,48.79.67c.61,0,1.23,0,1.84,0a50.06,50.06,0,0,1,38.27,15L75.28,31.33a35.77,35.77,0,0,0-24.82-11A28.72,28.72,0,0,0,22,49.32c0,.42,0,.84,0,1.25v.28A28.83,28.83,0,0,0,49.19,81.3l1,0A35,35,0,0,0,75.72,70L89.29,83.71A49.67,49.67,0,0,1,49.64,101,49,49,0,0,1,0,52.74q0-.81,0-1.62"/><polygon class="cls-1" points="106.65 2.33 127.99 2.33 127.99 40.92 167.36 40.92 167.36 2.33 188.71 2.33 188.71 99.38 167.36 99.38 167.36 60.44 127.99 60.44 127.99 99.38 106.65 99.38 106.65 2.33"/><polygon class="cls-1" points="211.97 2.33 285.2 2.33 285.2 21.35 233.2 21.35 233.2 41.03 278.97 41.03 278.97 60 233.2 60 233.2 80.41 285.87 80.41 285.87 99.38 211.97 99.38 211.97 2.33"/><polygon class="cls-1" points="304.89 2.33 378.78 2.33 378.78 21.73 326.23 21.73 326.23 42.41 372.55 42.41 372.55 61.82 326.23 61.82 326.23 99.38 304.89 99.38 304.89 2.33"/><path class="cls-2" d="M418.09,99.3H403l42.05-97H457.4L499,99.3H483.7l-9.86-23.84h-46Zm14.52-35.76h36.3L450.83,18.06Z"/><path class="cls-2" d="M550.94,99.36a39.23,39.23,0,0,1-16.31-3.14,33,33,0,0,1-11.49-8.35,34.28,34.28,0,0,1-6.76-12,44.67,44.67,0,0,1-2.2-14V2.31h13.23V61.13a38.37,38.37,0,0,0,1.21,9.56,24.23,24.23,0,0,0,3.94,8.49,19.85,19.85,0,0,0,7.22,6,28.31,28.31,0,0,0,22.26,0,19.72,19.72,0,0,0,7.28-6,24.43,24.43,0,0,0,3.95-8.49,38.83,38.83,0,0,0,1.2-9.56V2.31H587.7V61.93a44.67,44.67,0,0,1-2.2,14,34.1,34.1,0,0,1-6.75,12,33.1,33.1,0,0,1-11.5,8.35A39.19,39.19,0,0,1,550.94,99.36Z"/><path class="cls-2" d="M647.53,99.36H634V14.24H602.84V2.31h75.8V14.24H647.53Z"/><path class="cls-2" d="M788.1,50.43a52.55,52.55,0,0,1-3.88,20.45,48.49,48.49,0,0,1-10.67,16,47.81,47.81,0,0,1-16.17,10.47A54.61,54.61,0,0,1,737,101.12a54.09,54.09,0,0,1-20.32-3.73A47.15,47.15,0,0,1,690,70.88a53.64,53.64,0,0,1-3.8-20.45,54.09,54.09,0,0,1,3.8-20.6,46.35,46.35,0,0,1,10.6-15.9A48.36,48.36,0,0,1,716.67,3.67a58.28,58.28,0,0,1,40.71,0,48.23,48.23,0,0,1,16.17,10.26,47.09,47.09,0,0,1,10.67,15.9A53,53,0,0,1,788.1,50.43Zm-14.55,0A42.73,42.73,0,0,0,771,35.54a37.93,37.93,0,0,0-7.34-12.3,34.4,34.4,0,0,0-11.48-8.36,38.74,38.74,0,0,0-30.18,0,33.76,33.76,0,0,0-11.42,8.36,38.66,38.66,0,0,0-7.27,12.3,42.73,42.73,0,0,0-2.58,14.89,43.63,43.63,0,0,0,2.58,15.08,36.71,36.71,0,0,0,7.34,12.3A34.21,34.21,0,0,0,722,86a36.15,36.15,0,0,0,15,3,37.12,37.12,0,0,0,15.09-3,33.85,33.85,0,0,0,11.55-8.23A36.71,36.71,0,0,0,771,65.51,43.63,43.63,0,0,0,773.55,50.43Z"/><path class="cls-2" d="M860.51,76.88h.27L889.43,2.31h21.11V99.36H897V18.21h-.27L864.48,99.36h-8.63L823.77,18.21h-.28V99.36H810.34v-97h21.11Z"/><path class="cls-2" d="M940.76,99.36H925.68l42.08-97H980.1l41.67,97.05h-15.35l-9.87-23.85H950.49Zm14.53-35.77h36.32L973.52,18.08Z"/><path class="cls-2" d="M1066.46,99.36h-13.57V14.24h-31.12V2.31h75.81V14.24h-31.12Z"/><path class="cls-2" d="M1126.28,87.3H1177V99.36h-64.29v-97H1177V14.24h-50.72V43.3h45.79V55h-45.79Z"/><path class="cls-2" d="M1196.11,20.9h-1.89V4H1188V2.31h14.34V4h-6.23Z"/><path class="cls-2" d="M1214.31,17.7h0l6.22-15.39h2.89V20.9h-1.89V4.76h0l-6.73,16.14h-1l-6.73-16.14h0V20.9h-1.89V2.31H1208Z"/></g></g></g></svg>