<svg id="Layer_1" data-name="Layer 1" xmlns="http://www.w3.org/2000/svg" viewBox="0 0 1030.9 100.46">
  <defs>
    <style>
      .cls-1 {
        fill: #fff;
      }

      .cls-2 {
        fill: #ee9721;
      }
    </style>
  </defs>
  <title>Habitat</title>
  <g id="Layer_1-2" data-name="Layer 1-2">
    <path class="cls-1" d="M0,50.52H0A49.62,49.62,0,0,1,48.77.06h1.87a50.06,50.06,0,0,1,38.27,15L75.29,30.72a35.85,35.85,0,0,0-24.82-11A28.72,28.72,0,0,0,22,48.7h0v1.53A28.83,28.83,0,0,0,49.13,80.69H50.2A35,35,0,0,0,75.73,69.37L89.3,83.11a49.67,49.67,0,0,1-39.65,17.31A49,49,0,0,1,0,52.13V50.52"/>
    <polygon class="cls-1" points="106.66 1.72 128 1.72 128 40.31 167.37 40.31 167.37 1.72 188.72 1.72 188.72 98.77 167.37 98.77 167.37 59.83 128 59.83 128 98.77 106.66 98.77 106.66 1.72"/>
    <polygon class="cls-1" points="211.98 1.72 285.21 1.72 285.21 20.74 233.21 20.74 233.21 40.42 278.98 40.42 278.98 59.39 233.21 59.39 233.21 79.8 285.88 79.8 285.88 98.77 211.98 98.77 211.98 1.72"/>
    <polygon class="cls-1" points="304.9 1.72 378.79 1.72 378.79 21.12 326.24 21.12 326.24 41.8 372.56 41.8 372.56 61.21 326.24 61.21 326.24 98.77 304.9 98.77 304.9 1.72"/>
    <path class="cls-2" d="M418.13,1.75H431.6V42.29h48.69V1.75h13.6v97h-13.6V54.34H431.6V98.71H418.13Z"/>
    <path class="cls-2" d="M523.72,98.5h-15L550.51,2.2h12.24L604.1,98.5H588.87l-9.8-23.67h-45.7ZM538.13,63h36l-18-45.15Z"/>
    <path class="cls-2" d="M619.51,2.42h33.18a50.4,50.4,0,0,1,10.88,1.22,29.08,29.08,0,0,1,9.73,4.08,22.19,22.19,0,0,1,6.94,7.48,23.12,23.12,0,0,1,2.65,11.56,20.13,20.13,0,0,1-4.63,13.47A23.57,23.57,0,0,1,666,47.71V48a28.49,28.49,0,0,1,8.57,2.38,22.48,22.48,0,0,1,6.8,4.83,21.09,21.09,0,0,1,4.42,7.07,25.34,25.34,0,0,1,1.57,9.12A23.86,23.86,0,0,1,676.77,92a36.5,36.5,0,0,1-11.5,5,56.1,56.1,0,0,1-14.07,1.7H619.51ZM633,43.08h17.55a29.23,29.23,0,0,0,7.27-.88,17.91,17.91,0,0,0,6.06-2.72A13.33,13.33,0,0,0,668,34.86a14.29,14.29,0,0,0,1.49-6.74q0-7.74-5.71-11.08t-15.37-3.33H633Zm0,44.21h16.87a48.48,48.48,0,0,0,8.5-.75,24.81,24.81,0,0,0,7.75-2.65,15.61,15.61,0,0,0,5.58-5.1,14.48,14.48,0,0,0,2.11-8.09q0-8.58-5.85-12.38T651.1,54.51H633Z"/>
    <path class="cls-2" d="M723.54,98.71H710.08V1.83h13.46Z"/>
    <path class="cls-2" d="M783,98.71H769.55v-85H738.68V1.83h75.21v11.9H783Z"/>
    <path class="cls-2" d="M828.86,98.71h-15L855.65,2.08h12.24l41.35,96.63H894L884.21,75h-45.7Zm14.41-35.62h36l-18-45.31Z"/>
    <path class="cls-2" d="M953.58,98.71H940.11v-85H909.24V1.83h75.21v11.9H953.58Z"/>
    <path class="cls-2" d="M1003.57,20.42h-1.89V3.51h-6.23V1.83h14.34V3.51h-6.22Z"/>
    <path class="cls-2" d="M1021.76,17.21h0L1028,1.83h2.89V20.42H1029V4.27h0l-6.73,16.15h-1l-6.72-16.15h-.06V20.42h-1.89V1.83h2.89Z"/>
  </g>
</svg>
