<svg id="Layer_1" data-name="Layer 1" xmlns="http://www.w3.org/2000/svg" xmlns:xlink="http://www.w3.org/1999/xlink" viewBox="0 0 843.27 98.7">
  <defs>
    <style>
      .cls-1 {
        fill: none;
      }

      .cls-2 {
        clip-path: url(#clip-path);
      }

      .cls-3 {
        fill: #fff;
      }

      .cls-4 {
        fill: #ee9722;
      }
    </style>
    <clipPath id="clip-path">
      <rect class="cls-1" x="0.12" width="838.16" height="98.7"/>
    </clipPath>
  </defs>
  <title>Infra</title>
  <g>
    <g class="cls-2">
      <path class="cls-3" d="M0,49.64H0C-.45,22.71,21.4.51,48.8.06h1.84A50.57,50.57,0,0,1,88.91,14.8L75.29,30.19A36.18,36.18,0,0,0,50.47,19.35,28.51,28.51,0,0,0,22,47.86v1.51A28.51,28.51,0,0,0,49,79.29H50.2A35.3,35.3,0,0,0,75.73,68.17L89.3,81.66a50.09,50.09,0,0,1-39.65,17C22.61,99,.38,77.79,0,51.22V49.64"/>
    </g>
    <polygon class="cls-3" points="106.66 1.69 128 1.69 128 39.61 167.37 39.61 167.37 1.69 188.72 1.69 188.72 97.05 167.37 97.05 167.37 58.79 128 58.79 128 97.05 106.66 97.05 106.66 1.69 106.66 1.69"/>
    <polygon class="cls-3" points="211.98 1.69 285.21 1.69 285.21 20.38 233.21 20.38 233.21 39.72 278.98 39.72 278.98 58.36 233.21 58.36 233.21 78.41 285.88 78.41 285.88 97.05 211.98 97.05 211.98 1.69 211.98 1.69"/>
    <polygon class="cls-3" points="304.9 1.69 378.79 1.69 378.79 20.76 326.24 20.76 326.24 41.08 372.56 41.08 372.56 60.15 326.24 60.15 326.24 97.05 304.9 97.05 304.9 1.69 304.9 1.69"/>
    <polygon class="cls-4" points="431.59 97 418.13 97 418.13 1.69 431.59 1.69 431.59 97 431.59 97"/>
    <polygon class="cls-4" points="522.4 78.09 522.68 78.09 522.68 2.09 536.13 2.09 536.13 97.16 519.13 97.16 468.31 19.54 468.01 19.54 468.01 97.16 454.58 97.16 454.58 2.08 472.11 2.08 522.4 78.09 522.4 78.09"/>
    <polygon class="cls-4" points="572.38 97 558.83 97 558.83 1.79 619.32 1.79 619.32 13.49 572.38 13.49 572.38 43.07 616.31 43.07 616.31 54.51 572.38 54.51 572.38 97 572.38 97"/>
    <path class="cls-4" d="M655.48,43.43H671a45.9,45.9,0,0,0,8.83-.8A22.19,22.19,0,0,0,687,40a13.67,13.67,0,0,0,4.82-4.71,13.54,13.54,0,0,0,1.77-7.2,13.65,13.65,0,0,0-1.77-7.2,13.7,13.7,0,0,0-4.69-4.64,20.8,20.8,0,0,0-6.86-2.49,45.24,45.24,0,0,0-8.29-.74H655.48V43.43Zm0,53.57H642V1.71h30.85A59.65,59.65,0,0,1,686,3.13a32.8,32.8,0,0,1,11,4.51,22.18,22.18,0,0,1,7.4,8.14,25.66,25.66,0,0,1,2.72,12.31q0,10.5-6.52,17a30.46,30.46,0,0,1-16.86,8.21L710.67,97H694.36L669.89,54.6H655.48V97Z"/>
    <path class="cls-4" d="M755.53,61.87h36.29l-18-44.68L755.53,61.87ZM741,97H726L768,1.71h12.33L822,97H806.66L796.8,73.58h-46L741,97Z"/>
    <polygon class="cls-4" points="811.01 20.28 809.12 20.28 809.12 3.37 802.89 3.37 802.89 1.69 817.23 1.69 817.23 3.37 811.01 3.37 811.01 20.28 811.01 20.28"/>
    <polygon class="cls-4" points="829.17 17.07 829.17 17.07 835.39 1.69 838.28 1.69 838.28 20.28 836.39 20.28 836.39 4.13 836.39 4.13 829.67 20.28 828.67 20.28 821.93 4.13 821.87 4.13 821.87 20.28 820.01 20.28 820.01 1.69 822.9 1.69 829.17 17.07 829.17 17.07"/>
  </g>
</svg>
