<svg xmlns="http://www.w3.org/2000/svg" viewBox="0 0 426.69 436.05"><defs><style>.cls-1{fill:#fff;}.cls-2{fill:#f750ae;}.cls-3{fill:#00aeef;}.cls-4{fill:#f9ae4b;}.cls-5{fill:#c67cd8;}.cls-6{fill:#1aaf94;}</style></defs><g id="Layer_2" data-name="Layer 2"><g id="Layer_5" data-name="Layer 5"><path class="cls-1" d="M55.36,310.08A171.62,171.62,0,0,1,42.4,257L53,265.85l1.28-1.53-13.21-11-11,13.2,1.54,1.28,8.77-10.53a173.87,173.87,0,0,0,13.11,53.59Z"/><path class="cls-1" d="M143.57,85.22,144,83.9l-16.34-5.29-.62,1.9,13.11,4.25a173.91,173.91,0,0,0-45.25,30.48l1.37,1.47A171.83,171.83,0,0,1,141,86.55L136.8,99.63l1.9.62,4.8-14.83.13,0Z"/><path class="cls-1" d="M241.83,414.48l-.32-2a171.76,171.76,0,0,1-54.54.16l11-8.72-1.24-1.57L183.27,413l10.67,13.47,1.57-1.25-8.37-10.55a172.63,172.63,0,0,0,26.55,2.06A175.29,175.29,0,0,0,241.83,414.48Z"/><path class="cls-1" d="M333.17,101.8l-2,.19,1.27,13.1A173.89,173.89,0,0,0,285.6,84.48l-.81,1.83a171.34,171.34,0,0,1,47,30.88l-14.24,1.38.19,2,17.1-1.66Z"/><path class="cls-1" d="M373.83,309.23a173.57,173.57,0,0,0,13.58-54.15l-2-.16a172,172,0,0,1-13.61,54l-6.17-12.54-1.8.89,7.59,15.41,15.41-7.59-.88-1.79Z"/><path class="cls-2" d="M248.57,119.06h-71a13,13,0,0,1-13-13v-71a13,13,0,0,1,13-13h71a13,13,0,0,1,13,13v71A13,13,0,0,1,248.57,119.06Zm-71-95a11,11,0,0,0-11,11v71a11,11,0,0,0,11,11h71a11,11,0,0,0,11-11v-71a11,11,0,0,0-11-11Z"/><rect class="cls-2" x="165.52" y="40" width="84.95" height="1.8"/><path class="cls-2" d="M177,36a3.77,3.77,0,1,1,3.78-3.77A3.77,3.77,0,0,1,177,36Zm0-5.74a2,2,0,1,0,2,2A2,2,0,0,0,177,30.22Z"/><path class="cls-2" d="M187.38,36a3.77,3.77,0,1,1,3.78-3.77A3.78,3.78,0,0,1,187.38,36Zm0-5.74a2,2,0,1,0,2,2A2,2,0,0,0,187.38,30.22Z"/><path class="cls-2" d="M198.05,36a3.77,3.77,0,1,1,3.78-3.77A3.77,3.77,0,0,1,198.05,36Zm0-5.74a2,2,0,1,0,2,2A2,2,0,0,0,198.05,30.22Z"/><rect class="cls-2" x="178.67" y="73.51" width="1.8" height="17.24"/><rect class="cls-2" x="187.36" y="50.93" width="1.8" height="39.82"/><rect class="cls-2" x="196.69" y="61.61" width="1.8" height="29.14"/><rect class="cls-2" x="205.38" y="56.27" width="1.8" height="34.48"/><rect class="cls-2" x="179.05" y="97.04" width="23.93" height="1.8"/><rect class="cls-2" x="179.05" y="104.23" width="13.25" height="1.8"/><rect class="cls-2" x="220.61" y="97.04" width="23.93" height="1.8"/><rect class="cls-2" x="220.61" y="104.23" width="13.25" height="1.8"/><polygon class="cls-2" points="180.27 87.29 178.88 86.15 187.84 75.28 197.27 75.28 205.71 68.33 206.85 69.72 197.91 77.08 188.69 77.08 180.27 87.29"/><path class="cls-2" d="M234.85,84.22A13.52,13.52,0,1,1,248.36,70.7,13.54,13.54,0,0,1,234.85,84.22Zm0-25.24A11.72,11.72,0,1,0,246.56,70.7,11.73,11.73,0,0,0,234.85,59Z"/><polygon class="cls-2" points="247.46 71.6 233.94 71.6 233.94 58.08 235.75 58.08 235.75 69.8 247.46 69.8 247.46 71.6"/><path class="cls-2" d="M179.68,11.42A3.42,3.42,0,0,1,178.3,10a4.77,4.77,0,0,1-.48-2.19,4.77,4.77,0,0,1,.5-2.21,3.62,3.62,0,0,1,1.42-1.48,4.08,4.08,0,0,1,2.13-.53,4.78,4.78,0,0,1,1.63.28,3.39,3.39,0,0,1,1.26.76l-.49,1.17a3.7,3.7,0,0,0-2.29-.9,2.29,2.29,0,0,0-1.83.76,3.22,3.22,0,0,0-.65,2.14,3.16,3.16,0,0,0,.65,2.12,2.34,2.34,0,0,0,1.83.74,3.6,3.6,0,0,0,2.29-.9l.49,1.17a3.51,3.51,0,0,1-1.3.75,4.86,4.86,0,0,1-1.66.28A4.14,4.14,0,0,1,179.68,11.42Z"/><path class="cls-2" d="M187.67,11.42A3.45,3.45,0,0,1,186.29,10a4.71,4.71,0,0,1-.49-2.21,4.78,4.78,0,0,1,.49-2.22,3.48,3.48,0,0,1,1.38-1.46,4.48,4.48,0,0,1,4.15,0,3.48,3.48,0,0,1,1.38,1.46,4.78,4.78,0,0,1,.49,2.22A4.71,4.71,0,0,1,193.2,10a3.45,3.45,0,0,1-1.38,1.45,4.4,4.4,0,0,1-4.15,0Zm3.78-1.5A3.41,3.41,0,0,0,192,7.76a3.35,3.35,0,0,0-.6-2.14,2,2,0,0,0-1.69-.76,2.07,2.07,0,0,0-1.71.76,3.35,3.35,0,0,0-.61,2.14,3.35,3.35,0,0,0,.6,2.16,2.35,2.35,0,0,0,3.42,0Z"/><path class="cls-2" d="M202.76,6.8v5h-1.62V6.9a2.37,2.37,0,0,0-.4-1.54,1.64,1.64,0,0,0-1.31-.48,2.16,2.16,0,0,0-1.64.64,2.37,2.37,0,0,0-.61,1.71v4.59h-1.6V6a19.2,19.2,0,0,0-.13-2.27H197l.15,1.39A2.62,2.62,0,0,1,198.21,4a3.25,3.25,0,0,1,1.66-.41Q202.77,3.57,202.76,6.8Z"/><path class="cls-2" d="M207.16,3.76h5.1v8.06h-1.61V5h-3.49v6.81h-1.62V5H204V3.76h1.56V2.82a3.58,3.58,0,0,1,.32-1.65,1.84,1.84,0,0,1,1-.89A5.38,5.38,0,0,1,208.82,0h.55V1.22H209a3.61,3.61,0,0,0-1.15.13.85.85,0,0,0-.52.51A3.76,3.76,0,0,0,207.16,3Zm5.25-3.6V1.9H210.5V.16Z"/><path class="cls-2" d="M222.06,3.76v7.92a3.73,3.73,0,0,1-1,2.78,4,4,0,0,1-2.87.93,6.23,6.23,0,0,1-3.22-.8l.27-1.26a7.76,7.76,0,0,0,1.45.59,5.46,5.46,0,0,0,1.48.19,2,2,0,0,0,2.26-2.3V10.06a2.83,2.83,0,0,1-1.08,1.12,3.2,3.2,0,0,1-1.63.4,3.59,3.59,0,0,1-1.88-.49,3.37,3.37,0,0,1-1.28-1.41,4.7,4.7,0,0,1-.45-2.1,4.66,4.66,0,0,1,.45-2.09,3.46,3.46,0,0,1,1.28-1.42,3.59,3.59,0,0,1,1.88-.5,3.3,3.3,0,0,1,1.63.39,2.63,2.63,0,0,1,1.08,1.11V3.76Zm-2.23,5.81a2.91,2.91,0,0,0,.63-2,3,3,0,0,0-.62-2,2.14,2.14,0,0,0-1.72-.73,2.17,2.17,0,0,0-1.72.73,3,3,0,0,0-.63,2,2.9,2.9,0,0,0,.63,2,2.39,2.39,0,0,0,3.43,0Z"/><path class="cls-2" d="M231.43,3.76v8.06h-1.57V10.48a2.6,2.6,0,0,1-1.05,1.08,3.09,3.09,0,0,1-1.52.38q-2.91,0-2.91-3.24V3.76H226V8.69a2.2,2.2,0,0,0,.4,1.46,1.55,1.55,0,0,0,1.24.47,2.07,2.07,0,0,0,1.6-.64,2.36,2.36,0,0,0,.6-1.69V3.76Z"/><path class="cls-2" d="M238.58,3.68l0,1.47a2.85,2.85,0,0,0-.94-.16,2,2,0,0,0-1.66.67,2.51,2.51,0,0,0-.55,1.67v4.49h-1.6V6a17.27,17.27,0,0,0-.13-2.27h1.51l.14,1.46a2.44,2.44,0,0,1,1-1.23,2.79,2.79,0,0,1,1.51-.42A3,3,0,0,1,238.58,3.68Z"/><path class="cls-2" d="M246.54,7.82h-5.76c.05,1.89.91,2.84,2.57,2.84a4,4,0,0,0,2.55-.92l.49,1.16a4,4,0,0,1-1.38.76,5.49,5.49,0,0,1-1.69.28,4.07,4.07,0,0,1-3-1.12,4.1,4.1,0,0,1-1.1-3,4.87,4.87,0,0,1,.48-2.2A3.63,3.63,0,0,1,241,4.1a3.76,3.76,0,0,1,2-.53,3.26,3.26,0,0,1,2.57,1.05,4.3,4.3,0,0,1,.94,2.93Zm-5-2.51a2.61,2.61,0,0,0-.74,1.55h4.27a2.48,2.48,0,0,0-.62-1.56,1.94,1.94,0,0,0-1.43-.53A2.07,2.07,0,0,0,241.58,5.31Z"/><path class="cls-3" d="M415.08,141.12H341.4a11.62,11.62,0,0,0-11.6,11.61v72.39a13,13,0,0,0,13,13h70.89a13,13,0,0,0,13-13V152.73A11.63,11.63,0,0,0,415.08,141.12Zm9.61,32.82v51.18a11,11,0,0,1-11,11H342.8a11,11,0,0,1-11-11V152.73a9.62,9.62,0,0,1,9.6-9.61h73.68a9.62,9.62,0,0,1,9.61,9.61v21.21Z"/><path class="cls-3" d="M379.64,198.32a8.31,8.31,0,0,0,16.62,0h-2A6.31,6.31,0,1,1,388,192v-2A8.32,8.32,0,0,0,379.64,198.32Z"/><path class="cls-3" d="M344.43,219.24a.91.91,0,0,1-.24-.35,1.57,1.57,0,0,1-.09-.58v-2.56a2.37,2.37,0,0,0-.57-1.67,2,2,0,0,0-1.54-.61h-1.26v1.61h.72a.56.56,0,0,1,.58.3,1.45,1.45,0,0,1,.13.63v2.5a2,2,0,0,0,.15.84,1.68,1.68,0,0,0,.38.53,1.62,1.62,0,0,0,.47.3,1.73,1.73,0,0,0,.43.1v0a1.27,1.27,0,0,0-.43.13,1.86,1.86,0,0,0-.47.3,1.89,1.89,0,0,0-.38.52,1.75,1.75,0,0,0-.15.76v2.57a1.48,1.48,0,0,1-.13.63.57.57,0,0,1-.58.29h-.72v1.62H342a2,2,0,0,0,1.54-.62,2.34,2.34,0,0,0,.57-1.66v-2.63a1.45,1.45,0,0,1,.09-.54.83.83,0,0,1,.24-.33.84.84,0,0,1,.33-.16,1.57,1.57,0,0,1,.37-.05v-1.69a1.55,1.55,0,0,1-.37,0A.87.87,0,0,1,344.43,219.24Z"/><path class="cls-3" d="M342.71,165.64V164H342a.56.56,0,0,1-.57-.29,1.51,1.51,0,0,1-.13-.63v-2.51a1.88,1.88,0,0,0-.16-.84,1.66,1.66,0,0,0-.37-.53,1.58,1.58,0,0,0-.47-.29,1.81,1.81,0,0,0-.43-.11v0a1.49,1.49,0,0,0,.43-.12,1.91,1.91,0,0,0,.47-.31,1.73,1.73,0,0,0,.37-.52,1.61,1.61,0,0,0,.16-.76v-2.57a1.51,1.51,0,0,1,.13-.63.56.56,0,0,1,.57-.29h.73V152h-1.26a2,2,0,0,0-1.54.61,2.36,2.36,0,0,0-.57,1.66v2.63a1.38,1.38,0,0,1-.09.54.79.79,0,0,1-.24.33.84.84,0,0,1-.33.16,1.64,1.64,0,0,1-.37.05v1.69a1.64,1.64,0,0,1,.37,0,.87.87,0,0,1,.33.17.9.9,0,0,1,.24.34,1.57,1.57,0,0,1,.09.58v2.57a2.34,2.34,0,0,0,.57,1.66,2,2,0,0,0,1.54.62Z"/><rect class="cls-3" x="348.38" y="197.99" width="19.01" height="2"/><rect class="cls-3" x="348.84" y="183.59" width="64.28" height="2"/><rect class="cls-3" x="348.84" y="212.33" width="64.28" height="2"/><rect class="cls-3" x="347.4" y="166.5" width="41.44" height="2"/><polygon class="cls-3" points="385.12 196.11 383.7 197.53 387.83 201.65 397.11 192.37 395.69 190.95 387.83 198.82 385.12 196.11"/><path class="cls-3" d="M406.21,173.81a6.31,6.31,0,1,1,0-12.62v-2a8.31,8.31,0,1,0,8.31,8.31h-2A6.32,6.32,0,0,1,406.21,173.81Z"/><polygon class="cls-3" points="406.09 168 403.38 165.29 401.97 166.71 406.09 170.83 415.37 161.54 413.96 160.13 406.09 168"/><path class="cls-3" d="M367.4,125.7v4a1.58,1.58,0,0,0,.36,1.17,1.4,1.4,0,0,0,1,.35,2.83,2.83,0,0,0,.85-.13v1.31a3.69,3.69,0,0,1-1.2.18,2.56,2.56,0,0,1-1.93-.71,2.8,2.8,0,0,1-.69-2V125.7h-1.57v-1.25h1.57v-2l1.61-.56v2.57h2.23v1.25Z"/><path class="cls-3" d="M378,128.52h-5.76c.05,1.88.91,2.83,2.57,2.83a4,4,0,0,0,2.54-.91l.5,1.15a4,4,0,0,1-1.38.76,5.54,5.54,0,0,1-1.69.28,3.82,3.82,0,0,1-4.14-4.16,4.83,4.83,0,0,1,.48-2.19,3.59,3.59,0,0,1,1.37-1.49,3.83,3.83,0,0,1,2-.53,3.23,3.23,0,0,1,2.57,1.06,4.27,4.27,0,0,1,.94,2.92ZM373,126a2.64,2.64,0,0,0-.74,1.56h4.27A2.43,2.43,0,0,0,376,126a1.91,1.91,0,0,0-1.43-.54A2.07,2.07,0,0,0,373,126Z"/><path class="cls-3" d="M379.34,131.6l.48-1.16a4.65,4.65,0,0,0,2.89,1,2.41,2.41,0,0,0,1.27-.28.89.89,0,0,0,.43-.8.85.85,0,0,0-.3-.68,2.65,2.65,0,0,0-1-.42l-1.34-.32a3.09,3.09,0,0,1-1.61-.79,2,2,0,0,1-.55-1.42,2.13,2.13,0,0,1,.87-1.76,3.67,3.67,0,0,1,2.31-.67,4.91,4.91,0,0,1,1.64.27,3.74,3.74,0,0,1,1.32.77l-.49,1.14a3.9,3.9,0,0,0-2.47-.93,2.19,2.19,0,0,0-1.21.29,1,1,0,0,0-.43.83.87.87,0,0,0,.27.67,2,2,0,0,0,.86.4l1.38.34a3.46,3.46,0,0,1,1.7.8,1.94,1.94,0,0,1,.55,1.44A2,2,0,0,1,385,132a4,4,0,0,1-2.37.63A5,5,0,0,1,379.34,131.6Z"/><path class="cls-3" d="M389.83,125.7v4a1.58,1.58,0,0,0,.36,1.17,1.4,1.4,0,0,0,1,.35,2.83,2.83,0,0,0,.85-.13v1.31a3.69,3.69,0,0,1-1.2.18,2.57,2.57,0,0,1-1.93-.71,2.8,2.8,0,0,1-.69-2V125.7h-1.57v-1.25h1.57v-2l1.61-.56v2.57h2.23v1.25Z"/><polygon class="cls-4" points="32.7 180.28 26.93 174.51 28.34 173.1 32.7 177.45 49.52 160.62 50.94 162.03 32.7 180.28"/><path class="cls-4" d="M84,237.41H13a13,13,0,0,1-13-13v-20H2v20a11,11,0,0,0,11,11H84a11,11,0,0,0,11-11v-71a11,11,0,0,0-11-11H59v-2H84a13,13,0,0,1,13,13v71A13,13,0,0,1,84,237.41Z"/><path class="cls-4" d="M33.32,207.05a33.32,33.32,0,1,1,33.32-33.32A33.36,33.36,0,0,1,33.32,207.05Zm0-64.64a31.32,31.32,0,1,0,31.32,31.32A31.36,31.36,0,0,0,33.32,142.41Z"/><path class="cls-4" d="M33.32,189.91a16.18,16.18,0,0,1,0-32.36v2A14.18,14.18,0,1,0,47.5,173.73h2A16.2,16.2,0,0,1,33.32,189.91Z"/><path class="cls-4" d="M33.32,214.09v-2a38.41,38.41,0,0,0,38.36-38.36h2A40.41,40.41,0,0,1,33.32,214.09Z"/><rect class="cls-4" x="70.59" y="189.09" width="2" height="38.93" transform="translate(-126.5 111.71) rotate(-45)"/><path class="cls-4" d="M16.7,122.65l0,1.48a2.63,2.63,0,0,0-1-.16,2,2,0,0,0-1.65.66,2.51,2.51,0,0,0-.55,1.67v4.5h-1.6V125a19.37,19.37,0,0,0-.13-2.28h1.5l.15,1.46a2.46,2.46,0,0,1,1-1.22,2.71,2.71,0,0,1,1.5-.43A3,3,0,0,1,16.7,122.65Z"/><path class="cls-4" d="M24.65,126.8H18.89c.06,1.89.91,2.83,2.58,2.83a4,4,0,0,0,2.54-.91l.5,1.15a4,4,0,0,1-1.39.76,5.19,5.19,0,0,1-1.68.28,3.84,3.84,0,0,1-4.15-4.16,4.83,4.83,0,0,1,.49-2.19,3.59,3.59,0,0,1,1.37-1.49,3.81,3.81,0,0,1,2-.53,3.25,3.25,0,0,1,2.57,1.06,4.28,4.28,0,0,1,.93,2.93Zm-5-2.51a2.6,2.6,0,0,0-.73,1.55h4.27a2.48,2.48,0,0,0-.63-1.56,1.88,1.88,0,0,0-1.42-.54A2.06,2.06,0,0,0,19.69,124.29Z"/><path class="cls-4" d="M38.4,125.77v5H36.78v-5a2.56,2.56,0,0,0-.36-1.52,1.36,1.36,0,0,0-1.16-.48,1.81,1.81,0,0,0-1.46.64,2.63,2.63,0,0,0-.54,1.75v4.56H31.64v-5a2.56,2.56,0,0,0-.36-1.52,1.35,1.35,0,0,0-1.16-.48,1.84,1.84,0,0,0-1.47.64,2.63,2.63,0,0,0-.54,1.75v4.56h-1.6V125a19.37,19.37,0,0,0-.13-2.28h1.5l.15,1.35a2.61,2.61,0,0,1,1-1.14,2.93,2.93,0,0,1,1.53-.4A2.34,2.34,0,0,1,33,124.09,2.73,2.73,0,0,1,34.1,123a3.09,3.09,0,0,1,1.61-.42C37.5,122.54,38.4,123.62,38.4,125.77Z"/><path class="cls-4" d="M47.6,126.8H41.84c0,1.89.91,2.83,2.57,2.83a4,4,0,0,0,2.55-.91l.49,1.15a4,4,0,0,1-1.38.76,5.21,5.21,0,0,1-1.69.28,3.82,3.82,0,0,1-4.14-4.16,4.83,4.83,0,0,1,.48-2.19,3.59,3.59,0,0,1,1.37-1.49,3.86,3.86,0,0,1,2-.53,3.23,3.23,0,0,1,2.57,1.06,4.28,4.28,0,0,1,.94,2.93Zm-5-2.51a2.61,2.61,0,0,0-.74,1.55h4.27a2.48,2.48,0,0,0-.62-1.56,1.91,1.91,0,0,0-1.43-.54A2,2,0,0,0,42.64,124.29Z"/><path class="cls-4" d="M56.83,119V130.8h-1.6v-1.38a2.56,2.56,0,0,1-1,1.11,3.58,3.58,0,0,1-3.48-.15,3.48,3.48,0,0,1-1.27-1.48,4.94,4.94,0,0,1-.46-2.2,5,5,0,0,1,.45-2.19,3.47,3.47,0,0,1,1.26-1.46,3.41,3.41,0,0,1,1.88-.51,3.21,3.21,0,0,1,1.6.39A2.38,2.38,0,0,1,55.21,124v-5Zm-2.2,9.85a4.1,4.1,0,0,0,0-4.27,2,2,0,0,0-1.69-.76,2.1,2.1,0,0,0-1.72.75,3.26,3.26,0,0,0-.62,2.11,3.36,3.36,0,0,0,.62,2.15,2.27,2.27,0,0,0,3.41,0Z"/><path class="cls-4" d="M60.92,119.21v1.7H59.05v-1.7Zm-1.72,3.52h1.6v8.07H59.2Z"/><path class="cls-4" d="M70.54,122.73v8.07h-1.6v-1.38a2.5,2.5,0,0,1-1,1.11,3.34,3.34,0,0,1-1.62.38,3.32,3.32,0,0,1-3.14-2,5.52,5.52,0,0,1,0-4.39,3.51,3.51,0,0,1,1.27-1.49,3.37,3.37,0,0,1,1.86-.53,3.2,3.2,0,0,1,1.61.39,2.73,2.73,0,0,1,1.06,1.12v-1.32Zm-2.2,6.14a4.12,4.12,0,0,0,0-4.28,2.29,2.29,0,0,0-3.41,0,3.4,3.4,0,0,0-.61,2.16,3.25,3.25,0,0,0,.61,2.11,2.11,2.11,0,0,0,1.72.75A2,2,0,0,0,68.34,128.87Z"/><path class="cls-4" d="M75,124v4a1.6,1.6,0,0,0,.36,1.18,1.39,1.39,0,0,0,1,.34,2.83,2.83,0,0,0,.85-.13v1.31a3.69,3.69,0,0,1-1.2.18,2.55,2.55,0,0,1-1.93-.7,2.82,2.82,0,0,1-.69-2.05V124H71.82v-1.25h1.57v-2l1.61-.56v2.57h2.23V124Z"/><path class="cls-4" d="M85.59,126.8H79.83c.06,1.89.92,2.83,2.58,2.83a4,4,0,0,0,2.55-.91l.49,1.15a4,4,0,0,1-1.38.76,5.25,5.25,0,0,1-1.69.28,3.82,3.82,0,0,1-4.14-4.16,4.83,4.83,0,0,1,.48-2.19,3.59,3.59,0,0,1,1.37-1.49,3.83,3.83,0,0,1,2-.53,3.23,3.23,0,0,1,2.57,1.06,4.28,4.28,0,0,1,.93,2.93Zm-5-2.51a2.66,2.66,0,0,0-.73,1.55h4.27a2.48,2.48,0,0,0-.62-1.56,1.91,1.91,0,0,0-1.43-.54A2.06,2.06,0,0,0,80.63,124.29Z"/><rect class="cls-5" x="124.94" y="356.47" width="6.33" height="2" transform="translate(-215.25 195.28) rotate(-45)"/><rect class="cls-5" x="128.1" y="366" width="4.87" height="2"/><rect class="cls-5" x="93.92" y="397.45" width="4.87" height="2"/><path class="cls-5" d="M64.17,436.05v-86a13,13,0,0,1,13-13h71a13,13,0,0,1,13,13v52.47a13,13,0,0,1-13,13H84.67Zm13-97a11,11,0,0,0-11,11v81.14l17.67-17.67h64.33a11,11,0,0,0,11-11V350.08a11,11,0,0,0-11-11Z"/><path class="cls-5" d="M112.64,404.23A7.31,7.31,0,1,1,120,397,7.3,7.3,0,0,1,112.64,404.23Zm0-12.61A5.31,5.31,0,1,0,118,397,5.34,5.34,0,0,0,112.64,391.62Zm2.65-7.18H110l-1.66-10.27c-1.79-9.7-2.77-16.92-2.77-20.31,0-4.62,2.58-7.28,7.09-7.28s7.09,2.72,7.09,7.28c0,3.31-1,10.34-2.78,20.33Zm-3.61-2h1.91l1.39-8.59c1.77-9.75,2.75-16.85,2.75-20,0-3.5-1.72-5.28-5.09-5.28s-5.09,1.78-5.09,5.28c0,1.89.35,7,2.74,20Z"/><path class="cls-5" d="M143,406.39v-2A8.37,8.37,0,0,0,151.4,396h2A10.37,10.37,0,0,1,143,406.39Z"/><path class="cls-5" d="M73.41,354.59h-2a10.37,10.37,0,0,1,10.36-10.36v2A8.37,8.37,0,0,0,73.41,354.59Z"/><path class="cls-5" d="M99.51,322.29v5H97.89v-4.92a2.37,2.37,0,0,0-.4-1.54,1.64,1.64,0,0,0-1.31-.48,2.16,2.16,0,0,0-1.64.64,2.37,2.37,0,0,0-.61,1.71v4.59h-1.6v-5.79a19.2,19.2,0,0,0-.13-2.27h1.5l.15,1.39A2.62,2.62,0,0,1,95,319.47a3.21,3.21,0,0,1,1.65-.41C98.54,319.06,99.51,320.13,99.51,322.29Z"/><path class="cls-5" d="M103.21,326.91a3.47,3.47,0,0,1-1.39-1.45,4.83,4.83,0,0,1-.49-2.21,4.9,4.9,0,0,1,.49-2.22,3.5,3.5,0,0,1,1.39-1.46,4.46,4.46,0,0,1,4.14,0,3.42,3.42,0,0,1,1.38,1.46,4.78,4.78,0,0,1,.49,2.22,4.71,4.71,0,0,1-.49,2.21,3.39,3.39,0,0,1-1.38,1.45,4.38,4.38,0,0,1-4.14,0Zm3.77-1.5a4.18,4.18,0,0,0,0-4.3,2,2,0,0,0-1.69-.76,2.07,2.07,0,0,0-1.71.76,4.09,4.09,0,0,0,0,4.3,2.33,2.33,0,0,0,3.41,0Z"/><path class="cls-5" d="M113.17,320.5v4.05a1.58,1.58,0,0,0,.36,1.17,1.4,1.4,0,0,0,1,.35,3.19,3.19,0,0,0,.85-.13v1.31a3.69,3.69,0,0,1-1.2.18,2.6,2.6,0,0,1-1.94-.71,2.85,2.85,0,0,1-.68-2.05V320.5H110v-1.25h1.57v-2l1.61-.56v2.58h2.23v1.25Z"/><path class="cls-5" d="M118.61,315.73v1.7h-1.87v-1.7Zm-1.73,3.52h1.6v8.06h-1.6Z"/><path class="cls-5" d="M122.93,318.35v.9h1.89v1.25h-1.89v6.81h-1.61V320.5h-1.56v-1.25h1.56v-1a2.8,2.8,0,0,1,.68-2.05,2.53,2.53,0,0,1,1.91-.71,4.3,4.3,0,0,1,1.17.16V317a3.1,3.1,0,0,0-.82-.13C123.38,316.83,122.93,317.34,122.93,318.35Z"/><path class="cls-5" d="M134.07,319.25,130.31,328a5,5,0,0,1-1.56,2.09,5.56,5.56,0,0,1-2.31.89l-.36-1.25a4.69,4.69,0,0,0,1.72-.67,2.76,2.76,0,0,0,.94-1.22l.29-.67-3.39-7.89h1.71l2.53,6.24,2.57-6.24Z"/><path class="cls-6" d="M267.1,365.27h-2V348a11.63,11.63,0,0,1,11.61-11.61h17.18v2H276.71A9.62,9.62,0,0,0,267.1,348Z"/><path class="cls-6" d="M293.89,433.41H276.71a11.62,11.62,0,0,1-11.61-11.6V404.62h2v17.19a9.62,9.62,0,0,0,9.61,9.6h17.18Z"/><path class="cls-6" d="M350.36,433.41H333.18v-2h17.18a9.62,9.62,0,0,0,9.6-9.6V404.62h2v17.19A11.61,11.61,0,0,1,350.36,433.41Z"/><path class="cls-6" d="M362,365.27h-2V348a9.62,9.62,0,0,0-9.6-9.61H333.18v-2h17.18A11.62,11.62,0,0,1,362,348Z"/><path class="cls-6" d="M316.92,395h-6.77a6.74,6.74,0,0,1-6.73-6.74v-6.76a6.74,6.74,0,0,1,6.73-6.73h6.77a6.74,6.74,0,0,1,6.73,6.73v6.76A6.74,6.74,0,0,1,316.92,395Zm-6.77-18.23a4.73,4.73,0,0,0-4.73,4.73v6.76a4.74,4.74,0,0,0,4.73,4.74h6.77a4.75,4.75,0,0,0,4.73-4.74v-6.76a4.74,4.74,0,0,0-4.73-4.73Z"/><path class="cls-6" d="M313.53,419.49a34.58,34.58,0,1,1,34.58-34.58A34.61,34.61,0,0,1,313.53,419.49Zm0-67.15a32.58,32.58,0,1,0,32.58,32.57A32.61,32.61,0,0,0,313.53,352.34Z"/><path class="cls-6" d="M313.53,361.46a10.12,10.12,0,1,1,10.12-10.12A10.13,10.13,0,0,1,313.53,361.46Zm0-18.23a8.12,8.12,0,1,0,8.12,8.11A8.12,8.12,0,0,0,313.53,343.23Z"/><path class="cls-6" d="M313.53,433.41a14.93,14.93,0,1,1,14.93-14.92A14.93,14.93,0,0,1,313.53,433.41Zm0-27.85a12.93,12.93,0,1,0,12.93,12.93A12.94,12.94,0,0,0,313.53,405.56Z"/><path class="cls-6" d="M280,399.84a14.93,14.93,0,1,1,14.93-14.93A14.94,14.94,0,0,1,280,399.84ZM280,372a12.93,12.93,0,1,0,12.93,12.92A12.94,12.94,0,0,0,280,372Z"/><path class="cls-6" d="M298.1,384.91h-2A16.16,16.16,0,0,0,280,368.77v-2A18.16,18.16,0,0,1,298.1,384.91Z"/><path class="cls-6" d="M347.11,399.84A14.93,14.93,0,1,1,362,384.91,14.94,14.94,0,0,1,347.11,399.84Zm0-27.85A12.93,12.93,0,1,0,360,384.91,12.94,12.94,0,0,0,347.11,372Z"/><path class="cls-6" d="M347.11,394a9.06,9.06,0,1,1,9.05-9.06A9.06,9.06,0,0,1,347.11,394Zm0-16.11a7.06,7.06,0,1,0,7.05,7.05A7.06,7.06,0,0,0,347.11,377.86Z"/><path class="cls-6" d="M285.73,318.31v8.06h-1.6V325a2.48,2.48,0,0,1-1,1.11,3.41,3.41,0,0,1-1.63.38,3.46,3.46,0,0,1-1.88-.51,3.3,3.3,0,0,1-1.25-1.45,5,5,0,0,1-.45-2.18,5.16,5.16,0,0,1,.45-2.21,3.53,3.53,0,0,1,1.28-1.49,3.34,3.34,0,0,1,1.85-.53,3.14,3.14,0,0,1,1.62.4,2.56,2.56,0,0,1,1.05,1.11v-1.31Zm-2.2,6.13a4.12,4.12,0,0,0,0-4.28,2.27,2.27,0,0,0-3.4,0,3.3,3.3,0,0,0-.62,2.15,3.2,3.2,0,0,0,.62,2.11,2.1,2.1,0,0,0,1.72.75A2,2,0,0,0,283.53,324.44Z"/><path class="cls-6" d="M295.11,318.31v8.06h-1.57V325a2.67,2.67,0,0,1-1.05,1.08,3.08,3.08,0,0,1-1.52.37q-2.93,0-2.92-3.23v-4.94h1.6v4.92a2.22,2.22,0,0,0,.41,1.47,1.57,1.57,0,0,0,1.24.47,2.07,2.07,0,0,0,1.59-.64,2.38,2.38,0,0,0,.6-1.7v-4.52Z"/><path class="cls-6" d="M299.57,319.55v4.05a1.59,1.59,0,0,0,.36,1.18,1.39,1.39,0,0,0,1,.34,2.83,2.83,0,0,0,.85-.13v1.32a4,4,0,0,1-1.2.17,2.55,2.55,0,0,1-1.93-.7,2.81,2.81,0,0,1-.69-2v-4.18h-1.57v-1.24H298v-2l1.61-.56v2.58h2.23v1.24Z"/><path class="cls-6" d="M304.68,326a3.5,3.5,0,0,1-1.39-1.46,4.79,4.79,0,0,1-.48-2.2,4.84,4.84,0,0,1,.48-2.22,3.5,3.5,0,0,1,1.39-1.46,4.38,4.38,0,0,1,4.14,0,3.5,3.5,0,0,1,1.39,1.46,4.84,4.84,0,0,1,.48,2.22,4.79,4.79,0,0,1-.48,2.2,3.5,3.5,0,0,1-1.39,1.46,4.46,4.46,0,0,1-4.14,0Zm3.77-1.5a4.17,4.17,0,0,0,0-4.31,2.3,2.3,0,0,0-3.4,0,4.14,4.14,0,0,0,0,4.31,2.36,2.36,0,0,0,3.41,0Z"/><path class="cls-6" d="M324.47,321.35v5h-1.62v-4.94a2.54,2.54,0,0,0-.36-1.52,1.35,1.35,0,0,0-1.16-.48,1.79,1.79,0,0,0-1.46.64,2.59,2.59,0,0,0-.54,1.74v4.56h-1.61v-4.94a2.54,2.54,0,0,0-.36-1.52,1.36,1.36,0,0,0-1.16-.48,1.81,1.81,0,0,0-1.47.64,2.54,2.54,0,0,0-.55,1.74v4.56h-1.6v-5.79a17.27,17.27,0,0,0-.13-2.27H314l.14,1.34a2.67,2.67,0,0,1,1-1.14,3,3,0,0,1,1.54-.4,2.34,2.34,0,0,1,2.44,1.56,2.82,2.82,0,0,1,1.08-1.14,3.12,3.12,0,0,1,1.61-.42C323.57,318.11,324.47,319.19,324.47,321.35Z"/><path class="cls-6" d="M334.17,318.31v8.06h-1.6V325a2.56,2.56,0,0,1-1.05,1.11,3.41,3.41,0,0,1-1.63.38A3.46,3.46,0,0,1,328,326a3.36,3.36,0,0,1-1.25-1.45,5,5,0,0,1-.45-2.18,5,5,0,0,1,.46-2.21,3.45,3.45,0,0,1,1.27-1.49,3.34,3.34,0,0,1,1.85-.53,3.14,3.14,0,0,1,1.62.4,2.64,2.64,0,0,1,1.06,1.11v-1.31Zm-2.2,6.13a4.12,4.12,0,0,0,0-4.28,2.28,2.28,0,0,0-3.41,0,3.36,3.36,0,0,0-.62,2.15,3.26,3.26,0,0,0,.62,2.11,2.1,2.1,0,0,0,1.72.75A2,2,0,0,0,332,324.44Z"/><path class="cls-6" d="M338.63,319.55v4.05a1.59,1.59,0,0,0,.36,1.18,1.38,1.38,0,0,0,1,.34,2.83,2.83,0,0,0,.85-.13v1.32a4,4,0,0,1-1.2.17,2.59,2.59,0,0,1-1.94-.7,2.81,2.81,0,0,1-.69-2v-4.18h-1.56v-1.24H337v-2l1.62-.56v2.58h2.22v1.24Z"/><path class="cls-6" d="M349.22,322.37h-5.76c.05,1.89.91,2.83,2.58,2.83a4,4,0,0,0,2.54-.91l.5,1.15a3.94,3.94,0,0,1-1.39.76,5.19,5.19,0,0,1-1.68.28,4.07,4.07,0,0,1-3-1.11,4.13,4.13,0,0,1-1.11-3.05,4.71,4.71,0,0,1,.49-2.19,3.53,3.53,0,0,1,1.37-1.49,3.81,3.81,0,0,1,2-.53,3.28,3.28,0,0,1,2.57,1.06,4.28,4.28,0,0,1,.93,2.93Zm-5-2.51a2.6,2.6,0,0,0-.73,1.55h4.27a2.48,2.48,0,0,0-.63-1.56,1.88,1.88,0,0,0-1.42-.54A2.11,2.11,0,0,0,344.26,319.86Z"/></g></g></svg>