<svg xmlns="http://www.w3.org/2000/svg" viewBox="0 0 97 97"><defs><style>.cls-1{fill:#00aeef;}</style></defs><g id="Layer_2" data-name="Layer 2"><g id="Layer_5" data-name="Layer 5"><path class="cls-1" d="M23.56,29.94V36.7a6.74,6.74,0,0,0,6.73,6.74h6.76a6.75,6.75,0,0,0,6.74-6.74V29.94a6.75,6.75,0,0,0-6.74-6.73H30.29A6.74,6.74,0,0,0,23.56,29.94Zm18.23,0V36.7a4.75,4.75,0,0,1-4.74,4.74H30.29a4.74,4.74,0,0,1-4.73-4.74V29.94a4.73,4.73,0,0,1,4.73-4.73h6.76A4.74,4.74,0,0,1,41.79,29.94Z"/><path class="cls-1" d="M84,0H59V2H84A11,11,0,0,1,95,13V84A11,11,0,0,1,84,95H13A11,11,0,0,1,2,84v-20H0V84A13,13,0,0,0,13,97H84A13,13,0,0,0,97,84V13A13,13,0,0,0,84,0Z"/><path class="cls-1" d="M33.32,66.64A33.27,33.27,0,0,0,57.87,55.83L84.65,82.62l1.42-1.41L59.18,54.31A33.31,33.31,0,1,0,33.32,66.64ZM33.32,2A31.32,31.32,0,1,1,2,33.32,31.36,31.36,0,0,1,33.32,2Z"/><path class="cls-1" d="M33.32,60A26.73,26.73,0,0,0,60,33.32H58a24.7,24.7,0,1,1-24.7-24.7v-2a26.7,26.7,0,0,0,0,53.4Z"/></g></g></svg>