<svg xmlns="http://www.w3.org/2000/svg" viewBox="0 0 97 97"><defs><style>.cls-1{fill:#00aeef;}</style></defs><g id="Layer_2" data-name="Layer 2"><g id="Layer_5" data-name="Layer 5"><path class="cls-1" d="M84,0H13A13,13,0,0,0,0,13V84A13,13,0,0,0,13,97H84A13,13,0,0,0,97,84V13A13,13,0,0,0,84,0ZM95,84A11,11,0,0,1,84,95H13A11,11,0,0,1,2,84V19.74H85.9v-1.8H2V13A11,11,0,0,1,13,2H84A11,11,0,0,1,95,13Z"/><path class="cls-1" d="M12.42,6.36a3.77,3.77,0,1,0,3.77,3.77A3.77,3.77,0,0,0,12.42,6.36Zm0,5.74a2,2,0,1,1,2-2A2,2,0,0,1,12.42,12.1Z"/><path class="cls-1" d="M22.82,6.36a3.77,3.77,0,1,0,3.77,3.77A3.77,3.77,0,0,0,22.82,6.36Zm0,5.74a2,2,0,1,1,2-2A2,2,0,0,1,22.82,12.1Z"/><path class="cls-1" d="M33.49,6.36a3.77,3.77,0,1,0,3.77,3.77A3.77,3.77,0,0,0,33.49,6.36Zm0,5.74a2,2,0,1,1,2-2A2,2,0,0,1,33.49,12.1Z"/><polygon class="cls-1" points="40.82 46.54 33.93 52.21 33.93 39.55 32.13 39.55 32.13 53.22 24.6 53.22 24.6 28.87 22.8 28.87 22.8 53.8 15.91 62.15 15.91 51.45 14.11 51.45 14.11 68.69 15.91 68.69 15.91 64.98 22.8 56.63 22.8 68.69 24.6 68.69 24.6 55.02 32.13 55.02 32.13 68.69 33.93 68.69 33.93 54.54 40.82 48.87 40.82 68.69 42.62 68.69 42.62 34.21 40.82 34.21 40.82 46.54"/><rect class="cls-1" x="14.48" y="74.98" width="23.93" height="1.8"/><rect class="cls-1" x="14.48" y="82.17" width="13.25" height="1.8"/><rect class="cls-1" x="56.04" y="74.98" width="23.93" height="1.8"/><rect class="cls-1" x="56.04" y="82.17" width="13.25" height="1.8"/><path class="cls-1" d="M70.28,35.12A13.52,13.52,0,1,0,83.8,48.64,13.54,13.54,0,0,0,70.28,35.12ZM82,47.74H71.18V37A11.72,11.72,0,0,1,82,47.74ZM70.28,60.36A11.71,11.71,0,0,1,69.38,37V49.54H82A11.72,11.72,0,0,1,70.28,60.36Z"/></g></g></svg>