<svg xmlns="http://www.w3.org/2000/svg" viewBox="0 0 97 97"><defs><style>.cls-1{fill:#00aeef;}</style></defs><g id="Layer_2" data-name="Layer 2"><g id="Layer_2-2" data-name="Layer 2"><path class="cls-1" d="M85.39.07H68.14v2H85.39A9.62,9.62,0,0,1,95,11.67V28.86h2V11.67A11.62,11.62,0,0,0,85.39.07Z"/><path class="cls-1" d="M2,11.67a9.62,9.62,0,0,1,9.6-9.6H28.79v-2H11.6A11.62,11.62,0,0,0,0,11.67V28.86H2Z"/><path class="cls-1" d="M2,85.33V68.14H0V85.33a11.62,11.62,0,0,0,11.6,11.6H28.79v-2H11.6A9.62,9.62,0,0,1,2,85.33Z"/><path class="cls-1" d="M95,85.33a9.62,9.62,0,0,1-9.61,9.6H68.14v2H85.39A11.62,11.62,0,0,0,97,85.33V68.14H95Z"/><path class="cls-1" d="M82.07,33.57A14.94,14.94,0,0,0,67.19,47.5H58.61V45.12a6.74,6.74,0,0,0-6.73-6.73H49.5V33A18.16,18.16,0,0,0,66.64,14.93h-2A16.16,16.16,0,0,1,48.5,31.07h-1v7.32H45.12a6.74,6.74,0,0,0-6.74,6.73V47.5H29.8a10.11,10.11,0,1,0,0,2h8.58v2.38a6.74,6.74,0,0,0,6.74,6.73H47.5v8.58a14.92,14.92,0,1,0,2,0V58.61h2.38a6.74,6.74,0,0,0,6.73-6.73V49.5h8.58A14.92,14.92,0,1,0,82.07,33.57Zm-62.33,23a8.11,8.11,0,1,1,8.11-8.11A8.12,8.12,0,0,1,19.74,56.61ZM49.5,75.09a7.06,7.06,0,1,1-2,0v7h2Zm11.92,7A12.93,12.93,0,1,1,47.5,69.19v3.88a9.05,9.05,0,1,0,2,0V69.19A12.94,12.94,0,0,1,61.42,82.07ZM56.61,51.88a4.73,4.73,0,0,1-4.73,4.73H45.12a4.74,4.74,0,0,1-4.74-4.73V45.12a4.74,4.74,0,0,1,4.74-4.73H47.5V48.5h2V40.39h2.38a4.73,4.73,0,0,1,4.73,4.73Zm25.46,9.55A12.94,12.94,0,0,1,69.19,49.5H82.07v-2H69.19A12.92,12.92,0,1,1,82.07,61.43Z"/><path class="cls-1" d="M48.5,29.86A14.93,14.93,0,1,0,33.57,14.93,14.94,14.94,0,0,0,48.5,29.86ZM48.5,2A12.93,12.93,0,1,1,35.57,14.93,12.94,12.94,0,0,1,48.5,2Z"/></g></g></svg>