<svg xmlns="http://www.w3.org/2000/svg" viewBox="0 0 96.89 97"><defs><style>.cls-1{fill:#00aeef;}</style></defs><g id="Layer_2" data-name="Layer 2"><g id="Layer_2-2" data-name="Layer 2"><path class="cls-1" d="M85.28,0H11.61A11.63,11.63,0,0,0,0,11.61V84A13,13,0,0,0,13,97H83.89a13,13,0,0,0,13-13V11.61A11.63,11.63,0,0,0,85.28,0Zm9.61,75.32V84a11,11,0,0,1-11,11H13A11,11,0,0,1,2,84V32.82a11,11,0,0,1,11-11H83.89a11,11,0,0,1,11,11v42.5Zm-11-55.5H13a13,13,0,0,0-11,6.1V21.35a9.62,9.62,0,0,1,9.61-9.61H85.28a9.62,9.62,0,0,1,9.61,9.61v4.57A13,13,0,0,0,83.89,19.82ZM85.28,9.74H11.61A11.62,11.62,0,0,0,2,14.84V11.61A9.62,9.62,0,0,1,11.61,2H85.28a9.62,9.62,0,0,1,9.61,9.61v3.23A11.62,11.62,0,0,0,85.28,9.74Z"/><path class="cls-1" d="M77.19,88.25a9.46,9.46,0,0,1,0-18.91v-2A11.46,11.46,0,1,0,88.65,78.79h-2A9.47,9.47,0,0,1,77.19,88.25Z"/><rect class="cls-1" x="11.34" y="57.41" width="52.06" height="2"/><rect class="cls-1" x="11.34" y="42.03" width="76.31" height="2"/><rect class="cls-1" x="11.34" y="72.36" width="37.1" height="2"/><polygon class="cls-1" points="76.4 81.67 72.81 78.08 71.4 79.5 76.4 84.5 91.99 68.92 90.57 67.5 76.4 81.67"/></g></g></svg>