<svg xmlns="http://www.w3.org/2000/svg" viewBox="0 0 97 97"><defs><style>.cls-1{fill:#292728;}</style></defs><title>Home_Icon_3_1</title><g id="Layer_2" data-name="Layer 2"><g id="Layer_2-2" data-name="Layer 2"><path class="cls-1" d="M84,0H13A13,13,0,0,0,0,13V84A13,13,0,0,0,13,97H84A13,13,0,0,0,97,84V13A13,13,0,0,0,84,0ZM95,13V47.5H83.26a11,11,0,0,0-21.86,0H49.5V33.65h-1a9,9,0,0,1-1-17.9V21.7h2V2H84A11,11,0,0,1,95,13ZM13,2H47.5V13.75a11,11,0,0,0,0,21.85V47.5H33.65v1a9,9,0,0,1-17.9,1H20.9v-2H2V13A11,11,0,0,1,13,2ZM2,84V49.5H13.75a11,11,0,0,0,21.85,0H47.5V63.35h1a9,9,0,0,1,1,17.9v-8.6h-2V95H40.92V68.15a3.83,3.83,0,1,0-2-.14V95H13A11,11,0,0,1,2,84ZM40.15,66.23a1.8,1.8,0,1,1,1.8-1.8A1.81,1.81,0,0,1,40.15,66.23ZM84,95H49.5V83.25a11,11,0,0,0,0-21.85V49.5H63.35v-1a9,9,0,1,1,17.95,0v1H95V84A11,11,0,0,1,84,95Z"/><path class="cls-1" d="M71.12,33.72A9.11,9.11,0,1,0,62,24.61,9.12,9.12,0,0,0,71.12,33.72Zm0-16.22A7.11,7.11,0,1,1,64,24.61,7.12,7.12,0,0,1,71.12,17.5Z"/></g></g></svg>