<svg xmlns="http://www.w3.org/2000/svg" viewBox="0 0 109.36 109.36"><defs><style>.cls-1{fill:#3c3c3c;}</style></defs><title>connect_1</title><g id="Layer_2" data-name="Layer 2"><g id="Layer_5" data-name="Layer 5"><path class="cls-1" d="M96.36,0H13A13,13,0,0,0,0,13V96.36a13,13,0,0,0,13,13H96.36a13,13,0,0,0,13-13V13A13,13,0,0,0,96.36,0ZM2,13A11,11,0,0,1,13,2H53.68V15.53a12.27,12.27,0,0,0,0,24.45v13.7H38v1a10.27,10.27,0,0,1-20.49,1h6v-2H2ZM53.68,84.25v23.11H46V71.8a1.79,1.79,0,1,0-2,0v35.56H13a11,11,0,0,1-11-11V55.68H15.53a12.26,12.26,0,0,0,24.45,0h13.7V71.34h1a10.27,10.27,0,0,1,1,20.5V84.25a1.79,1.79,0,1,0-2.79-1.48A1.81,1.81,0,0,0,53.68,84.25Zm53.68,12.11a11,11,0,0,1-11,11H55.68V93.84a12.27,12.27,0,0,0,0-24.46V55.68H71.34v-1a10.28,10.28,0,0,1,20.55,0v1h15.47Zm0-42.68H93.85a12.28,12.28,0,0,0-24.47,0H55.68V38h-1a10.27,10.27,0,0,1-1-20.49V24.4h2V2H96.36a11,11,0,0,1,11,11Z"/><path class="cls-1" d="M13,10.57a1.79,1.79,0,1,0,1.79,1.79A1.79,1.79,0,0,0,13,10.57Z"/><path class="cls-1" d="M13,19a1.8,1.8,0,1,0,1.79,1.8A1.8,1.8,0,0,0,13,19Z"/><path class="cls-1" d="M98.71,100.24a1.79,1.79,0,1,0-1.79-1.79A1.79,1.79,0,0,0,98.71,100.24Z"/><path class="cls-1" d="M98.71,89.13a1.79,1.79,0,1,0-1.79-1.79A1.79,1.79,0,0,0,98.71,89.13Z"/></g></g></svg>