<svg xmlns="http://www.w3.org/2000/svg" width="100.701" height="100.701" viewBox="0 0 100.701 100.701"><defs><style>.a{fill:#414042;}</style></defs><path class="a" d="M88.383,0H12.318A12.337,12.337,0,0,0,0,12.318V88.383A12.328,12.328,0,0,0,12.318,100.7H88.383A12.328,12.328,0,0,0,100.7,88.383V12.318A12.328,12.328,0,0,0,88.383,0Zm9.581,12.318V48.982H86.5a11.652,11.652,0,0,0-23.15,0H51.719V34.674H50.351a8.915,8.915,0,0,1-1.369-17.72V22.7h2.737V2.737H88.383a9.59,9.59,0,0,1,9.581,9.581ZM12.318,2.737H48.982v11.47a11.652,11.652,0,0,0,0,23.15V48.982H34.674v1.369a8.915,8.915,0,0,1-17.72,1.369H21.9V48.982H2.737V12.318a9.59,9.59,0,0,1,9.581-9.581ZM2.737,88.383V51.719h11.47a11.652,11.652,0,0,0,23.15,0H48.982V66.009h1.369a8.915,8.915,0,0,1,1.369,17.72V77.561a2.09,2.09,0,1,0-2.737,0V97.982h-6.1v-31.8a2.09,2.09,0,1,0-2.737,0V97.964H12.318a9.59,9.59,0,0,1-9.581-9.581ZM40.861,64.658a.648.648,0,1,1,1.3,0ZM88.383,98.009H51.719V86.494a11.652,11.652,0,0,0,0-23.14V51.719H66.009V50.351a8.924,8.924,0,0,1,17.839,0v1.369H97.964V88.383a9.59,9.59,0,0,1-9.581,9.581Z"/><path class="a" d="M13.34,14.749a2.09,2.09,0,1,0-2.09-2.09,2.09,2.09,0,0,0,2.09,2.09Zm0-2.737a.648.648,0,1,1-.648.648A.648.648,0,0,1,13.34,12.012Z" transform="translate(-0.985 -0.925)"/><path class="a" d="M13.34,23.217a2.1,2.1,0,1,0-2.09-2.09,2.1,2.1,0,0,0,2.09,2.09Zm0-2.737a.648.648,0,1,1-.648.648.648.648,0,0,1,.648-.648Z" transform="translate(-0.985 -1.665)"/><path class="a" d="M99.01,96.66a2.1,2.1,0,1,0,1.491.631,2.089,2.089,0,0,0-1.491-.631Zm0,2.737a.648.648,0,1,1,.648-.648.648.648,0,0,1-.648.648Z" transform="translate(-8.483 -8.46)"/><path class="a" d="M99.01,73.54a2.09,2.09,0,1,0,2.09,2.09,2.09,2.09,0,0,0-2.09-2.09Zm0,2.737a.648.648,0,1,1,.648-.648.648.648,0,0,1-.648.648Z" transform="translate(-8.483 -6.436)"/><path class="a" d="M99.01,85.55a2.09,2.09,0,1,0,2.09,2.09A2.09,2.09,0,0,0,99.01,85.55Zm0,2.737a.648.648,0,1,1,.648-.648.648.648,0,0,1-.648.648Z" transform="translate(-8.483 -7.487)"/><rect class="a" width="2.737" height="4.836" transform="translate(80.243 31.636)"/><rect class="a" width="4.836" height="2.737" transform="translate(88.492 41.983)"/><rect class="a" width="4.836" height="2.737" transform="translate(85.519 37.525) rotate(-45)"/></svg>