<svg xmlns="http://www.w3.org/2000/svg" viewBox="0 0 96.89 97"><defs><style>.cls-1{fill:#da1684;}</style></defs><g id="Layer_2" data-name="Layer 2"><g id="Layer_5" data-name="Layer 5"><path class="cls-1" d="M75.83,85.49a6.32,6.32,0,1,1,0-12.63v-2a8.32,8.32,0,1,0,8.31,8.32h-2A6.32,6.32,0,0,1,75.83,85.49Z"/><polygon class="cls-1" points="75.7 79.68 73 76.97 71.58 78.38 75.7 82.5 84.99 73.22 83.57 71.81 75.7 79.68"/><path class="cls-1" d="M85.28,0H11.61A11.63,11.63,0,0,0,0,11.61V84A13,13,0,0,0,13,97H83.89a13,13,0,0,0,13-13V11.61A11.63,11.63,0,0,0,85.28,0Zm9.61,65.58V84a11,11,0,0,1-11,11H13A11,11,0,0,1,2,84V11.61A9.62,9.62,0,0,1,11.61,2H85.28a9.62,9.62,0,0,1,9.61,9.61v54Z"/><path class="cls-1" d="M21.58,43.76A3.8,3.8,0,1,0,25,49.09H39.66v-2H25.33A3.8,3.8,0,0,0,21.58,43.76Zm0,5.59a1.8,1.8,0,1,1,1.79-1.79A1.79,1.79,0,0,1,21.58,49.35Z"/><path class="cls-1" d="M49.67,26.86a3.77,3.77,0,0,0,3.6-2.68h31v-2H53.35a3.79,3.79,0,1,0-3.68,4.68Zm0-5.59a1.8,1.8,0,1,1-1.8,1.79A1.79,1.79,0,0,1,49.67,21.27Z"/><path class="cls-1" d="M12.74,22.78a1.28,1.28,0,0,1,.35.5,2.23,2.23,0,0,1,.14.84v3.75a3.41,3.41,0,0,0,.83,2.43,2.89,2.89,0,0,0,2.24.9h1.84V28.84H17.09c-.44,0-.72-.14-.84-.43a2.17,2.17,0,0,1-.2-.92V23.83a2.89,2.89,0,0,0-.22-1.22,2.42,2.42,0,0,0-.55-.78,2.37,2.37,0,0,0-.68-.42,2.24,2.24,0,0,0-.63-.16V21.2A1.79,1.79,0,0,0,14.6,21a2.71,2.71,0,0,0,.68-.44,2.44,2.44,0,0,0,.55-.76,2.47,2.47,0,0,0,.22-1.11V15a2.21,2.21,0,0,1,.2-.92.82.82,0,0,1,.84-.43h1.05V11.26H16.3a2.92,2.92,0,0,0-2.24.89,3.41,3.41,0,0,0-.83,2.43v3.84a2,2,0,0,1-.14.79,1.15,1.15,0,0,1-.83.71,2,2,0,0,1-.54.07v2.47a2,2,0,0,1,.54.07A1.11,1.11,0,0,1,12.74,22.78Z"/><path class="cls-1" d="M17.12,78a1.32,1.32,0,0,1-.35-.51,2.25,2.25,0,0,1-.13-.84V72.92a3.46,3.46,0,0,0-.83-2.43,3,3,0,0,0-2.25-.9H11.72V72h1.06a.82.82,0,0,1,.84.43,2.17,2.17,0,0,1,.19.92V77A2.89,2.89,0,0,0,14,78.18a2.36,2.36,0,0,0,.55.78,2.32,2.32,0,0,0,.69.43,2.18,2.18,0,0,0,.63.15v0a1.79,1.79,0,0,0-.63.18,2.4,2.4,0,0,0-.69.45A2.43,2.43,0,0,0,14,81a2.53,2.53,0,0,0-.22,1.11v3.75a2.17,2.17,0,0,1-.19.92.82.82,0,0,1-.84.43H11.72v2.36h1.84a2.92,2.92,0,0,0,2.25-.9,3.46,3.46,0,0,0,.83-2.43V82.37a2,2,0,0,1,.13-.78,1.31,1.31,0,0,1,.35-.49,1.19,1.19,0,0,1,.48-.23,2,2,0,0,1,.54-.07V78.33a2,2,0,0,1-.54-.07A1.09,1.09,0,0,1,17.12,78Z"/><rect class="cls-1" x="18.74" y="35.69" width="65.54" height="2"/><rect class="cls-1" x="18.74" y="58.43" width="65.54" height="2"/></g></g></svg>