<svg xmlns="http://www.w3.org/2000/svg" viewBox="0 0 97 97"><defs><style>.cls-1{fill:#da1684;}</style></defs><g id="Layer_2" data-name="Layer 2"><g id="Layer_2-2" data-name="Layer 2"><path class="cls-1" d="M85.65,0H59.31V2H85.65A9.37,9.37,0,0,1,95,11.35V33.09h2V11.35A11.36,11.36,0,0,0,85.65,0Z"/><path class="cls-1" d="M2,11.35A9.37,9.37,0,0,1,11.35,2h24V0h-24A11.36,11.36,0,0,0,0,11.35V33.09H2Z"/><path class="cls-1" d="M2,85.65H0A11.36,11.36,0,0,0,11.35,97h24V95h-24A9.37,9.37,0,0,1,2,85.65Z"/><path class="cls-1" d="M85.65,95H59.31v2H85.65A11.36,11.36,0,0,0,97,85.65H95A9.37,9.37,0,0,1,85.65,95Z"/><path class="cls-1" d="M48.5,28.85A19.65,19.65,0,1,0,68.15,48.5,19.67,19.67,0,0,0,48.5,28.85Zm0,37.3A17.65,17.65,0,1,1,66.15,48.5,17.67,17.67,0,0,1,48.5,66.15Z"/><path class="cls-1" d="M87.81,39.31h-.07A40.27,40.27,0,0,0,57.68,9.26a.17.17,0,0,0,0-.07,9.19,9.19,0,1,0-18.38,0v.07A40.26,40.26,0,0,0,9.25,39.35a9.18,9.18,0,0,0,0,18.3A40.26,40.26,0,0,0,39.31,87.74v.07a9.19,9.19,0,0,0,18.38,0,.17.17,0,0,0,0-.07,40.27,40.27,0,0,0,30.06-30h.07a9.19,9.19,0,0,0,0-18.38ZM48.5,2a7.19,7.19,0,1,1-7.19,7.19A7.2,7.2,0,0,1,48.5,2ZM2.84,48.5A7.19,7.19,0,1,1,10,55.69,7.2,7.2,0,0,1,2.84,48.5ZM48.5,95a7.19,7.19,0,1,1,7.19-7.19A7.2,7.2,0,0,1,48.5,95Zm8.94-9.26a9.17,9.17,0,0,0-17.88,0A38.25,38.25,0,0,1,11.3,57.59a9.18,9.18,0,0,0,0-18.18A38.25,38.25,0,0,1,39.56,11.26a9.17,9.17,0,0,0,17.88,0,38.27,38.27,0,0,1,28.3,28.3,9.17,9.17,0,0,0,0,17.88A38.26,38.26,0,0,1,57.44,85.74Zm30.37-30A7.19,7.19,0,1,1,95,48.5,7.2,7.2,0,0,1,87.81,55.69Z"/><path class="cls-1" d="M24.94,91.31l.42-2A22.92,22.92,0,0,1,7.65,71.64l-2,.42A25,25,0,0,0,24.94,91.31Z"/><path class="cls-1" d="M89.29,25.42l2-.42A25,25,0,0,0,72,5.75l-.42,2A22.92,22.92,0,0,1,89.29,25.42Z"/></g></g></svg>