<svg xmlns="http://www.w3.org/2000/svg" viewBox="0 0 96.89 97"><defs><style>.cls-1{fill:#da1684;}</style></defs><g id="Layer_2" data-name="Layer 2"><g id="Layer_5" data-name="Layer 5"><path class="cls-1" d="M90.6,60.06a11.46,11.46,0,0,0-22.88-1A21.25,21.25,0,0,0,49.44,71.35V43.21h-2V71.35a21.27,21.27,0,0,0-12.8-11.29h1A17.87,17.87,0,0,0,17.75,42.21v2A15.85,15.85,0,0,1,33.58,59.77a21.34,21.34,0,0,0-4.41-.67,11.48,11.48,0,1,0,0,2A19.24,19.24,0,0,1,47.44,80.29V95H28.21v2H68.67V95H49.44V80.29A19.25,19.25,0,0,1,67.73,61.1a11.46,11.46,0,0,0,22.87-1ZM17.75,69.52a9.47,9.47,0,1,1,9.46-9.46A9.48,9.48,0,0,1,17.75,69.52ZM79.14,50.59a9.48,9.48,0,0,1,9.41,8.47H69.73A9.48,9.48,0,0,1,79.14,50.59Zm0,18.93a9.47,9.47,0,0,1-9.41-8.46H88.55A9.47,9.47,0,0,1,79.14,69.52Z"/><path class="cls-1" d="M48.44,43.17A17.28,17.28,0,1,0,31.17,25.89,17.3,17.3,0,0,0,48.44,43.17Zm0-32.55A15.28,15.28,0,1,1,33.17,25.89,15.29,15.29,0,0,1,48.44,10.62Z"/><path class="cls-1" d="M48.44,35.73a9.85,9.85,0,0,0,9.84-9.84h-2a7.85,7.85,0,0,1-7.84,7.84Z"/><path class="cls-1" d="M48.44,18.06v-2a9.84,9.84,0,0,0-9.83,9.83h2A7.84,7.84,0,0,1,48.44,18.06Z"/><path class="cls-1" d="M85.28,0H11.61A11.63,11.63,0,0,0,0,11.61V84A13,13,0,0,0,13,97V95A11,11,0,0,1,2,84V11.61A9.62,9.62,0,0,1,11.61,2H85.28a9.62,9.62,0,0,1,9.61,9.61V84a11,11,0,0,1-11,11v2a13,13,0,0,0,13-13V11.61A11.63,11.63,0,0,0,85.28,0Z"/></g></g></svg>