<svg xmlns="http://www.w3.org/2000/svg" viewBox="0 0 96.87 97"><defs><style>.cls-1{fill:#da1684;}</style></defs><g id="Layer_2" data-name="Layer 2"><g id="Layer_2-2" data-name="Layer 2"><path class="cls-1" d="M94.86,11.61V51.66h2v-40A11.62,11.62,0,0,0,85.26,0H45.21V2H85.26A9.62,9.62,0,0,1,94.86,11.61Z"/><path class="cls-1" d="M2,85.4V34.57H0V85.4A11.61,11.61,0,0,0,11.6,97H46V95H11.6A9.62,9.62,0,0,1,2,85.4Z"/><path class="cls-1" d="M81.94,67.14A15,15,0,0,0,67.06,81.08H57.18a11.2,11.2,0,0,0-22.31,0H25V78.69A6.65,6.65,0,0,0,24,75L51.86,47.12a22.3,22.3,0,0,0,14.71,5.54v-2A20.39,20.39,0,0,1,46.21,30.3h-2a22.26,22.26,0,0,0,6.21,15.43l-27.8,27.8A6.69,6.69,0,0,0,18.31,72H15.93V29.81a14.93,14.93,0,1,0-2,0V72H11.55a6.74,6.74,0,0,0-6.74,6.73v6.77a6.74,6.74,0,0,0,6.74,6.73h6.76A6.74,6.74,0,0,0,25,85.46V83.08h9.83a11.2,11.2,0,0,0,22.31,0h9.88A14.92,14.92,0,1,0,81.94,67.14ZM2,14.93A12.93,12.93,0,1,1,15.93,27.81V14.9h-2V27.81A13,13,0,0,1,2,14.93ZM23,85.46a4.73,4.73,0,0,1-4.73,4.73H11.55a4.74,4.74,0,0,1-4.74-4.73V78.69A4.74,4.74,0,0,1,11.55,74h6.76A4.73,4.73,0,0,1,23,78.69ZM46,72.87a9.22,9.22,0,0,1,9.15,8.21H36.88A9.22,9.22,0,0,1,46,72.87Zm0,18.41a9.22,9.22,0,0,1-9.15-8.2h18.3A9.23,9.23,0,0,1,46,91.28ZM81.94,95A12.94,12.94,0,0,1,69.06,83.08H81.94v-2H69.06A12.92,12.92,0,1,1,81.94,95Z"/><path class="cls-1" d="M48.21,30.3A18.36,18.36,0,1,0,66.57,11.94,18.38,18.38,0,0,0,48.21,30.3Zm34.72,0A16.36,16.36,0,1,1,66.57,13.94,16.37,16.37,0,0,1,82.93,30.3Z"/></g></g></svg>