<svg xmlns="http://www.w3.org/2000/svg" viewBox="0 0 114 115.39"><defs><style>.cls-1{fill:#f1f2f2;}</style></defs><title>inspec_icon3</title><g id="Layer_2" data-name="Layer 2"><g id="Layer_5" data-name="Layer 5"><path class="cls-1" d="M101,47.06H97.6a13,13,0,0,0-13,13v.81H73.87A16.89,16.89,0,0,0,58,44.9v-6a19.46,19.46,0,1,0-2,0v6a16.91,16.91,0,0,0-15.87,16H29.4v-.81a13,13,0,0,0-13-13H13a13,13,0,0,0-13,13v3.4a13,13,0,0,0,13,13h3.4a13,13,0,0,0,12-8A29.43,29.43,0,0,0,56,91.12v1.67a11.32,11.32,0,1,0,2,0V78.63A16.91,16.91,0,0,0,73.86,62.87H84.6v.59a13,13,0,0,0,13,13H101a13,13,0,0,0,13-13v-3.4A13,13,0,0,0,101,47.06ZM39.54,19.46A17.46,17.46,0,1,1,58,36.87V22.14l5,5,1.41-1.41-7.45-7.45-7.44,7.45,1.41,1.41L56,22V36.87A17.47,17.47,0,0,1,39.54,19.46Zm-23.14,55H13a11,11,0,0,1-11-11v-3.4a11,11,0,0,1,11-11h3.4a11,11,0,0,1,11,11v.81H17.12l5-5-1.41-1.41-7.45,7.44,7.45,7.45,1.41-1.41-5-5H27.4v.59A11,11,0,0,1,16.4,74.46ZM29.65,62.87H40.14A16.92,16.92,0,0,0,56,78.63V89.12A27.4,27.4,0,0,1,29.65,62.87ZM56,101.76l-4.9-4.9A9.11,9.11,0,0,1,56,94.8Zm10.32,2.3A9.32,9.32,0,1,1,49.7,98.29l7.22,7.22,7.32-7.31A9.26,9.26,0,0,1,66.32,104.06Zm-3.5-7.27L58,101.6V94.8A9.27,9.27,0,0,1,62.82,96.79ZM57,76.68A14.92,14.92,0,1,1,71.92,61.76,14.94,14.94,0,0,1,57,76.68Zm55-13.22a11,11,0,0,1-11,11H97.6a11,11,0,0,1-11-11v-.59H96.73l-5,5,1.41,1.41,7.45-7.45-7.45-7.44L91.7,55.84l5,5H86.6v-.81a11,11,0,0,1,11-11H101a11,11,0,0,1,11,11Z"/><path class="cls-1" d="M57,68.09a1.7,1.7,0,1,0,1.7,1.7A1.7,1.7,0,0,0,57,68.09Z"/><path class="cls-1" d="M105.83,53.26a1.7,1.7,0,1,0,1.7,1.7A1.7,1.7,0,0,0,105.83,53.26Z"/><path class="cls-1" d="M57,13.64a1.7,1.7,0,1,0-1.7-1.7A1.7,1.7,0,0,0,57,13.64Z"/></g></g></svg>