<svg xmlns="http://www.w3.org/2000/svg" viewBox="0 0 114 115.39"><defs><style>.cls-1{fill:#f1f2f2;}</style></defs><title>inspec_icon1</title><g id="Layer_2" data-name="Layer 2"><g id="Layer_5" data-name="Layer 5"><path class="cls-1" d="M101,47.06H97.73a43.26,43.26,0,0,0-7.4-12.9h7.24v-2h-9a43.54,43.54,0,0,0-12.43-9.23,18.9,18.9,0,0,0,.33-3.47,19.46,19.46,0,1,0-38.92,0,18.9,18.9,0,0,0,.33,3.47,43.63,43.63,0,0,0-12.42,9.23H16.72v2h7a43.26,43.26,0,0,0-7.4,12.9H13a13,13,0,0,0-13,13v3.4a13,13,0,0,0,13,13h3.27a43.44,43.44,0,0,0,7.4,12.91h-7v2h8.73A43.36,43.36,0,0,0,45.7,103.56c0,.17,0,.33,0,.5a11.32,11.32,0,1,0,22.64,0c0-.17,0-.33,0-.5A43.4,43.4,0,0,0,88.56,91.37h9v-2H90.33a43.44,43.44,0,0,0,7.4-12.91H101a13,13,0,0,0,13-13v-3.4A13,13,0,0,0,101,47.06ZM96.32,74.38A11,11,0,0,1,86.6,63.46v-3.4a11,11,0,0,1,9.72-10.92,41.21,41.21,0,0,1,0,25.24ZM39.54,19.46a17.46,17.46,0,1,1,34.92,0,17,17,0,0,1-.21,2.59,43.24,43.24,0,0,0-34.5,0A18.34,18.34,0,0,1,39.54,19.46ZM58,61.76V39a22.84,22.84,0,1,1-2,0V61.76Zm15.83-37.7a17.44,17.44,0,0,1-33.66,0,41.14,41.14,0,0,1,33.66,0ZM15.7,61.76a41.15,41.15,0,0,1,2-12.62A11,11,0,0,1,27.4,60.06v3.4a11,11,0,0,1-9.72,10.92A41.15,41.15,0,0,1,15.7,61.76ZM13,74.46a11,11,0,0,1-11-11v-3.4a11,11,0,0,1,11-11h2.6a43.39,43.39,0,0,0,0,25.4Zm53.32,29.6a9.32,9.32,0,1,1-18.64,0v0a43.09,43.09,0,0,0,18.64,0Zm-18.41-2a9.32,9.32,0,0,1,18.19,0,41.06,41.06,0,0,1-18.19,0ZM68,101.55a11.31,11.31,0,0,0-22.06,0A41.27,41.27,0,0,1,27.25,90.36V80.83h-2v7.31a41.23,41.23,0,0,1-6.9-11.84,13,13,0,0,0,11-12.84v-3.4a13,13,0,0,0-11-12.84,41.37,41.37,0,0,1,6.9-11.84v7.31h2V33.16a41.59,41.59,0,0,1,11.09-8.22A19.54,19.54,0,0,0,50.51,37.79a24.84,24.84,0,1,0,13,0A19.51,19.51,0,0,0,75.66,24.94,41.29,41.29,0,0,1,87,33.46v9.23h2V35.74a41.34,41.34,0,0,1,6.61,11.48A13,13,0,0,0,84.6,60.06v3.4A13,13,0,0,0,95.65,76.3,41.25,41.25,0,0,1,89,87.79v-7H87v9.23A41.28,41.28,0,0,1,68,101.55Zm44-38.09a11,11,0,0,1-11,11H98.4a43.39,43.39,0,0,0,0-25.4H101a11,11,0,0,1,11,11Z"/><path class="cls-1" d="M105.83,53.26a1.7,1.7,0,1,0,1.7,1.7A1.7,1.7,0,0,0,105.83,53.26Z"/><path class="cls-1" d="M55.3,65.83a1.7,1.7,0,1,0,1.7-1.7A1.7,1.7,0,0,0,55.3,65.83Z"/><path class="cls-1" d="M58.7,11.94a1.7,1.7,0,1,0-1.7,1.7A1.7,1.7,0,0,0,58.7,11.94Z"/></g></g></svg>