<svg xmlns="http://www.w3.org/2000/svg" viewBox="0 0 99.92 115.39"><defs><style>.cls-1{fill:#f1f2f2;}</style></defs><title>inspec_icon2</title><g id="Layer_2" data-name="Layer 2"><g id="Layer_5" data-name="Layer 5"><path class="cls-1" d="M86.92,78H82.24V48.41A14.31,14.31,0,1,0,67.9,29a34.15,34.15,0,1,0,0,10.29,14.31,14.31,0,0,0,12.34,9.12v6.32L80,54.5,53.34,81.17A13,13,0,0,0,44.89,78H33.54a13,13,0,0,0-13,13v11.36a13,13,0,0,0,13,13H44.89a13,13,0,0,0,13-13V91a13,13,0,0,0-3.14-8.45L80.24,57.09V78H75.57a13,13,0,0,0-13,13v11.36a13,13,0,0,0,13,13H86.92a13,13,0,0,0,13-13V91A13,13,0,0,0,86.92,78Zm-31,13v11.36a11,11,0,0,1-11,11H33.54a11,11,0,0,1-11-11V91a11,11,0,0,1,11-11H44.89a10.93,10.93,0,0,1,7,2.55L40.21,94.29V84.41h-2v13.3h13.3v-2H41.63L53.34,84A11,11,0,0,1,55.89,91ZM34.14,2A32.17,32.17,0,0,1,66.26,33.14h-6.4a13.12,13.12,0,0,0-20-10.21A21.47,21.47,0,0,0,5.23,20.12,32.15,32.15,0,0,1,34.14,2Zm5.09,23.92A19.2,19.2,0,0,1,41,33.14H35.64A11.15,11.15,0,0,1,39.23,25.92Zm-5.59,7.22H18.06l7-7-1.41-1.41-9.41,9.4,9.41,9.41,1.41-1.42-7-7H33.64a13.11,13.11,0,0,0,4.62,9,19.53,19.53,0,1,1,0-20.08A13.14,13.14,0,0,0,33.64,33.14Zm2,2H41a19.29,19.29,0,0,1-1.79,7.23A11.15,11.15,0,0,1,35.64,35.14Zm7.38,0H57.86A11.17,11.17,0,0,1,46.75,45.3a11.05,11.05,0,0,1-5.89-1.7A21.42,21.42,0,0,0,43,35.14Zm0-2a21.5,21.5,0,0,0-2.16-8.46A11.05,11.05,0,0,1,46.75,23,11.18,11.18,0,0,1,57.86,33.14ZM34.14,66.29A32.17,32.17,0,0,1,5.23,48.17a21.46,21.46,0,0,0,34.66-2.82,13,13,0,0,0,6.86,1.95A13.17,13.17,0,0,0,59.86,35.14h6.4A32.18,32.18,0,0,1,34.14,66.29ZM69,35.14H81.24v-2H69a12.32,12.32,0,1,1,0,2Zm28.94,67.25a11,11,0,0,1-11,11H75.57a11,11,0,0,1-11-11V91a11,11,0,0,1,11-11h4.67V94.29l-7-7-1.41,1.42,9.4,9.4,9.41-9.4L89.23,87.3l-7,7V80h4.68a11,11,0,0,1,11,11Z"/><path class="cls-1" d="M86.75,36a1.9,1.9,0,1,0-1.91-1.9A1.91,1.91,0,0,0,86.75,36Z"/><path class="cls-1" d="M8.27,32.24a1.9,1.9,0,1,0,1.91,1.9A1.91,1.91,0,0,0,8.27,32.24Z"/><path class="cls-1" d="M34.14,99.88a1.9,1.9,0,1,0,1.9,1.9A1.9,1.9,0,0,0,34.14,99.88Z"/></g></g></svg>