<svg xmlns="http://www.w3.org/2000/svg" viewBox="0 0 110.52 115.37"><defs><style>.cls-1{fill:#f1f2f2;}</style></defs><title>inspec_icon4</title><g id="Layer_2" data-name="Layer 2"><g id="Layer_5" data-name="Layer 5"><path class="cls-1" d="M27.94,66.6H45.07v-2H27.94A12.59,12.59,0,0,1,15.49,53.72,14.5,14.5,0,0,0,29.13,39.31,26.92,26.92,0,0,0,52,53.82v5h2v-5A26.93,26.93,0,1,0,26.39,30.71a15.34,15.34,0,0,0-1.52-1.81,14.57,14.57,0,1,0-11.4,24.81A14.58,14.58,0,0,0,27.94,66.6ZM35.41,9.29A24.93,24.93,0,1,1,54,51.82V29.72l7.16,7.15,1.41-1.41L53,25.89l-9.57,9.57,1.42,1.41L52,29.72v22.1A24.92,24.92,0,0,1,35.41,9.29ZM22.49,49a12.47,12.47,0,0,1-7.13,2.77V41.84Zm-9.13,2.75A12.47,12.47,0,0,1,6.64,49l6.72-6.72Zm1-10.43.24-.24.25.24Zm-8.65-11A12.56,12.56,0,0,1,23.92,47.57l-9.36-9.36L5.21,47.57A12.57,12.57,0,0,1,5.67,30.31Z"/><path class="cls-1" d="M97.52,77.35H92.38A14.57,14.57,0,0,0,77.94,64.6H60.8v2H77.94A12.57,12.57,0,0,1,90.36,77.35H85.5a13,13,0,0,0-13,13v12a13,13,0,0,0,13,13h12a13,13,0,0,0,13-13v-12A13,13,0,0,0,97.52,77.35Zm11,25a11,11,0,0,1-11,11h-12a11,11,0,0,1-11-11v-12a11,11,0,0,1,11-11h5V97.12L83.36,90l-1.42,1.41L91.51,101l9.57-9.57L99.67,90l-7.16,7.15V79.35h5a11,11,0,0,1,11,11Z"/><path class="cls-1" d="M52,83.45a13,13,0,0,0-11-6.1H29a13,13,0,0,0-13,13v12a13,13,0,0,0,13,13H41a13,13,0,0,0,13-13V72.79H52Zm0,18.92a11,11,0,0,1-11,11H29a11,11,0,0,1-11-11v-12a11,11,0,0,1,11-11H41a11,11,0,0,1,11,11v12Z"/><path class="cls-1" d="M53,63.68A1.92,1.92,0,1,0,55,65.6,1.93,1.93,0,0,0,53,63.68Z"/><path class="cls-1" d="M53,19.94A1.92,1.92,0,1,0,51.12,18,1.92,1.92,0,0,0,53,19.94Z"/><path class="cls-1" d="M44.18,101.63a1.92,1.92,0,1,0,1.92,1.92A1.92,1.92,0,0,0,44.18,101.63Z"/></g></g></svg>