<svg xmlns="http://www.w3.org/2000/svg" width="100.574" height="100.701" viewBox="0 0 100.574 100.701"><defs><style>.a{fill:#414042;}</style></defs><path class="a" d="M88.271,0H12.3A12.321,12.321,0,0,0,0,12.3V88.4a12.321,12.321,0,0,0,12.3,12.3H88.271a12.312,12.312,0,0,0,12.3-12.3V12.3A12.312,12.312,0,0,0,88.271,0ZM2.734,22.692V12.3A9.578,9.578,0,0,1,12.3,2.734H48.92V77.526H12.3a9.578,9.578,0,0,1-9.569-9.569ZM12.3,80.26H48.92v7.655H12.3a9.578,9.578,0,0,1-9.569-9.542V75.64A12.294,12.294,0,0,0,12.3,80.26ZM2.734,88.4V86.056A12.276,12.276,0,0,0,12.3,90.613H48.92V97.9H12.3A9.578,9.578,0,0,1,2.734,88.4Zm95.106,0a9.578,9.578,0,0,1-9.569,9.569H51.654V90.677H88.271A12.266,12.266,0,0,0,97.84,86.12Zm0-10.025a9.578,9.578,0,0,1-9.569,9.569H51.654V80.287H88.271a12.285,12.285,0,0,0,9.569-4.557Zm0-45.566v35.15a9.578,9.578,0,0,1-9.569,9.569H51.654V2.734H88.271A9.578,9.578,0,0,1,97.84,12.3V32.735Z"/><path class="a" d="M12.8,56.06a2.087,2.087,0,1,0,2.087,2.087A2.087,2.087,0,0,0,12.8,56.06Zm0,2.734a.647.647,0,1,1,.638-.647.647.647,0,0,1-.638.647Z" transform="translate(-0.95 -4.971)"/><path class="a" d="M12.8,65.82a2.087,2.087,0,1,0,2.087,2.087A2.087,2.087,0,0,0,12.8,65.82Zm0,2.734a.647.647,0,1,1,.638-.647.647.647,0,0,1-.638.647Z" transform="translate(-0.95 -5.837)"/><path class="a" d="M66.5,18.864A2.087,2.087,0,1,0,64.41,16.8,2.087,2.087,0,0,0,66.5,18.864Zm0-2.734a.647.647,0,1,1-.458.2.647.647,0,0,1,.458-.2Z" transform="translate(-5.712 -1.303)"/><path class="a" d="M66.5,30.144a2.087,2.087,0,1,0-2.087-2.087A2.087,2.087,0,0,0,66.5,30.144Zm0-2.734a.647.647,0,1,1-.647.647A.647.647,0,0,1,66.5,27.41Z" transform="translate(-5.712 -2.303)"/><path class="a" d="M68.594,38.987a2.087,2.087,0,1,0-2.087,2.087,2.087,2.087,0,0,0,2.087-2.087Zm-2.734,0a.647.647,0,1,1,.647.638.647.647,0,0,1-.647-.638Z" transform="translate(-5.713 -3.272)"/><path class="a" d="M48.967,93.924a2.087,2.087,0,1,0-1.489-.624,2.087,2.087,0,0,0,1.489.624Zm0-2.734a.647.647,0,1,1-.647.647A.647.647,0,0,1,48.967,91.19Z" transform="translate(-4.157 -7.959)"/><path class="a" d="M40.727,101.31a2.087,2.087,0,1,0,2.087,2.087,2.087,2.087,0,0,0-2.087-2.087Zm0,2.734a.647.647,0,1,1,.647-.647A.647.647,0,0,1,40.727,104.044Z" transform="translate(-3.427 -8.984)"/><rect class="a" width="2.734" height="4.83" transform="translate(33.901 63.569) rotate(-45)"/><rect class="a" width="4.83" height="2.734" transform="translate(20.769 65.059) rotate(-45)"/><rect class="a" width="2.734" height="4.83" transform="translate(28.643 64.622)"/><path class="a" d="M11.2,20.939a.984.984,0,0,1,.246.365,1.522,1.522,0,0,1,.091.592v2.652a2.451,2.451,0,0,0,.592,1.713,2.069,2.069,0,0,0,1.586.629h1.294V25.222h-.738a.592.592,0,0,1-.583-.3,1.549,1.549,0,0,1-.128-.647V21.686a2.014,2.014,0,0,0-.164-.866,1.886,1.886,0,0,0-.383-.547,1.558,1.558,0,0,0-.492-.3,1.531,1.531,0,0,0-.437-.109h0a1.358,1.358,0,0,0,.437-.128,1.689,1.689,0,0,0,.875-.848,1.741,1.741,0,0,0,.164-.784V15.425a1.522,1.522,0,0,1,.128-.62.592.592,0,0,1,.6-.31h.738V12.81h-1.34a2.069,2.069,0,0,0-1.586.629,2.433,2.433,0,0,0-.592,1.713v2.734a1.422,1.422,0,0,1-.091.556.811.811,0,0,1-.246.337.911.911,0,0,1-.346.173,1.677,1.677,0,0,1-.374,0v1.741a1.677,1.677,0,0,1,.374.046A.911.911,0,0,1,11.2,20.939Z" transform="translate(-0.927 -1.136)"/><path class="a" d="M99.208,66.334a.984.984,0,0,1-.246-.365,1.5,1.5,0,0,1-.1-.592V62.771a2.415,2.415,0,0,0-.583-1.713,2.041,2.041,0,0,0-1.586-.638h-1.3v1.668h.747a.583.583,0,0,1,.592.3,1.558,1.558,0,0,1,.137.647v2.588a2.16,2.16,0,0,0,.155.911,1.686,1.686,0,0,0,.392.547,1.522,1.522,0,0,0,.483.3,1.659,1.659,0,0,0,.447.109h0a1.713,1.713,0,0,0-.911.447,1.823,1.823,0,0,0-.392.529,1.9,1.9,0,0,0-.155.793v2.625a1.568,1.568,0,0,1-.137.656.583.583,0,0,1-.592.3h-.747V74.5h1.3a2.069,2.069,0,0,0,1.586-.629,2.424,2.424,0,0,0,.583-1.713V69.424a1.413,1.413,0,0,1,.1-.556.911.911,0,0,1,.246-.337.775.775,0,0,1,.337-.164,1.385,1.385,0,0,1,.383-.055V66.553a1.824,1.824,0,0,1-.383-.046A.911.911,0,0,1,99.208,66.334Z" transform="translate(-8.459 -5.358)"/><rect class="a" width="20.851" height="2.734" transform="translate(19.584 23.767)"/><rect class="a" width="20.851" height="2.734" transform="translate(19.584 51.809)"/><rect class="a" width="20.851" height="2.734" transform="translate(60.065 51.809)"/><rect class="a" width="10.426" height="2.734" transform="translate(60.065 56.028)"/><rect class="a" width="13.77" height="2.734" transform="translate(26.665 32.653)"/><rect class="a" width="13.77" height="2.734" transform="translate(26.665 38.649)"/><rect class="a" width="13.77" height="2.734" transform="translate(26.665 44.646)"/><rect class="a" width="2.734" height="31.468" transform="translate(85.564 12.44)"/><rect class="a" width="10.681" height="2.734" transform="translate(55.7 82.511)"/></svg>