<svg xmlns="http://www.w3.org/2000/svg" viewBox="0 0 96.89 97"><defs><style>.cls-1{fill:#292728;}</style></defs><title>Home_Icon_1_1</title><g id="Layer_2" data-name="Layer 2"><g id="Layer_2-2" data-name="Layer 2"><path class="cls-1" d="M83.89,0H13A13,13,0,0,0,0,13V85.39A11.63,11.63,0,0,0,11.61,97H85.28A11.63,11.63,0,0,0,96.89,85.39V13A13,13,0,0,0,83.89,0ZM2,21.68V13A11,11,0,0,1,13,2H47.44V75.18H13a11,11,0,0,1-11-11V21.68Zm11,55.5H47.44v8.08H11.61A9.62,9.62,0,0,1,2,75.65V71.08A13,13,0,0,0,13,77.18ZM2,85.39V82.16a11.61,11.61,0,0,0,9.61,5.1H47.44V95H11.61A9.62,9.62,0,0,1,2,85.39Zm92.89,0A9.62,9.62,0,0,1,85.28,95H49.44V87.26H85.28a11.62,11.62,0,0,0,9.61-5.1Zm0-9.74a9.62,9.62,0,0,1-9.61,9.61H49.44V77.18H83.89a13,13,0,0,0,11-6.1Zm0-44.23V64.18a11,11,0,0,1-11,11H49.44V2H83.89a11,11,0,0,1,11,11V31.42Z"/><path class="cls-1" d="M36.75,28.38a3.8,3.8,0,1,0-3.47-5.33H18.67v2H33A3.8,3.8,0,0,0,36.75,28.38Zm0-5.59A1.8,1.8,0,1,1,35,24.58,1.8,1.8,0,0,1,36.75,22.79Z"/><path class="cls-1" d="M62.65,38.72a3.8,3.8,0,1,0-3.8,3.8A3.8,3.8,0,0,0,62.65,38.72Zm-5.6,0a1.8,1.8,0,1,1,1.8,1.8A1.8,1.8,0,0,1,57.05,38.72Z"/><path class="cls-1" d="M9,19.67v2.71a3.35,3.35,0,0,0,.84,2.34,3,3,0,0,0,2.27.93h2.26V22H12.9V19.61a3,3,0,0,0-.24-1.26,3.52,3.52,0,0,0-.33-.54,2.6,2.6,0,0,0,.32-.51,2.68,2.68,0,0,0,.25-1.2V13.61h1.43V10H12.07a3,3,0,0,0-2.27.94A3.35,3.35,0,0,0,9,13.27V16h-1v3.69H9Z"/><path class="cls-1" d="M88.36,58a.53.53,0,0,1,0-.14V55.32A3.32,3.32,0,0,0,87.51,53,3,3,0,0,0,85.24,52H83v3.61h1.43v2.43a2.84,2.84,0,0,0,.57,1.8,2.57,2.57,0,0,0-.31.51,2.71,2.71,0,0,0-.26,1.2v2.49H83V67.7h2.26a3,3,0,0,0,2.27-.94,3.31,3.31,0,0,0,.84-2.34V61.71h1V58h-1Z"/><rect class="cls-1" x="18.67" y="64.38" width="20.22" height="2"/><rect class="cls-1" x="57.93" y="50.24" width="20.22" height="2"/><rect class="cls-1" x="57.93" y="58.75" width="10.11" height="2"/><rect class="cls-1" x="25.54" y="31.66" width="13.36" height="2"/><rect class="cls-1" x="25.54" y="42.78" width="13.36" height="2"/><rect class="cls-1" x="25.54" y="53.9" width="13.36" height="2"/><rect class="cls-1" x="82.98" y="11.74" width="2" height="30.51"/><rect class="cls-1" x="53.69" y="80.02" width="10.36" height="2"/></g></g></svg>