<svg xmlns="http://www.w3.org/2000/svg" width="104.569" height="100.701" viewBox="0 0 104.569 100.701"><defs><style>.a{fill:#414042;}</style></defs><path class="a" d="M101.08,0H74V2.661h27.08a9.322,9.322,0,0,1,9.287,9.313V34.327h2.661V11.974A11.992,11.992,0,0,0,101.08,0Z" transform="translate(-8.707 0.186)"/><path class="a" d="M7.581,11.974a9.322,9.322,0,0,1,9.313-9.313H41.606V0H16.894A11.992,11.992,0,0,0,4.92,11.974V34.327H7.581Z" transform="translate(-0.901 0.186)"/><path class="a" d="M7.581,99.61H4.92a11.992,11.992,0,0,0,11.974,11.974H41.606v-2.661H16.894A9.322,9.322,0,0,1,7.581,99.61Z" transform="translate(-0.901 -11.07)"/><path class="a" d="M101.08,108.924H74v2.661h27.08A11.992,11.992,0,0,0,113.028,99.61h-2.661A9.322,9.322,0,0,1,101.08,108.924Z" transform="translate(-8.707 -11.07)"/><path class="a" d="M100.822,99.081a2.031,2.031,0,1,0-2.031,2.031A2.031,2.031,0,0,0,100.822,99.081Zm-2.661,0a.63.63,0,1,1,.63.63.63.63,0,0,1-.63-.63Z" transform="translate(-11.279 -10.78)"/><path class="a" d="M61.219,99.82a2.04,2.04,0,1,0,2.031,2.031,2.04,2.04,0,0,0-2.031-2.031Zm0,2.661a.63.63,0,1,1,.63-.63A.63.63,0,0,1,61.219,102.481Z" transform="translate(-7.031 -11.093)"/><path class="a" d="M17.86,24.022A2.031,2.031,0,1,0,19.891,22,2.031,2.031,0,0,0,17.86,24.022Zm2.661,0a.63.63,0,1,1-.63-.63A.63.63,0,0,1,20.521,24.022Z" transform="translate(-2.363 -2.3)"/><path class="a" d="M52.631,47.26a2.031,2.031,0,1,0,2.031,2.031A2.031,2.031,0,0,0,52.631,47.26Zm0,2.661a.63.63,0,1,1,.63-.63A.63.63,0,0,1,52.631,49.921Z" transform="translate(-6.063 -5.154)"/><path class="a" d="M60.8,55.43a2.031,2.031,0,1,0,2.031,2.031A2.031,2.031,0,0,0,60.8,55.43Zm0,2.661a.63.63,0,1,1,.63-.63A.63.63,0,0,1,60.8,58.091Z" transform="translate(-6.986 -6.077)"/><path class="a" d="M68.221,62.85a2.031,2.031,0,1,0,2.031,2.031A2.031,2.031,0,0,0,68.221,62.85Zm0,2.661a.63.63,0,1,1,.63-.63.63.63,0,0,1-.63.63Z" transform="translate(-7.824 -6.916)"/><path class="a" d="M26.54,13.921a2.031,2.031,0,1,0,2.031-2.031A2.031,2.031,0,0,0,26.54,13.921Zm2.661,0a.63.63,0,1,1-.63-.63A.63.63,0,0,1,29.2,13.921Z" transform="translate(-3.344 -1.157)"/><rect class="a" width="2.661" height="4.701" transform="translate(39.375 70.516)"/><rect class="a" width="4.701" height="2.661" transform="translate(29.316 62.498)"/><rect class="a" width="4.701" height="2.661" transform="translate(31.707 70.942) rotate(-45)"/><path class="a" d="M58.867,33.43A20.507,20.507,0,1,0,79.375,53.937,20.507,20.507,0,0,0,58.867,33.43Zm0,38.354A17.846,17.846,0,1,1,76.714,53.937,17.846,17.846,0,0,1,58.867,71.784Z" transform="translate(-4.68 -3.591)"/><path class="a" d="M95.166,40.4a41.689,41.689,0,0,0-30.85-30.85,9.757,9.757,0,1,0-19.514,0,41.689,41.689,0,0,0-29.537,26.53c-.373,0-.736-.053-1.109-.053a14.121,14.121,0,0,0,0,28.233,6.643,6.643,0,0,0,1.109-.062A41.689,41.689,0,0,0,44.837,90.734a9.757,9.757,0,1,0,19.514,0A41.689,41.689,0,0,0,95.2,59.875a9.757,9.757,0,1,0,0-19.514ZM54.577,2.637a7.1,7.1,0,1,1-7.1,7.1A7.1,7.1,0,0,1,54.577,2.637ZM14.156,61.6a11.46,11.46,0,0,1,0-22.911h.266q-.4,1.384-.692,2.794l2.6.55c.213-1,.461-1.987.754-2.963a11.442,11.442,0,0,1,0,22.175c-.293-.976-.541-1.969-.754-2.971l-2.6.55q.293,1.428.692,2.794ZM54.577,97.644a7.1,7.1,0,1,1,7.1-7.1A7.1,7.1,0,0,1,54.577,97.644Zm9.411-9.562a9.757,9.757,0,0,0-18.831,0,39.028,39.028,0,0,1-27.24-24.348,14.094,14.094,0,0,0,0-27.187A39.028,39.028,0,0,1,45.157,12.2a9.757,9.757,0,0,0,18.831,0A39.028,39.028,0,0,1,92.514,40.716a9.757,9.757,0,0,0,0,18.84A39.081,39.081,0,0,1,63.988,88.082ZM95.033,57.223a7.194,7.194,0,1,0-.08,0Z" transform="translate(-0.389 0.21)"/><path class="a" d="M106.471,51.89a4.142,4.142,0,1,0,4.133,4.133,4.142,4.142,0,0,0-4.133-4.133Zm0,5.615a1.481,1.481,0,1,1,1.367-1.477,1.481,1.481,0,0,1-1.367,1.477Z" transform="translate(-11.907 -5.677)"/><path class="a" d="M31.55,103.88l.55-2.6A23.3,23.3,0,0,1,14.129,83.31l-2.6.541A25.927,25.927,0,0,0,31.55,103.88Z" transform="translate(-1.648 -9.228)"/></svg>