<svg xmlns="http://www.w3.org/2000/svg" viewBox="0 0 101.25 97"><defs><style>.cls-1{fill:#292728;}</style></defs><title>Home_Icon_2_1</title><g id="Layer_2" data-name="Layer 2"><g id="Layer_2-2" data-name="Layer 2"><path class="cls-1" d="M89.89,0H63.56V2H89.89a9.37,9.37,0,0,1,9.36,9.35V33.09h2V11.35A11.36,11.36,0,0,0,89.89,0Z"/><path class="cls-1" d="M6.25,11.35A9.36,9.36,0,0,1,15.6,2h24V0h-24A11.36,11.36,0,0,0,4.25,11.35V33.09h2Z"/><path class="cls-1" d="M6.25,85.65h-2A11.36,11.36,0,0,0,15.6,97h24V95h-24A9.36,9.36,0,0,1,6.25,85.65Z"/><path class="cls-1" d="M89.89,95H63.56v2H89.89a11.36,11.36,0,0,0,11.36-11.35h-2A9.37,9.37,0,0,1,89.89,95Z"/><path class="cls-1" d="M52.75,28.85A19.65,19.65,0,1,0,72.4,48.5,19.67,19.67,0,0,0,52.75,28.85Zm0,37.3A17.65,17.65,0,1,1,70.4,48.5,17.67,17.67,0,0,1,52.75,66.15Z"/><path class="cls-1" d="M92.06,39.31H92A40.27,40.27,0,0,0,61.93,9.26s0,0,0-.07a9.19,9.19,0,0,0-18.38,0v.07A40.26,40.26,0,0,0,14.73,35.13c-.43,0-.86-.07-1.29-.07a13.44,13.44,0,0,0,0,26.88c.43,0,.86,0,1.29-.07A40.26,40.26,0,0,0,43.56,87.74v.07a9.19,9.19,0,0,0,18.38,0s0,0,0-.07A40.27,40.27,0,0,0,92,57.68h.07a9.19,9.19,0,0,0,0-18.38ZM52.75,2a7.19,7.19,0,1,1-7.19,7.19A7.2,7.2,0,0,1,52.75,2ZM13.44,59.94a11.44,11.44,0,0,1,0-22.88l.64,0c-.3,1-.56,2-.78,3.06l2,.41c.23-1.08.51-2.13.83-3.17a11.42,11.42,0,0,1,0,22.22c-.32-1-.6-2.09-.83-3.17l-2,.41c.22,1,.48,2,.78,3C13.86,59.92,13.65,59.94,13.44,59.94ZM52.75,95a7.19,7.19,0,1,1,7.19-7.19A7.19,7.19,0,0,1,52.75,95Zm8.94-9.26a9.18,9.18,0,0,0-17.89,0A38.29,38.29,0,0,1,16.71,61.52a13.42,13.42,0,0,0,0-26A38.29,38.29,0,0,1,43.8,11.26a9.18,9.18,0,0,0,17.89,0A38.27,38.27,0,0,1,90,39.56a9.17,9.17,0,0,0,0,17.88A38.26,38.26,0,0,1,61.69,85.74Zm30.37-30a7.19,7.19,0,1,1,7.19-7.19A7.2,7.2,0,0,1,92.06,55.69Z"/><path class="cls-1" d="M92.06,44.77a3.73,3.73,0,1,0,3.73,3.73A3.73,3.73,0,0,0,92.06,44.77Zm0,5.46a1.73,1.73,0,1,1,1.73-1.73A1.74,1.74,0,0,1,92.06,50.23Z"/><path class="cls-1" d="M29.19,91.31l.41-2A22.92,22.92,0,0,1,11.9,71.64l-2,.42A24.93,24.93,0,0,0,29.19,91.31Z"/></g></g></svg>