<svg xmlns="http://www.w3.org/2000/svg" viewBox="0 0 117.03 112.11"><defs><style>.cls-1{fill:#3c3c3c;}</style></defs><title>meet_1</title><g id="Layer_2" data-name="Layer 2"><g id="Layer_5" data-name="Layer 5"><path class="cls-1" d="M104,0H73.5V2H104a11,11,0,0,1,11,11V38.2h2V13A13,13,0,0,0,104,0Z"/><path class="cls-1" d="M6.92,13a11,11,0,0,1,11-11H45.78V0H17.92a13,13,0,0,0-13,13V38.2h2Z"/><path class="cls-1" d="M6.92,99.11h-2a13,13,0,0,0,13,13H45.78v-2H17.92A11,11,0,0,1,6.92,99.11Z"/><path class="cls-1" d="M104,110.11H73.5v2H104a13,13,0,0,0,13-13h-2A11,11,0,0,1,104,110.11Z"/><path class="cls-1" d="M100.34,98.84a1.79,1.79,0,1,0-1.79,1.79A1.79,1.79,0,0,0,100.34,98.84Z"/><path class="cls-1" d="M61,99.82a1.8,1.8,0,1,0,1.79,1.8A1.8,1.8,0,0,0,61,99.82Z"/><path class="cls-1" d="M17.86,23.78A1.79,1.79,0,1,0,19.65,22,1.79,1.79,0,0,0,17.86,23.78Z"/><path class="cls-1" d="M52.39,47.26a1.79,1.79,0,1,0,1.79,1.79A1.79,1.79,0,0,0,52.39,47.26Z"/><path class="cls-1" d="M26.54,13.68a1.79,1.79,0,1,0,1.79-1.79A1.79,1.79,0,0,0,26.54,13.68Z"/><path class="cls-1" d="M61,33.43A22.62,22.62,0,1,0,83.6,56.05,22.64,22.64,0,0,0,61,33.43Zm0,43.24A20.62,20.62,0,1,1,81.6,56.05,20.64,20.64,0,0,1,61,76.67Z"/><path class="cls-1" d="M106.54,45.56h-.19A46.54,46.54,0,0,0,71.46,10.68c0-.06,0-.12,0-.19a10.49,10.49,0,0,0-21,0,1.15,1.15,0,0,0,0,.19,46.55,46.55,0,0,0-33.5,30c-.52,0-1.05-.08-1.58-.08a15.42,15.42,0,1,0,0,30.83c.53,0,1.06,0,1.58-.08a46.53,46.53,0,0,0,33.5,30,1.34,1.34,0,0,0,0,.2,10.49,10.49,0,0,0,21,0c0-.07,0-.13,0-.2a46.52,46.52,0,0,0,34.89-34.89h.19a10.49,10.49,0,0,0,0-21ZM61,2a8.49,8.49,0,1,1-8.49,8.49A8.5,8.5,0,0,1,61,2ZM17.37,65.29l-2,.41c.26,1.26.58,2.5,1,3.72-.32,0-.63,0-1,0a13.42,13.42,0,1,1,0-26.83c.32,0,.63,0,1,0-.37,1.22-.69,2.46-1,3.72l2,.41c.28-1.31.62-2.59,1-3.84a13.4,13.4,0,0,1,0,26.15C18,67.87,17.65,66.59,17.37,65.29ZM61,110.11a8.5,8.5,0,1,1,8.49-8.49A8.5,8.5,0,0,1,61,110.11ZM71.23,99.42a10.49,10.49,0,0,0-20.51,0A44.51,44.51,0,0,1,19,71a15.39,15.39,0,0,0,0-29.95,44.52,44.52,0,0,1,31.72-28.4,10.49,10.49,0,0,0,20.51,0A44.55,44.55,0,0,1,104.35,45.8a10.49,10.49,0,0,0,0,20.51A44.53,44.53,0,0,1,71.23,99.42Zm35.31-34.88A8.49,8.49,0,1,1,115,56.05,8.5,8.5,0,0,1,106.54,64.54Z"/><path class="cls-1" d="M106.54,51.89a4.17,4.17,0,1,0,4.16,4.16A4.17,4.17,0,0,0,106.54,51.89Zm0,6.33a2.17,2.17,0,1,1,2.16-2.17A2.17,2.17,0,0,1,106.54,58.22Z"/><path class="cls-1" d="M33.71,105.51l.41-2A26.77,26.77,0,0,1,13.47,82.91l-2,.41A28.71,28.71,0,0,0,33.71,105.51Z"/></g></g></svg>