<svg xmlns="http://www.w3.org/2000/svg" viewBox="0 0 96.89 97"><defs><style>.cls-1{fill:#ff931e;}</style></defs><g id="Layer_2" data-name="Layer 2"><g id="Layer_2-2" data-name="Layer 2"><path class="cls-1" d="M85.28,0H11.61A11.63,11.63,0,0,0,0,11.61V84A13,13,0,0,0,13,97H83.89a13,13,0,0,0,13-13V11.61A11.63,11.63,0,0,0,85.28,0Zm9.61,32.82V84a11,11,0,0,1-11,11H13A11,11,0,0,1,2,84V11.61A9.62,9.62,0,0,1,11.61,2H85.28a9.62,9.62,0,0,1,9.61,9.61V32.82Z"/><path class="cls-1" d="M49.84,57.2a8.31,8.31,0,0,0,16.62,0h-2a6.31,6.31,0,1,1-6.31-6.31v-2A8.32,8.32,0,0,0,49.84,57.2Z"/><path class="cls-1" d="M14.63,78.12a.91.91,0,0,1-.24-.35,1.57,1.57,0,0,1-.09-.58V74.62A2.36,2.36,0,0,0,13.73,73a2,2,0,0,0-1.54-.61H10.93V74h.72a.56.56,0,0,1,.58.3,1.45,1.45,0,0,1,.13.63v2.5a1.88,1.88,0,0,0,.16.84,1.52,1.52,0,0,0,.37.53,1.58,1.58,0,0,0,.47.29,1.43,1.43,0,0,0,.43.11v0a1.27,1.27,0,0,0-.43.13,1.86,1.86,0,0,0-.47.3,1.68,1.68,0,0,0-.37.52,1.61,1.61,0,0,0-.16.76v2.57a1.51,1.51,0,0,1-.13.63.57.57,0,0,1-.58.29h-.72V86h1.26a2,2,0,0,0,1.54-.62,2.34,2.34,0,0,0,.57-1.66V81.1a1.38,1.38,0,0,1,.09-.54.83.83,0,0,1,.24-.33.84.84,0,0,1,.33-.16,1.57,1.57,0,0,1,.37,0V78.33a1.18,1.18,0,0,1-.37,0A.84.84,0,0,1,14.63,78.12Z"/><path class="cls-1" d="M12.91,24.51V22.9h-.72a.57.57,0,0,1-.58-.29,1.51,1.51,0,0,1-.13-.63V19.47a1.88,1.88,0,0,0-.16-.84A1.52,1.52,0,0,0,11,18.1a1.58,1.58,0,0,0-.47-.29,1.81,1.81,0,0,0-.43-.11v0a1.49,1.49,0,0,0,.43-.12,1.91,1.91,0,0,0,.47-.31,1.57,1.57,0,0,0,.37-.52,1.61,1.61,0,0,0,.16-.76V13.39a1.51,1.51,0,0,1,.13-.63.57.57,0,0,1,.58-.29h.72V10.86H11.65a2,2,0,0,0-1.54.61,2.34,2.34,0,0,0-.57,1.66v2.63a1.38,1.38,0,0,1-.09.54.83.83,0,0,1-.24.33.84.84,0,0,1-.33.16,1.57,1.57,0,0,1-.37.05v1.69a1.57,1.57,0,0,1,.37,0,.75.75,0,0,1,.33.17.8.8,0,0,1,.24.34,1.57,1.57,0,0,1,.09.58v2.57a2.36,2.36,0,0,0,.57,1.66,2,2,0,0,0,1.54.61Z"/><rect class="cls-1" x="18.58" y="56.87" width="19.01" height="2"/><rect class="cls-1" x="19.04" y="42.46" width="64.28" height="2"/><rect class="cls-1" x="19.04" y="71.21" width="64.28" height="2"/><rect class="cls-1" x="17.6" y="25.38" width="41.44" height="2"/><polygon class="cls-1" points="55.32 54.99 53.91 56.41 58.03 60.53 67.31 51.24 65.9 49.83 58.03 57.7 55.32 54.99"/><path class="cls-1" d="M76.41,32.69a6.31,6.31,0,0,1,0-12.62v-2a8.31,8.31,0,1,0,8.31,8.31h-2A6.32,6.32,0,0,1,76.41,32.69Z"/><polygon class="cls-1" points="76.29 26.88 73.58 24.17 72.17 25.58 76.29 29.71 85.57 20.42 84.16 19.01 76.29 26.88"/></g></g></svg>