<svg xmlns="http://www.w3.org/2000/svg" viewBox="0 0 96.94 97.06"><defs><style>.cls-1{fill:#ff931e;}</style></defs><g id="Layer_2" data-name="Layer 2"><g id="Layer_2-2" data-name="Layer 2"><path class="cls-1" d="M47.47,26.9h2A22.41,22.41,0,0,0,27.09,4.52v2A20.4,20.4,0,0,1,47.47,26.9Z"/><path class="cls-1" d="M85.33,0,44.08.06l28.1,28.1a5.55,5.55,0,0,0,7.51,7.51L94.94,50.92V85.44a9.55,9.55,0,0,1-2.12,6L81.73,80.38A5.54,5.54,0,0,0,74,72.67l-11-11a5.47,5.47,0,0,0,1-3.14,5.54,5.54,0,0,0-8.7-4.56L40.63,39.27A18.34,18.34,0,0,0,14.72,13.36L5.53,4.17A9.62,9.62,0,0,1,11.61,2V0A11.63,11.63,0,0,0,0,11.61V85.44A11.63,11.63,0,0,0,11.61,97.06H52.92l-1.71-1.71-9.75-9.76a10,10,0,0,0-14.06-14l-8.65-8.66A7.27,7.27,0,0,0,8.56,52.7L2.7,46.83l-.7-.7V11.61a9.53,9.53,0,0,1,2.13-6l9.18,9.18a18.35,18.35,0,0,0,25.9,25.9L53.88,55.35a5.54,5.54,0,0,0,7.71,7.71l11,11a5.54,5.54,0,0,0,7.71,7.71L91.41,92.88a9.55,9.55,0,0,1-6.08,2.18v2A11.62,11.62,0,0,0,96.94,85.44V11.61A11.62,11.62,0,0,0,85.33,0ZM33.72,71.28A8,8,0,0,1,40,84.17L28.83,73A8,8,0,0,1,33.72,71.28Zm4.9,14.3a8,8,0,0,1-11.21-11.2ZM13,53.22a5.28,5.28,0,0,1,4.37,8.24L10,54.12A5.25,5.25,0,0,1,13,53.22ZM8.58,55.54l7.33,7.33A5.28,5.28,0,0,1,7.67,58.5,5.18,5.18,0,0,1,8.58,55.54ZM7.15,54.11A7.21,7.21,0,0,0,5.67,58.5a7.27,7.27,0,0,0,11.66,5.8L26,73A10,10,0,0,0,40,87l8.05,8H11.61A9.63,9.63,0,0,1,2,85.44V49Zm70,19.57a3.55,3.55,0,0,1,3.55,3.55,3.43,3.43,0,0,1-.45,1.68l-4.78-4.78A3.43,3.43,0,0,1,77.17,73.68ZM58.44,55A3.55,3.55,0,0,1,62,58.5a3.43,3.43,0,0,1-.45,1.68L56.76,55.4A3.43,3.43,0,0,1,58.44,55ZM27.09,10.52A16.35,16.35,0,0,1,39.22,37.86L16.13,14.77A16.31,16.31,0,0,1,27.09,10.52Zm0,32.75A16.35,16.35,0,0,1,14.73,16.2L37.79,39.26A16.28,16.28,0,0,1,27.09,43.27ZM58.44,62a3.52,3.52,0,0,1-3.1-5.23l4.79,4.79A3.6,3.6,0,0,1,58.44,62ZM77.17,80.77a3.52,3.52,0,0,1-3.1-5.23l4.79,4.79A3.57,3.57,0,0,1,77.17,80.77Zm-.1-46.44a3.5,3.5,0,0,1-3.36-4.64l4.45,4.45A3.62,3.62,0,0,1,77.07,34.33ZM79.83,33l-5-5a3.53,3.53,0,0,1,5,5ZM94.94,48.09,81.25,34.4a5.46,5.46,0,0,0,1.36-3.62,5.54,5.54,0,0,0-9.17-4.19L48.9,2.05,85.33,2a9.62,9.62,0,0,1,9.61,9.61Z"/></g></g></svg>